<svg width="201" height="62" viewBox="0 0 201 62" fill="none" xmlns="http://www.w3.org/2000/svg">
<path fill-rule="evenodd" clip-rule="evenodd" d="M0.43457 0.1875H62.151V61.8675H0.43457V0.1875Z" fill="#FEFEFE"/>
<path fill-rule="evenodd" clip-rule="evenodd" d="M1.68555 1.43799H12.4182V11.9343H1.68555V1.43799Z" fill="#2B2A29"/>
<path fill-rule="evenodd" clip-rule="evenodd" d="M13.8057 1.43799H24.5382V11.9343H13.8057V1.43799Z" fill="#E31E24"/>
<path fill-rule="evenodd" clip-rule="evenodd" d="M25.9258 1.43799H36.6584V11.9343H25.9258V1.43799Z" fill="#E31E24"/>
<path fill-rule="evenodd" clip-rule="evenodd" d="M38.0469 1.43799H48.7794V11.9343H38.0469V1.43799Z" fill="#E31E24"/>
<path fill-rule="evenodd" clip-rule="evenodd" d="M50.167 1.43799H60.8996V11.9343H50.167V1.43799Z" fill="#E31E24"/>
<path fill-rule="evenodd" clip-rule="evenodd" d="M1.68555 13.6084H12.4182V24.1047H1.68555V13.6084Z" fill="#2B2A29"/>
<path fill-rule="evenodd" clip-rule="evenodd" d="M13.8057 13.6084H24.5382V24.1047H13.8057V13.6084Z" fill="#2B2A29"/>
<path fill-rule="evenodd" clip-rule="evenodd" d="M25.9258 13.6084H36.6584V24.1047H25.9258V13.6084Z" fill="#2B2A29"/>
<path fill-rule="evenodd" clip-rule="evenodd" d="M38.0469 13.6084H48.7794V24.1047H38.0469V13.6084Z" fill="#E31E24"/>
<path fill-rule="evenodd" clip-rule="evenodd" d="M50.167 13.6084H60.8996V24.1047H50.167V13.6084Z" fill="#E31E24"/>
<path fill-rule="evenodd" clip-rule="evenodd" d="M1.68555 25.7788H12.4182V36.2752H1.68555V25.7788Z" fill="#2B2A29"/>
<path fill-rule="evenodd" clip-rule="evenodd" d="M13.8057 25.7788H24.5382V36.2752H13.8057V25.7788Z" fill="#2B2A29"/>
<path fill-rule="evenodd" clip-rule="evenodd" d="M25.9258 25.7788H36.6584V36.2752H25.9258V25.7788Z" fill="#E31E24"/>
<path fill-rule="evenodd" clip-rule="evenodd" d="M38.0469 25.7788H48.7794V36.2752H38.0469V25.7788Z" fill="#2B2A29"/>
<path fill-rule="evenodd" clip-rule="evenodd" d="M50.167 25.7788H60.8996V36.2752H50.167V25.7788Z" fill="#E31E24"/>
<path fill-rule="evenodd" clip-rule="evenodd" d="M1.68555 37.9497H12.4182V48.4461H1.68555V37.9497Z" fill="#2B2A29"/>
<path fill-rule="evenodd" clip-rule="evenodd" d="M13.8057 37.9497H24.5382V48.4461H13.8057V37.9497Z" fill="#E31E24"/>
<path fill-rule="evenodd" clip-rule="evenodd" d="M25.9258 37.9497H36.6584V48.4461H25.9258V37.9497Z" fill="#2B2A29"/>
<path fill-rule="evenodd" clip-rule="evenodd" d="M38.0469 37.9497H48.7794V48.4461H38.0469V37.9497Z" fill="#2B2A29"/>
<path fill-rule="evenodd" clip-rule="evenodd" d="M50.167 37.9497H60.8996V48.4461H50.167V37.9497Z" fill="#E31E24"/>
<path fill-rule="evenodd" clip-rule="evenodd" d="M1.68555 50.1196H12.4182V60.6165H1.68555V50.1196Z" fill="#E31E24"/>
<path fill-rule="evenodd" clip-rule="evenodd" d="M13.8057 50.1196H24.5382V60.6165H13.8057V50.1196Z" fill="#2B2A29"/>
<path fill-rule="evenodd" clip-rule="evenodd" d="M25.9258 50.1196H36.6584V60.6165H25.9258V50.1196Z" fill="#2B2A29"/>
<path fill-rule="evenodd" clip-rule="evenodd" d="M38.0469 50.1196H48.7794V60.6165H38.0469V50.1196Z" fill="#2B2A29"/>
<path fill-rule="evenodd" clip-rule="evenodd" d="M50.167 50.1196H60.8996V60.6165H50.167V50.1196Z" fill="#2B2A29"/>
<path d="M77.4054 38.9065H75.714L74.3755 35.0462H69.4888L68.3058 38.9065H66.9248L71.2103 25.7012H73.1004L77.4054 38.9065ZM74.0285 33.8079L71.9966 27.4614L69.9449 33.8079H74.0285ZM86.7659 34.465L88.279 34.8052C87.5555 37.7145 85.9234 39.1672 83.3792 39.1672C81.7073 39.1672 80.3956 38.4937 79.444 37.1463C78.4924 35.7993 78.0166 34.1416 78.0166 32.1735C78.0166 30.1428 78.5121 28.5112 79.5068 27.2799C80.5014 26.0447 81.8328 25.4307 83.5047 25.4307C85.9829 25.4307 87.5751 26.8469 88.279 29.6771L86.7195 29.9874C86.151 27.8841 85.0772 26.8338 83.4948 26.8338C82.3283 26.8338 81.4231 27.3225 80.7787 28.3001C80.1375 29.2741 79.8172 30.6477 79.8172 32.4145C79.8172 34.0325 80.1479 35.3303 80.8054 36.3076C81.4629 37.2853 82.3348 37.7739 83.419 37.7739C85.1039 37.7739 86.2175 36.6708 86.7659 34.465ZM98.8786 37.457V38.9065H90.3311V25.7012H98.6936V27.1507H91.9866V31.3512H97.3093V32.6954H91.9866V37.457H98.8786ZM110.628 38.9065H108.973V32.619H102.847V38.9065H101.192V25.7012H102.847V31.1663H108.973V25.7012H110.628V38.9065ZM117.907 38.9065H116.262V27.1507H112.478V25.7012H121.703V27.1507H117.907V38.9065ZM125.903 33.3623V34.5445H121.529V33.3623H125.903ZM129.505 37.8034V38.9065H127.849V25.7012H129.505V34.2338C129.505 34.7954 129.481 35.3701 129.435 35.9542C129.894 35.1291 130.436 34.2899 131.064 33.4315L135.805 26.9892V25.7012H137.461V38.9065H135.805V31.2159C135.805 30.7371 135.829 29.9443 135.875 28.8351C135.498 29.5516 134.953 30.3936 134.239 31.361L129.505 37.8034ZM153.519 38.9065H151.913V27.3753L147.614 38.9065H146.491L142.166 27.3753V38.9065H140.762V25.7012H143.22L147.198 36.265L151.1 25.7012H153.519V38.9065ZM156.82 38.9065V25.7012H165.986V38.9065H164.34V27.1507H158.475V38.9065H156.82ZM173.856 39.1672C172.158 39.1672 170.836 38.5068 169.888 37.1893C168.94 35.8718 168.464 34.2539 168.464 32.3387C168.464 30.3374 168.959 28.6863 169.954 27.3852C170.949 26.0808 172.264 25.4307 173.906 25.4307C175.538 25.4307 176.846 26.071 177.834 27.3491C178.822 28.6301 179.314 30.2448 179.314 32.1932C179.314 34.0625 178.835 35.6935 177.877 37.0835C176.919 38.474 175.577 39.1672 173.856 39.1672ZM173.896 37.8235C175.049 37.8235 175.954 37.2984 176.605 36.2449C177.256 35.1951 177.583 33.8411 177.583 32.1834C177.583 30.4793 177.246 29.1552 176.572 28.2075C175.898 27.2597 175.003 26.7842 173.886 26.7842C172.756 26.7842 171.857 27.2962 171.193 28.3231C170.529 29.3466 170.195 30.6908 170.195 32.3485C170.195 33.9665 170.532 35.284 171.203 36.2977C171.874 37.3148 172.772 37.8235 173.896 37.8235ZM183.458 38.9065H181.802V25.7012H186.488C187.951 25.7012 189.032 26.1009 189.729 26.8965C190.426 27.6926 190.777 28.6006 190.777 29.6177C190.777 30.7535 190.396 31.6914 189.64 32.4342C188.88 33.1774 187.889 33.5472 186.663 33.5472H183.458V38.9065ZM183.458 32.1735H186.498C187.277 32.1735 187.908 31.939 188.384 31.4733C188.863 31.0044 189.101 30.387 189.101 29.6177C189.101 28.9605 188.89 28.376 188.464 27.8574C188.038 27.3425 187.419 27.0847 186.613 27.0847H183.458V32.1735ZM196.863 38.9065H195.217V27.1507H191.434V25.7012H200.659V27.1507H196.863V38.9065Z" fill="#2B2A29"/>
</svg>
