<svg width="40" height="40" viewBox="0 0 40 40" fill="none" xmlns="http://www.w3.org/2000/svg">
<g clip-path="url(#clip0)">
<path d="M16.1429 39.7656C12.6386 39.05 9.37333 37.42 6.82479 35.1538C0.25436 29.3294 -1.79641 20.1654 1.68791 11.9953C2.54406 9.98757 3.93779 7.95996 5.65008 6.19076L7.16327 4.64024L7.26282 13.7446C7.36237 22.4713 7.38229 22.9086 7.8004 24.0019C8.63664 26.2085 9.5127 27.6 11.0458 29.1107C14.9881 33.0268 20.7621 34.0009 25.6799 31.5956C30.2992 29.3294 33.2061 24.3796 32.8676 19.3702C32.6486 16.0108 31.5137 13.5458 29.0647 11.1008C27.213 9.25206 25.0428 8.03947 22.6934 7.54251C20.2842 7.04554 20.4037 6.96603 20.4037 8.99364V10.743L21.7178 10.9815C26.8148 11.9158 30.1996 16.9252 29.1444 21.9743C28.8059 23.5845 28.0493 25.0158 26.8348 26.3277C24.9831 28.3156 22.3748 29.2698 20.105 29.2698C16.342 29.2698 13.216 27.1229 11.6829 23.9821C11.6829 23.9821 11.2847 23.0875 11.1653 22.5309C10.4087 19.251 10.8865 12.373 10.8865 12.373L10.8268 2.29457L11.4241 1.99639C11.7427 1.81749 12.0612 1.69822 12.121 1.69822C12.1807 1.69822 12.2404 6.32992 12.2802 11.9953C12.2802 11.9953 11.5635 19.41 12.4594 22.2526C12.5789 22.6701 12.8377 23.3658 12.8377 23.3658C13.6142 24.9561 14.8686 26.3675 16.5013 27.1428C17.7357 27.7192 18.3728 27.9975 20.2046 27.9975C21.3992 27.9975 22.4545 27.6198 23.6889 27.0632C25.1225 26.4072 26.775 24.6579 27.3922 23.0478C29.0647 18.6347 26.7352 13.9036 22.2155 12.5718C20.3639 12.0351 20.4037 11.9953 20.4037 14.003V15.7523L21.2797 15.9909C24.4654 16.8457 25.441 21.1196 22.9323 23.3062C22.0563 24.0815 21.2598 24.4194 19.8661 24.4194C18.3728 24.4194 16.9393 23.5249 16.2026 22.1334C15.7646 21.2985 15.7247 20.5232 15.7247 20.1654C15.7247 16.8457 15.6451 10.8423 15.6451 10.8423L15.5854 0.565138L16.0433 0.445866C16.3021 0.38623 17.3176 0.227203 18.3131 0.107931C21.678 -0.329397 26.6556 0.783802 30.0005 2.69214C34.56 5.29623 38.0045 9.7689 39.438 14.9373C39.9358 16.7065 39.9955 17.2432 39.9955 20.0859C39.9955 22.9285 39.9358 23.4652 39.4579 25.2145C37.5067 32.2515 32.5291 37.2609 25.4211 39.4078C23.9278 39.865 23.231 39.9445 20.5829 40.0042C18.4525 40.0241 17.0787 39.9644 16.1429 39.7656Z" fill="white"/>
</g>
<defs>
<clipPath id="clip0">
<rect width="40" height="40" fill="white"/>
</clipPath>
</defs>
</svg>
