<svg width="145" height="60" viewBox="0 0 145 60" fill="none" xmlns="http://www.w3.org/2000/svg">
<path d="M17 15.3003C16.7 17.6003 15.9 19.3003 14.5 20.5003C13.1 21.7003 11.2 22.3003 8.9 22.3003C6.4 22.3003 4.3 21.4003 2.8 19.6003C1.3 17.8003 0.5 15.4003 0.5 12.3003V10.2003C0.5 8.20029 0.9 6.50029 1.6 5.00029C2.3 3.50029 3.3 2.30029 4.6 1.50029C5.9 0.700293 7.4 0.300293 9.1 0.300293C11.4 0.300293 13.2 0.900293 14.6 2.20029C16 3.50029 16.8 5.20029 17 7.50029H14.2C14 5.80029 13.4 4.60029 12.6 3.80029C11.8 3.00029 10.6 2.60029 9.2 2.60029C7.4 2.60029 6 3.30029 5 4.60029C4 5.90029 3.5 7.80029 3.5 10.3003V12.4003C3.5 14.7003 4 16.6003 5 17.9003C6 19.3003 7.3 20.0003 9.1 20.0003C10.7 20.0003 11.9 19.6003 12.7 18.9003C13.5 18.2003 14.1 17.0003 14.4 15.2003H17V15.3003Z" fill="#8B91A6"/>
<path fill-rule="evenodd" clip-rule="evenodd" d="M24.1002 16.5002H33.1002L35.2002 22.1002H38.1002L29.9002 0.700195H27.4002L19.2002 22.1002H22.1002L24.1002 16.5002ZM32.3002 14.2002H25.0002L28.7002 4.2002L32.3002 14.2002Z" fill="#8B91A6"/>
<path fill-rule="evenodd" clip-rule="evenodd" d="M44.5998 13.4002H49.5998L54.2998 22.1002H57.2998V21.9002L52.2998 12.8002C53.5998 12.3002 54.5998 11.6002 55.2998 10.6002C55.9998 9.60019 56.3998 8.4002 56.3998 7.1002C56.3998 5.0002 55.7998 3.4002 54.4998 2.3002C53.1998 1.2002 51.2998 0.700195 48.8998 0.700195H41.7998V22.1002H44.5998V13.4002ZM48.8998 11.1002H44.5998H44.4998V3.0002H48.7998C50.2998 3.0002 51.3998 3.4002 52.1998 4.1002C52.9998 4.8002 53.3998 5.8002 53.3998 7.10019C53.3998 8.3002 52.9998 9.3002 52.1998 10.0002C51.3998 10.7002 50.2998 11.1002 48.8998 11.1002Z" fill="#8B91A6"/>
<path d="M85 15.3003C84.7 17.6003 83.9 19.3003 82.5 20.5003C81.1 21.7003 79.2 22.3003 76.9 22.3003C74.4 22.3003 72.3 21.4003 70.8 19.6003C69.3 17.8003 68.5 15.4003 68.5 12.3003V10.2003C68.5 8.20029 68.9 6.50029 69.6 5.00029C70.3 3.50029 71.3 2.30029 72.6 1.50029C73.9 0.700293 75.4 0.300293 77.1 0.300293C79.4 0.300293 81.2 0.900293 82.6 2.20029C84 3.50029 84.8 5.20029 85 7.50029H82.2C82 5.80029 81.4 4.60029 80.6 3.80029C79.8 3.00029 78.6 2.60029 77.2 2.60029C75.4 2.60029 74 3.30029 73 4.60029C72 5.90029 71.5 7.80029 71.5 10.3003V12.4003C71.5 14.7003 72 16.6003 73 17.9003C74 19.3003 75.3 20.0003 77.1 20.0003C78.7 20.0003 79.9 19.6003 80.7 18.9003C81.5 18.2003 82.1 17.0003 82.4 15.2003H85V15.3003Z" fill="#8B91A6"/>
<path fill-rule="evenodd" clip-rule="evenodd" d="M104.8 17.6005C105.5 16.0005 105.9 14.2005 105.9 12.1005V10.8005C105.9 8.70049 105.5 6.90049 104.8 5.30049C104.1 3.70049 103.1 2.50049 101.8 1.70049C100.5 0.900488 99.0002 0.500488 97.3002 0.500488C95.6002 0.500488 94.1002 1.00049 92.8002 1.80049C91.5002 2.60049 90.5002 3.80049 89.8002 5.40049C89.1002 7.00049 88.7002 8.80049 88.7002 10.9005V12.4005C88.7002 14.4005 89.1002 16.2005 89.8002 17.7005C90.5002 19.2005 91.5002 20.4005 92.8002 21.2005C94.1002 22.0005 95.6002 22.4005 97.3002 22.4005C99.0002 22.4005 100.5 22.0005 101.8 21.2005C103.1 20.4005 104.1 19.2005 104.8 17.6005ZM101.6 4.90049C102.6 6.20049 103.1 8.20049 103.1 10.7005V12.4005C103.1 14.9005 102.6 16.8005 101.6 18.1005C100.6 19.4005 99.2002 20.1005 97.4002 20.1005C95.6002 20.1005 94.2002 19.4005 93.1002 18.0005C92.0002 16.6005 91.5002 14.7005 91.5002 12.2005V10.6005C91.5002 8.10049 92.1002 6.20049 93.1002 4.90049C94.1002 3.60049 95.5002 2.90049 97.3002 2.90049C99.2002 2.90049 100.6 3.60049 101.6 4.90049Z" fill="#8B91A6"/>
<path d="M117.1 12.6003C114.7 11.9003 112.9 11.0003 111.8 10.0003C110.7 9.00029 110.1 7.70029 110.1 6.20029C110.1 4.50029 110.8 3.10029 112.1 2.00029C113.4 0.900293 115.2 0.300293 117.4 0.300293C118.9 0.300293 120.2 0.600293 121.3 1.20029C122.4 1.80029 123.3 2.60029 124 3.60029C124.6 4.60029 124.9 5.70029 124.9 6.90029H122.1C122.1 5.60029 121.7 4.60029 120.9 3.80029C120.1 3.10029 118.9 2.70029 117.4 2.70029C116 2.70029 114.9 3.00029 114.1 3.60029C113.3 4.20029 112.9 5.10029 112.9 6.20029C112.9 7.10029 113.3 7.80029 114 8.40029C114.7 9.00029 116 9.60029 117.8 10.1003C119.6 10.6003 121 11.2003 122 11.8003C123 12.4003 123.7 13.1003 124.2 13.9003C124.7 14.7003 124.9 15.6003 124.9 16.7003C124.9 18.4003 124.2 19.8003 122.9 20.9003C121.5 21.9003 119.7 22.5003 117.5 22.5003C116 22.5003 114.7 22.2003 113.4 21.7003C112.1 21.1003 111.1 20.4003 110.5 19.4003C109.8 18.4003 109.5 17.3003 109.5 16.1003H112.3C112.3 17.4003 112.8 18.4003 113.7 19.2003C114.7 19.9003 115.9 20.3003 117.5 20.3003C119 20.3003 120.1 20.0003 120.9 19.4003C121.7 18.8003 122.1 18.0003 122.1 16.9003C122.1 15.9003 121.7 15.0003 121 14.5003C120.4 13.7003 119 13.1003 117.1 12.6003Z" fill="#8B91A6"/>
<path d="M144.3 3.0002H137.4V22.1002H134.6V3.0002H127.7V0.700195H144.2V3.0002H144.3Z" fill="#8B91A6"/>
<path d="M12.3998 49.5005H3.0998V57.1005H13.8998V59.4005H0.299805V38.0005H13.6998V40.3005H3.0998V47.2005H12.3998V49.5005Z" fill="#8B91A6"/>
<path d="M24.8002 49.9001C22.4002 49.2001 20.6002 48.3001 19.5002 47.3001C18.4002 46.3001 17.8002 45.0001 17.8002 43.5001C17.8002 41.8001 18.5002 40.4001 19.8002 39.3001C21.1002 38.2001 22.9002 37.6001 25.1002 37.6001C26.6002 37.6001 27.9002 37.9001 29.0002 38.5001C30.2002 39.1001 31.0002 39.9001 31.7002 40.9001C32.3002 41.9001 32.6002 43.0001 32.6002 44.2001H29.8002C29.8002 42.9001 29.4002 41.9001 28.6002 41.1001C27.8002 40.4001 26.6002 40.0001 25.1002 40.0001C23.7002 40.0001 22.6002 40.3001 21.8002 40.9001C21.0002 41.5001 20.6002 42.4001 20.6002 43.5001C20.6002 44.4001 21.0002 45.1001 21.7002 45.7001C22.4002 46.3001 23.7002 46.9001 25.5002 47.4001C27.3002 47.9001 28.7002 48.5001 29.7002 49.1001C30.7002 49.7001 31.4002 50.4001 31.9002 51.2001C32.4002 52.0001 32.6002 52.9001 32.6002 54.0001C32.6002 55.7001 31.9002 57.1001 30.6002 58.2001C29.2002 59.2001 27.4002 59.8001 25.2002 59.8001C23.7002 59.8001 22.4002 59.5001 21.1002 59.0001C19.8002 58.4001 18.8002 57.7001 18.2002 56.7001C17.5002 55.7001 17.2002 54.6001 17.2002 53.4001H20.0002C20.0002 54.7001 20.5002 55.7001 21.4002 56.5001C22.4002 57.2001 23.6002 57.6001 25.2002 57.6001C26.7002 57.6001 27.8002 57.3001 28.6002 56.7001C29.4002 56.1001 29.8002 55.3001 29.8002 54.2001C29.8002 53.2001 29.4002 52.3001 28.7002 51.8001C28.0002 51.3001 26.8002 50.4001 24.8002 49.9001Z" fill="#8B91A6"/>
<path d="M52.4994 40.3005H45.5994V59.4005H42.7994V40.3005H35.8994V38.0005H52.4994V40.3005Z" fill="#8B91A6"/>
<path d="M59.8996 59.4005H57.0996V38.0005H59.8996V59.4005Z" fill="#8B91A6"/>
<path d="M69.7002 38.0005L76.7002 55.5005L83.7002 38.0005H87.4002V59.4005H84.6002V51.1005L84.9002 42.1005L77.9002 59.4005H75.7002L68.7002 42.1005L69.0002 51.1005V59.4005H66.2002V38.0005H69.7002Z" fill="#8B91A6"/>
<path fill-rule="evenodd" clip-rule="evenodd" d="M96.4996 53.8005H105.5L107.6 59.4005H110.5L102.3 38.0005H99.7996L91.5996 59.4005H94.4996L96.4996 53.8005ZM104.7 51.5005H97.3996L101.1 41.5005L104.7 51.5005Z" fill="#8B91A6"/>
<path d="M126.9 40.3005H120V59.4005H117.2V40.3005H110.3V38.0005H126.8V40.3005H126.9Z" fill="#8B91A6"/>
<path d="M143.4 49.5005H134.1V57.1005H144.9V59.4005H131.3V38.0005H144.7V40.3005H134.1V47.2005H143.4V49.5005Z" fill="#8B91A6"/>
</svg>
