<svg width="100" height="100" viewBox="0 0 100 100" fill="none" xmlns="http://www.w3.org/2000/svg">
<path opacity="0.1" d="M0 0H70C86.5685 0 100 13.4315 100 30V100H30C13.4315 100 0 86.5685 0 70V0Z" fill="#F2C94C"/>
<path fill-rule="evenodd" clip-rule="evenodd" d="M29 51.0004C29.0083 53.0461 29.2745 55.0824 29.7921 57.061H59.1754C60.776 57.061 62.3111 56.4225 63.4429 55.2859C64.5747 54.1493 65.2105 52.6078 65.2105 51.0004C65.2105 49.393 64.5747 47.8515 63.4429 46.7149C62.3111 45.5783 60.776 44.9398 59.1754 44.9398H29.8223C29.2945 46.917 29.0182 48.9534 29 51.0004ZM69.6539 38.364C70.499 37.5873 71.2834 36.7465 72 35.8489C69.4615 32.6563 66.159 30.1617 62.4006 28.5978C58.6422 27.0338 54.5505 26.4517 50.5074 26.9056C46.4644 27.3595 42.6017 28.8347 39.28 31.1934C35.9583 33.5522 33.2859 36.7176 31.5121 40.3943H64.5014C66.412 40.3923 68.2517 39.6674 69.6539 38.364ZM64.5014 61.6064H31.5121C33.2859 65.2831 35.9583 68.4486 39.28 70.8074C42.6017 73.1661 46.4644 74.6413 50.5074 75.0952C54.5505 75.5491 58.6422 74.9669 62.4006 73.403C66.159 71.8391 69.4615 69.3445 72 66.1519C71.2834 65.2543 70.499 64.4134 69.6539 63.6368C68.2517 62.3334 66.412 61.6085 64.5014 61.6064Z" fill="#F2C94C"/>
</svg>
