<svg width="34" height="40" viewBox="0 0 34 40" fill="none" xmlns="http://www.w3.org/2000/svg">
<path fill-rule="evenodd" clip-rule="evenodd" d="M17.0008 24.1979C16.6927 24.1997 16.391 24.1107 16.1343 23.9427C15.8775 23.7746 15.6772 23.5351 15.5589 23.2542C15.4407 22.9734 15.4098 22.6642 15.4702 22.366C15.5306 22.0678 15.6796 21.7941 15.8982 21.5797C16.1946 21.2987 16.5897 21.1417 17.0008 21.1417C17.4119 21.1417 17.807 21.2987 18.1034 21.5797C18.2485 21.7212 18.3635 21.8897 18.4418 22.0756C18.5202 22.2614 18.5602 22.4607 18.5597 22.6619C18.5597 23.0091 18.6994 23.342 18.9481 23.5875C19.1969 23.833 19.5342 23.971 19.886 23.971C20.2377 23.971 20.5751 23.833 20.8238 23.5875C21.0726 23.342 21.2123 23.0091 21.2123 22.6619C21.2163 21.7188 20.8921 20.8029 20.2941 20.0674C19.696 19.3319 18.8603 18.8214 17.9266 18.6211L17.8824 17.8095C17.8824 17.4623 17.7426 17.1294 17.4939 16.8839C17.2451 16.6384 16.9078 16.5004 16.556 16.5004C16.2043 16.5004 15.8669 16.6384 15.6182 16.8839C15.3695 17.1294 15.2297 17.4623 15.2297 17.8095V18.9091C14.7816 19.107 14.3726 19.3817 14.0219 19.7207C13.4317 20.3018 13.0297 21.0428 12.8667 21.8497C12.7037 22.6566 12.7871 23.4931 13.1064 24.2531C13.4257 25.0131 13.9664 25.6624 14.66 26.1187C15.3537 26.575 16.169 26.8177 17.0026 26.8161C17.3744 26.8161 17.7379 26.925 18.047 27.1291C18.3561 27.3332 18.5969 27.6232 18.7389 27.9624C18.8809 28.3016 18.9178 28.6747 18.8448 29.0346C18.7718 29.3945 18.5923 29.7249 18.3289 29.984C18.0802 30.2201 17.7717 30.3859 17.4358 30.464C17.1573 30.464 16.8779 30.4728 16.5985 30.4728C16.1464 30.3815 15.745 30.1269 15.4732 29.7588C15.2014 29.3907 15.0786 28.9357 15.1289 28.4829C15.1635 28.1375 15.0576 27.7927 14.8345 27.5243C14.6115 27.2559 14.2896 27.0859 13.9397 27.0518C13.766 27.0322 13.5902 27.0471 13.4225 27.0956C13.2549 27.1442 13.0987 27.2253 12.9633 27.3343C12.8278 27.4433 12.7158 27.5778 12.6339 27.7302C12.5519 27.8825 12.5016 28.0493 12.486 28.2211C12.3852 29.1735 12.5991 30.1326 13.0958 30.9552C13.5925 31.7778 14.3454 32.4198 15.2421 32.7854C15.2714 33.0834 15.4037 33.3624 15.6168 33.5755C15.83 33.7885 16.1109 33.9228 16.4124 33.9556C16.7139 33.9883 17.0176 33.9177 17.2726 33.7555C17.5276 33.5933 17.7182 33.3493 17.8125 33.0648C18.9256 32.8658 19.9228 32.2628 20.6081 31.3745C21.2933 30.4862 21.6169 29.3769 21.5151 28.265C21.4133 27.153 20.8935 26.1189 20.0581 25.3662C19.2226 24.6135 18.132 24.1968 17.0008 24.1979ZM33.8008 32.2182C33.4471 28.2997 31.5708 16.0991 23.8923 11.3689C23.8994 11.3514 23.9091 11.3339 23.9153 11.3165L26.568 4.33464C26.7179 3.93847 26.7684 3.51229 26.7152 3.09266C26.6619 2.67303 26.5064 2.27244 26.262 1.92505C26.0176 1.57766 25.6916 1.29383 25.3119 1.09792C24.9322 0.902007 24.51 0.799803 24.0815 0.80005H9.91826C9.48971 0.799662 9.06745 0.901853 8.6876 1.09771C8.30776 1.29356 7.98165 1.57722 7.73718 1.92462C7.4927 2.27203 7.33714 2.67275 7.28382 3.09245C7.23049 3.51215 7.281 3.93841 7.43099 4.33464L10.0836 11.3165C10.0898 11.3339 10.0995 11.3514 10.1066 11.3689C2.42636 16.0991 0.54918 28.2997 0.197264 32.2182C0.111049 34.1194 0.741012 35.9847 1.96568 37.4546C2.55788 38.0474 3.27076 38.5095 4.05724 38.8103C4.84372 39.1112 5.68591 39.2441 6.52821 39.2001H27.4654C28.3079 39.2441 29.1502 39.1112 29.9368 38.8103C30.7234 38.5095 31.4364 38.0474 32.0288 37.4546C33.2548 35.9852 33.886 34.1198 33.8008 32.2182ZM9.91826 3.41823H24.0851L21.4325 10.4001H12.5744L9.91826 3.41823ZM27.469 36.5819H6.53175C4.47154 36.5819 2.67128 35.1157 2.85343 33.091C3.50686 25.8211 6.33456 15.8459 12.5744 13.0182H21.4272C27.667 15.8459 30.4947 25.8211 31.1482 33.091C31.3294 35.1157 29.5292 36.5819 27.469 36.5819Z" fill="#BB6BD9"/>
</svg>
