<svg width="54" height="54" viewBox="0 0 54 54" fill="none" xmlns="http://www.w3.org/2000/svg">
<circle cx="27" cy="27" r="27" fill="#FF4653"/>
<path d="M39.8 13H14.2C12.4336 13 11 14.3938 11 16.1111V22.3333C11 24.0507 12.4336 25.4444 14.2 25.4444H39.8C41.5664 25.4444 43 24.0507 43 22.3333V16.1111C43 14.3938 41.5664 13 39.8 13ZM31.8 20.7778H28.6V17.6667H31.8V20.7778ZM38.2 20.7778H35V17.6667H38.2V20.7778ZM39.8 28.5556H14.2C12.4336 28.5556 11 29.9493 11 31.6667V37.8889C11 39.6062 12.4336 41 14.2 41H39.8C41.5664 41 43 39.6062 43 37.8889V31.6667C43 29.9493 41.5664 28.5556 39.8 28.5556ZM31.8 36.3333H28.6V33.2222H31.8V36.3333ZM38.2 36.3333H35V33.2222H38.2V36.3333Z" fill="white"/>
</svg>
