<svg width="36" height="38" viewBox="0 0 36 38" fill="none" xmlns="http://www.w3.org/2000/svg">
<path d="M17.8002 0.511108C11.6314 0.511108 6.6002 5.54236 6.6002 11.7111C6.6002 15.5174 8.5377 18.8861 11.4502 20.9111C4.88144 23.4736 0.200195 29.8736 0.200195 37.3111H3.4002C3.4002 30.2736 8.50644 24.3924 15.2002 23.1611L16.2002 26.1111H19.4002L20.4002 23.1611C27.0939 24.3924 32.2002 30.2736 32.2002 37.3111H35.4002C35.4002 29.8736 30.7189 23.4736 24.1502 20.9111C27.0627 18.8861 29.0002 15.5174 29.0002 11.7111C29.0002 5.54236 23.9689 0.511108 17.8002 0.511108ZM17.8002 3.71111C22.2377 3.71111 25.8002 7.27361 25.8002 11.7111C25.8002 16.1486 22.2377 19.7111 17.8002 19.7111C13.3627 19.7111 9.8002 16.1486 9.8002 11.7111C9.8002 7.27361 13.3627 3.71111 17.8002 3.71111ZM16.2002 27.7111L14.6002 37.3111H21.0002L19.4002 27.7111H16.2002Z" fill="#FFA53C"/>
</svg>
