<svg width="54" height="54" viewBox="0 0 54 54" fill="none" xmlns="http://www.w3.org/2000/svg">
<circle cx="27" cy="27" r="27" fill="#1EC89E"/>
<path d="M27 13C19.2804 13 13 19.2804 13 27V27.9996V32.6V32.8002C13 34.2338 14.2558 35.4 15.8 35.4H17.2C17.9742 35.4 18.6 34.7728 18.6 34V26.7998C18.6 26.027 17.9742 25.3998 17.2 25.3998H15.9288C16.7072 19.9818 21.3692 15.8 27 15.8C32.6308 15.8 37.2928 19.9818 38.0712 25.3998H36.8C36.0258 25.3998 35.4 26.027 35.4 26.7998V32.6V34V35.4C35.4 36.9442 34.1442 38.2 32.6 38.2H29.8V36.8H24.2V41H27H29.8H32.6C35.6884 41 38.2 38.4884 38.2 35.4C39.7442 35.4 41 34.2338 41 32.8002V32.6V27.9996V27C41 19.2804 34.7196 13 27 13Z" fill="white"/>
</svg>
