<svg width="100" height="100" viewBox="0 0 100 100" fill="none" xmlns="http://www.w3.org/2000/svg">
<path opacity="0.1" d="M0 0H70C86.5685 0 100 13.4315 100 30V100H30C13.4315 100 0 86.5685 0 70V0Z" fill="#3066D1"/>
<g clip-path="url(#clip0)">
<path d="M43.7141 51.3564C40.9257 51.3564 38.6641 53.7085 38.6641 56.6085V69.746C38.6641 72.646 40.9257 74.9981 43.7141 74.9981C46.5026 74.9981 48.7642 72.646 48.7642 69.746V56.6085C48.7622 53.7085 46.5006 51.3564 43.7141 51.3564Z" fill="#3066D1"/>
<path d="M26.04 56.6088C26.04 59.5109 28.3037 61.865 31.0941 61.865C33.8846 61.865 36.1482 59.5109 36.1482 56.6088V51.3525H31.0981C31.0961 51.3525 31.0961 51.3525 31.0941 51.3525C28.3037 51.3525 26.04 53.7067 26.04 56.6088Z" fill="#3066D1"/>
<path d="M43.7203 24.998C43.7182 24.998 43.7162 24.998 43.7142 24.998C40.9238 24.998 38.6602 27.3522 38.6602 30.2543C38.6602 33.1564 40.9238 35.5105 43.7142 35.5105H48.7643V30.2543C48.7643 30.2522 48.7643 30.248 48.7643 30.2439C48.7623 27.346 46.5047 24.998 43.7203 24.998Z" fill="#3066D1"/>
<path d="M31.058 48.6883H43.7142C46.5047 48.6883 48.7683 46.3341 48.7683 43.432C48.7683 40.5299 46.5047 38.1758 43.7142 38.1758H31.058C28.2675 38.1758 26.0039 40.5299 26.0039 43.432C26.0039 46.3341 28.2675 48.6883 31.058 48.6883Z" fill="#3066D1"/>
<path d="M68.9826 38.1738C66.1961 38.1738 63.9385 40.5217 63.9385 43.4197V43.4301V48.6863H68.9886C71.779 48.6863 74.0426 46.3322 74.0426 43.4301C74.0426 40.528 71.779 38.1738 68.9886 38.1738C68.9866 38.1738 68.9846 38.1738 68.9826 38.1738Z" fill="#3066D1"/>
<path d="M51.3223 30.254V43.4311C51.3223 46.3311 53.5839 48.6832 56.3723 48.6832C59.1608 48.6832 61.4224 46.3311 61.4224 43.4311V30.254C61.4224 27.354 59.1608 25.002 56.3723 25.002C53.5839 25.002 51.3223 27.354 51.3223 30.254Z" fill="#3066D1"/>
<path d="M61.4205 69.7413C61.4205 66.8413 59.1589 64.4893 56.3704 64.4893H51.3203V69.7455C51.3223 72.6434 53.5819 74.9934 56.3704 74.9934C59.1589 74.9934 61.4205 72.6413 61.4205 69.7413Z" fill="#3066D1"/>
<path d="M69.0267 51.3525H56.3705C53.58 51.3525 51.3164 53.7067 51.3164 56.6088C51.3164 59.5109 53.58 61.865 56.3705 61.865H69.0267C71.8172 61.865 74.0808 59.5109 74.0808 56.6088C74.0808 53.7067 71.8172 51.3525 69.0267 51.3525Z" fill="#3066D1"/>
</g>
<defs>
<clipPath id="clip0">
<rect width="48.0769" height="50" fill="white" transform="translate(26 25)"/>
</clipPath>
</defs>
</svg>
