<svg width="28" height="40" viewBox="0 0 28 40" fill="none" xmlns="http://www.w3.org/2000/svg">
<path d="M11.1004 1.10227C6.01763 2.16434 1.89638 6.24614 0.811955 11.3605C-0.10372 15.6791 1.02465 20.0149 3.90773 23.256C5.31706 24.8402 6.12526 26.9314 6.12526 28.9993V31.2493C6.12526 32.7463 7.10528 34.018 8.45723 34.4585C8.90183 37.0854 11.1818 39.1992 14.0003 39.1992C16.8179 39.1992 19.0985 37.0861 19.5433 34.4585C20.8952 34.018 21.8753 32.7463 21.8753 31.2492V28.9992C21.8753 26.9273 22.6862 24.8612 24.1584 23.1815C26.3135 20.723 27.5003 17.5685 27.5003 14.2993C27.5003 5.78189 19.7041 -0.695183 11.1004 1.10227ZM14.0003 36.9493C12.5541 36.9493 11.2862 35.9542 10.8179 34.6168H17.1825C16.7144 35.9542 15.4464 36.9493 14.0003 36.9493ZM19.6253 31.2493C19.6253 31.8696 19.1206 32.3743 18.5003 32.3743H9.50026C8.87993 32.3743 8.37526 31.8696 8.37526 31.2493V30.1243H19.6253V31.2493ZM22.4664 21.6985C20.8974 23.4886 19.9321 25.6471 19.6871 27.8743H8.31361C8.06896 25.6459 7.10611 23.4661 5.58901 21.7606C3.18616 19.0594 2.24723 15.4387 3.01306 11.8272C3.90698 7.61114 7.34198 4.18627 11.5607 3.30479C18.7625 1.79977 25.2503 7.20817 25.2503 14.2993C25.2503 17.0227 24.2616 19.6504 22.4664 21.6985Z" fill="#FF4653"/>
</svg>
