<svg width="40" height="40" viewBox="0 0 40 40" fill="none" xmlns="http://www.w3.org/2000/svg">
<path d="M6.1998 0.800049C3.22223 0.800049 0.799805 3.22247 0.799805 6.20005C0.799805 9.17762 3.22223 11.6 6.1998 11.6C9.17738 11.6 11.5998 9.17762 11.5998 6.20005C11.5998 3.22247 9.17738 0.800049 6.1998 0.800049ZM6.1998 9.20005C4.5456 9.20005 3.1998 7.85425 3.1998 6.20005C3.1998 4.54585 4.5456 3.20005 6.1998 3.20005C7.854 3.20005 9.19981 4.54585 9.19981 6.20005C9.19981 7.85425 7.854 9.20005 6.1998 9.20005Z" fill="#56CCF2"/>
<path d="M6.1998 14.6001C3.22223 14.6001 0.799805 17.0225 0.799805 20.0001C0.799805 22.9777 3.22223 25.4001 6.1998 25.4001C9.17738 25.4001 11.5998 22.9777 11.5998 20.0001C11.5998 17.0225 9.17738 14.6001 6.1998 14.6001ZM6.1998 23.0001C4.5456 23.0001 3.1998 21.6543 3.1998 20.0001C3.1998 18.3459 4.5456 17.0001 6.1998 17.0001C7.854 17.0001 9.19981 18.3459 9.19981 20.0001C9.19981 21.6543 7.854 23.0001 6.1998 23.0001Z" fill="#56CCF2"/>
<path d="M6.1998 28.4C3.22223 28.4 0.799805 30.8224 0.799805 33.8C0.799805 36.7776 3.22223 39.2 6.1998 39.2C9.17738 39.2 11.5998 36.7776 11.5998 33.8C11.5998 30.8224 9.17738 28.4 6.1998 28.4ZM6.1998 36.8C4.5456 36.8 3.1998 35.4542 3.1998 33.8C3.1998 32.1458 4.5456 30.8 6.1998 30.8C7.854 30.8 9.19981 32.1458 9.19981 33.8C9.19981 35.4542 7.854 36.8 6.1998 36.8Z" fill="#56CCF2"/>
<path d="M19.4 11.6H33.8C36.7776 11.6 39.2 9.17762 39.2 6.20005C39.2 3.22247 36.7776 0.800049 33.8 0.800049H19.4C16.4224 0.800049 14 3.22247 14 6.20005C14 9.17762 16.4224 11.6 19.4 11.6ZM19.4 3.20005H33.8C35.4542 3.20005 36.8 4.54585 36.8 6.20005C36.8 7.85425 35.4542 9.20005 33.8 9.20005H19.4C17.7458 9.20005 16.4 7.85425 16.4 6.20005C16.4 4.54585 17.7458 3.20005 19.4 3.20005Z" fill="#56CCF2"/>
<path d="M33.8 14.6001H19.4C16.4224 14.6001 14 17.0225 14 20.0001C14 22.9777 16.4224 25.4001 19.4 25.4001H33.8C36.7776 25.4001 39.2 22.9777 39.2 20.0001C39.2 17.0225 36.7776 14.6001 33.8 14.6001ZM33.8 23.0001H19.4C17.7458 23.0001 16.4 21.6543 16.4 20.0001C16.4 18.3459 17.7458 17.0001 19.4 17.0001H33.8C35.4542 17.0001 36.8 18.3459 36.8 20.0001C36.8 21.6543 35.4542 23.0001 33.8 23.0001Z" fill="#56CCF2"/>
<path d="M33.8 28.4H19.4C16.4224 28.4 14 30.8224 14 33.8C14 36.7776 16.4224 39.2 19.4 39.2H33.8C36.7776 39.2 39.2 36.7776 39.2 33.8C39.2 30.8224 36.7776 28.4 33.8 28.4ZM33.8 36.8H19.4C17.7458 36.8 16.4 35.4542 16.4 33.8C16.4 32.1458 17.7458 30.8 19.4 30.8H33.8C35.4542 30.8 36.8 32.1458 36.8 33.8C36.8 35.4542 35.4542 36.8 33.8 36.8Z" fill="#56CCF2"/>
</svg>
