<svg width="42" height="40" viewBox="0 0 42 40" fill="none" xmlns="http://www.w3.org/2000/svg">
<g clip-path="url(#clip0)">
<path d="M20.9998 14.8425V22.5021C20.9998 24.2306 18.3998 24.1872 18.3998 22.5021V14.8425C18.3998 13.1651 20.9998 13.1319 20.9998 14.8425ZM17.0998 0.799988C15.4046 0.799988 15.3708 3.35318 17.0998 3.35318H18.3998V7.18297C18.4076 7.82126 18.8522 8.45956 19.6998 8.45956C27.6116 8.45956 33.9998 14.7328 33.9998 22.5021C33.9998 30.2715 27.6116 36.5447 19.6998 36.5447C11.788 36.5447 5.3998 30.2715 5.3998 22.5021C5.3998 18.5064 7.121 14.6791 10.1136 11.9702C11.4214 10.783 9.7288 8.89105 8.4054 10.0553C4.8278 13.2085 2.7998 17.7787 2.7998 22.5021C2.7998 31.6528 10.3814 39.0979 19.6998 39.0979C29.0182 39.0979 36.5998 31.6528 36.5998 22.5021C36.5998 13.7881 29.7098 6.6519 20.9998 5.98297V3.35318H22.2998C23.9638 3.35318 24.0808 0.799988 22.2998 0.799988H17.0998Z" fill="#27AE60"/>
</g>
<defs>
<clipPath id="clip0">
<rect width="41.6" height="38.4" fill="white" transform="translate(0.200195 0.799988)"/>
</clipPath>
</defs>
</svg>
