<svg width="100" height="100" viewBox="0 0 100 100" fill="none" xmlns="http://www.w3.org/2000/svg">
<path opacity="0.1" d="M0 0H70C86.5685 0 100 13.4315 100 30V100H30C13.4315 100 0 86.5685 0 70V0Z" fill="#FF4653"/>
<g clip-path="url(#clip0)">
<path d="M32.0822 69.9429L27.998 25.0029L71.9975 25.0201L67.9476 69.9086L49.9634 74.9858L32.0822 69.9429ZM64.6356 67.4901L68.0505 28.9995H50.0321L50.1694 71.4523L64.6356 67.4901ZM48.3503 34.6427H43.9744L43.923 57.6787L35.4285 55.3631L35.4457 60.629L48.3503 64.111V34.6427Z" fill="#FF4653"/>
<path d="M50.0322 28.9814H68.0507L64.6358 67.472L50.0322 71.4343V28.9814ZM63.7091 61.0226L64.8932 46.6315L56.1413 47.6092V39.9248L65.4766 39.8905L65.8542 34.6418L51.7654 34.7104L51.9542 53.8185L60.4658 52.3605L60.3457 56.6144L51.7654 58.8957L51.8512 64.1101L63.7091 61.0226Z" fill="#FF4653"/>
</g>
<defs>
<clipPath id="clip0">
<rect width="44" height="50" fill="white" transform="translate(28 25)"/>
</clipPath>
</defs>
</svg>
