<svg width="100" height="100" viewBox="0 0 100 100" fill="none" xmlns="http://www.w3.org/2000/svg">
<path opacity="0.1" d="M0 0H70C86.5685 0 100 13.4315 100 30V100H30C13.4315 100 0 86.5685 0 70V0Z" fill="#1EC89E"/>
<g clip-path="url(#clip0)">
<path d="M45.3734 74.7081C41.1683 73.8136 37.2499 71.7761 34.1917 68.9434C26.3072 61.6628 23.8463 50.2078 28.0274 39.9952C29.0548 37.4856 30.7273 34.951 32.7821 32.7396L34.5979 30.8014L34.7173 42.1819C34.8368 53.0902 34.8607 53.6369 35.3624 55.0035C36.3659 57.7617 37.4172 59.5011 39.2569 61.3895C43.9876 66.2846 50.9164 67.5022 56.8179 64.4955C62.361 61.6628 65.8493 55.4756 65.4431 49.2139C65.1803 45.0146 63.8184 41.9334 60.8796 38.8771C58.6576 36.5662 56.0533 35.0504 53.234 34.4292C50.343 33.808 50.4864 33.7086 50.4864 36.2431V38.4298L52.0633 38.728C58.1798 39.8958 62.2415 46.1576 60.9752 52.469C60.569 54.4817 59.6611 56.2708 58.2037 57.9108C55.9817 60.3956 52.8517 61.5883 50.128 61.5883C45.6123 61.5883 41.8612 58.9047 40.0215 54.9787C40.0215 54.9787 39.5436 53.8605 39.4003 53.1648C38.4924 49.0648 39.0658 40.4673 39.0658 40.4673L38.9941 27.8693L39.7109 27.4966C40.0932 27.273 40.4754 27.1239 40.5471 27.1239C40.6188 27.1239 40.6905 32.9135 40.7382 39.9952C40.7382 39.9952 39.8781 49.2636 40.9533 52.8169C41.0966 53.3387 41.4072 54.2084 41.4072 54.2084C42.339 56.1962 43.8443 57.9605 45.8035 58.9295C47.2848 59.6501 48.0493 59.998 50.2475 59.998C51.681 59.998 52.9473 59.5259 54.4286 58.8302C56.1489 58.0102 58.132 55.8235 58.8727 53.8108C60.8796 48.2945 58.0842 42.3807 52.6606 40.7158C50.4386 40.0449 50.4864 39.9952 50.4864 42.5049V44.6915L51.5377 44.9897C55.3605 46.0582 56.5312 51.4005 53.5207 54.1338C52.4695 55.1029 51.5138 55.5253 49.8413 55.5253C48.0493 55.5253 46.3291 54.4072 45.4451 52.6678C44.9194 51.6242 44.8716 50.6551 44.8716 50.2078C44.8716 46.0582 44.7761 38.554 44.7761 38.554L44.7044 25.7075L45.2539 25.5584C45.5645 25.4839 46.783 25.2851 47.9777 25.136C52.0155 24.5894 57.9886 25.9809 62.0026 28.3663C67.4739 31.6214 71.6073 37.2122 73.3276 43.6728C73.9249 45.8842 73.9966 46.5551 73.9966 50.1084C73.9966 53.6617 73.9249 54.3326 73.3515 56.5193C71.01 65.3155 65.0369 71.5773 56.5073 74.2609C54.7154 74.8324 53.8791 74.9318 50.7014 75.0063C48.1449 75.0312 46.4963 74.9566 45.3734 74.7081Z" fill="#1EC89E"/>
</g>
<defs>
<clipPath id="clip0">
<rect width="48" height="50" fill="white" transform="translate(26 25)"/>
</clipPath>
</defs>
</svg>
