<svg width="36" height="40" viewBox="0 0 36 40" fill="none" xmlns="http://www.w3.org/2000/svg">
<path d="M11.9619 11.675H5.96191C5.34061 11.675 4.83691 12.1787 4.83691 12.8C4.83691 13.4213 5.34061 13.925 5.96191 13.925H11.9619C12.5832 13.925 13.0869 13.4213 13.0869 12.8C13.0869 12.1787 12.5832 11.675 11.9619 11.675Z" fill="#2F80ED"/>
<path d="M11.9619 17.675H5.96191C5.34061 17.675 4.83691 18.1787 4.83691 18.8C4.83691 19.4213 5.34061 19.925 5.96191 19.925H11.9619C12.5832 19.925 13.0869 19.4213 13.0869 18.8C13.0869 18.1787 12.5832 17.675 11.9619 17.675Z" fill="#2F80ED"/>
<path d="M11.9619 23.675H5.96191C5.34061 23.675 4.83691 24.1787 4.83691 24.8C4.83691 25.4214 5.34061 25.9251 5.96191 25.9251H11.9619C12.5832 25.9251 13.0869 25.4214 13.0869 24.8C13.0869 24.1787 12.5832 23.675 11.9619 23.675Z" fill="#2F80ED"/>
<path d="M28.0871 21.4197V11.1485C28.0871 9.6658 27.5154 8.26697 26.4772 7.20902L21.9126 2.4886C21.9104 2.48635 21.9082 2.48402 21.906 2.48177C20.855 1.41302 19.3926 0.800049 17.8939 0.800049H3.41211C1.55113 0.800049 0.0371094 2.31407 0.0371094 4.17505V33.3501C0.0371094 35.211 1.55113 36.7251 3.41211 36.7251H20.7996C22.4028 38.2575 24.5744 39.2001 26.9621 39.2001C31.9247 39.2001 35.9621 35.1963 35.9621 30.275C35.9621 25.7316 32.5207 21.9704 28.0871 21.4197ZM2.28711 33.3501V4.17505C2.28711 3.55472 2.79178 3.05005 3.41211 3.05005H17.8939C18.7919 3.05005 19.6682 3.41687 20.2988 4.0564L24.8626 8.77607C24.8648 8.77832 24.867 8.78057 24.8691 8.78275C25.4933 9.41777 25.8371 10.2579 25.8371 11.1486V21.4208C21.445 21.9756 18.0371 25.7348 18.0371 30.2751C18.0371 31.7926 18.4183 33.2226 19.0891 34.4751H3.41211C2.79178 34.4751 2.28711 33.9704 2.28711 33.3501ZM26.9621 36.9501C23.2815 36.9501 20.2871 33.9557 20.2871 30.275C20.2871 26.5944 23.2815 23.6 26.9621 23.6C30.6841 23.6 33.7121 26.5944 33.7121 30.275C33.7121 33.9557 30.6841 36.9501 26.9621 36.9501Z" fill="#2F80ED"/>
<path d="M29.5572 27.6108C29.08 27.2132 28.3705 27.2777 27.9727 27.7549L26.0739 30.0335L25.6432 29.172C25.3653 28.6163 24.6896 28.3909 24.1338 28.6689C23.5781 28.9467 23.3529 29.6225 23.6307 30.1782L24.8307 32.5782C25.0005 32.9178 25.3302 33.1488 25.7073 33.1926C25.7507 33.1976 25.794 33.2001 25.8371 33.2001C26.1687 33.2001 26.4861 33.0534 26.7012 32.7953L29.7013 29.1953C30.099 28.7179 30.0345 28.0085 29.5572 27.6108Z" fill="#2F80ED"/>
<path d="M17.9619 13.925H19.1619C19.7832 13.925 20.2869 13.4213 20.2869 12.8C20.2869 12.1787 19.7832 11.675 19.1619 11.675H17.9619C17.3406 11.675 16.8369 12.1787 16.8369 12.8C16.8369 13.4213 17.3406 13.925 17.9619 13.925Z" fill="#2F80ED"/>
<path d="M20.2869 18.8C20.2869 18.1787 19.7832 17.675 19.1619 17.675H17.9619C17.3406 17.675 16.8369 18.1787 16.8369 18.8C16.8369 19.4213 17.3406 19.925 17.9619 19.925H19.1619C19.7832 19.925 20.2869 19.4213 20.2869 18.8Z" fill="#2F80ED"/>
</svg>
