<svg width="54" height="54" viewBox="0 0 54 54" fill="none" xmlns="http://www.w3.org/2000/svg">
<circle cx="27" cy="27" r="27" fill="#3066D1"/>
<g clip-path="url(#clip0)">
<path d="M19.1663 36.6664C18.78 36.6667 18.4068 36.5294 18.1165 36.2801L8.39397 27.96C8.22298 27.8136 8.08594 27.6331 7.99206 27.4307C7.89818 27.2283 7.84961 27.0086 7.84961 26.7863C7.84961 26.564 7.89818 26.3443 7.99206 26.1419C8.08594 25.9395 8.22298 25.759 8.39397 25.6126L18.1165 17.2925C18.4349 17.0201 18.851 16.8824 19.2731 16.91C19.6952 16.9375 20.0889 17.1279 20.3675 17.4392C20.6461 17.7506 20.7868 18.1575 20.7587 18.5704C20.7306 18.9832 20.5359 19.3682 20.2175 19.6407L11.866 26.7863L20.2167 33.9319C20.4612 34.1409 20.6346 34.4178 20.7138 34.7257C20.793 35.0336 20.7742 35.3578 20.6601 35.655C20.5459 35.9522 20.3417 36.2083 20.0748 36.389C19.8079 36.5697 19.4909 36.6665 19.1663 36.6664Z" fill="white"/>
<path d="M35.658 36.6663C35.3333 36.6666 35.0162 36.57 34.7492 36.3893C34.4822 36.2087 34.2778 35.9526 34.1636 35.6554C34.0493 35.3581 34.0305 35.0338 34.1097 34.7259C34.1889 34.4179 34.3623 34.1409 34.6068 33.9319L42.9583 26.7863L34.6075 19.6407C34.2891 19.3682 34.0944 18.9832 34.0663 18.5704C34.0382 18.1575 34.1789 17.7506 34.4575 17.4392C34.7361 17.1279 35.1298 16.9375 35.5519 16.91C35.9741 16.8824 36.3901 17.0201 36.7085 17.2925L46.431 25.6126C46.602 25.759 46.7391 25.9395 46.833 26.1419C46.9268 26.3443 46.9754 26.564 46.9754 26.7863C46.9754 27.0086 46.9268 27.2283 46.833 27.4307C46.7391 27.6331 46.602 27.8136 46.431 27.96L36.7085 36.2801C36.4181 36.5297 36.0446 36.667 35.658 36.6663Z" fill="white"/>
<path d="M23.7598 40.2321C23.5114 40.2321 23.2664 40.1753 23.0444 40.0663C22.8224 39.9573 22.6295 39.7991 22.4811 39.6042C22.3327 39.4095 22.2328 39.1834 22.1895 38.9442C22.1462 38.705 22.1606 38.4592 22.2315 38.2264L29.5234 14.4548C29.5784 14.2531 29.6741 14.0642 29.8051 13.8994C29.936 13.7345 30.0994 13.597 30.2857 13.495C30.4719 13.3931 30.6772 13.3287 30.8894 13.3057C31.1015 13.2828 31.3162 13.3017 31.5208 13.3614C31.7253 13.421 31.9155 13.5202 32.0802 13.6531C32.2448 13.786 32.3805 13.9498 32.4792 14.1349C32.5779 14.32 32.6376 14.5226 32.6548 14.7307C32.6719 14.9387 32.6463 15.1481 32.5792 15.3463L25.2873 39.1178C25.1892 39.4396 24.9876 39.7218 24.7124 39.9226C24.4372 40.1233 24.1031 40.2319 23.7598 40.2321Z" fill="white"/>
</g>
<defs>
<clipPath id="clip0">
<rect width="39.974" height="27.3506" fill="white" transform="translate(7.0127 13.3247)"/>
</clipPath>
</defs>
</svg>
