<svg width="16" height="16" viewBox="0 0 16 16" fill="currentColor" xmlns="http://www.w3.org/2000/svg">
<path fill-rule="evenodd" clip-rule="evenodd" d="M0.463684 2.21676L1.90268 0.78175C2.29968 0.38525 2.94419 0.38525 3.34169 0.78175L5.50018 3.65176C5.82968 4.13726 5.89718 4.69026 5.50018 5.08676L4.61919 5.96525C5.27219 6.84025 6.05619 7.79425 6.93869 8.67425C7.93669 9.66925 9.04668 10.5738 10.0447 11.3168L10.8962 10.4683C11.2932 10.0718 11.8477 10.1388 12.3352 10.4683L15.2132 12.6208C15.6957 12.9533 15.6107 13.6593 15.2132 14.0558L13.7742 15.4903C12.9792 16.2833 11.9457 16.0293 10.8962 15.4903C10.8962 15.4903 7.71968 13.7123 5.00018 11.0003C2.44218 8.44925 0.463684 5.08676 0.463684 5.08676C0.0511837 3.95526 -0.331316 3.00926 0.463684 2.21676Z" />
</svg>
