<svg width="200" height="41" viewBox="0 0 200 41" fill="currentColor" xmlns="http://www.w3.org/2000/svg">
<path d="M25 5L20 0L0 20L20 40.1L25 35.1L10 20L25 5Z" fill="#fff"/>
<path d="M24.9814 24.9194L39.972 9.9289L44.9924 14.9493L30.0019 29.9398L24.9814 24.9194Z" fill="#fff"/>
<path d="M50 0L45 5L60 20L45 35.1L50 40.1L70 20L50 0Z" fill="#fff"/>
<path fill-rule="evenodd" clip-rule="evenodd" d="M85 30.7H89.7V9H85V30.7ZM101.8 9H96.3L89.8 19.8V19.9L96.5 30.8H102.4L95 19.6L101.8 9Z" fill="#fff"/>
<path fill-rule="evenodd" clip-rule="evenodd" d="M111.9 9H105.2V30.7H112C120 30.7 122.2 24.9 122.2 19.4C122.2 12.4 119 9 111.9 9ZM111.5 26.8H109.8V12.9H111.5C114.9 12.9 117.2 14.6 117.2 19.8C117.2 24 115.9 26.8 111.5 26.8Z" fill="#fff"/>
<path d="M128.7 12.9H123.3V9H138.8V12.9H133.4V30.7H128.7V12.9Z" fill="#fff"/>
<path fill-rule="evenodd" clip-rule="evenodd" d="M148.4 31.1C151.7 31.1 153.4 30.2 154.8 29.1L152.8 25.9C152.2 26.6 150.9 27.5 149 27.5C146 27.5 144.8 26 144.7 23.2H155.1C155.3 21.9 155.3 21 155.3 20.1C155.3 15.8 152.8 13 148.3 13C143.3 13 140.1 16.3 140.1 22C140.1 28 142.9 31.1 148.4 31.1ZM150.9 20H144.7C144.8 18 146 16.4 148.1 16.4C150 16.4 150.9 17.5 150.9 19.5V20Z" fill="#fff"/>
<path fill-rule="evenodd" clip-rule="evenodd" d="M171.2 25.7V18.7C171.2 14.5 168.8 12.9 164.2 13C160.3 13 158.6 15.3 157.9 16.3L161.2 18.7C161.6 17.7 162.5 16.7 164.2 16.7C165.6 16.7 166.7 17.2 166.7 19.2V20.6C161.2 20.3 157.6 22.2 157.6 26.2C157.6 28.7 159.4 31 162.8 31C165.3 31 166.6 29.9 167.3 29H167.4C168 30.1 168.9 30.9 170.6 30.9C171.4 30.9 172.2 30.8 172.9 30.3V27.1H172.4C171.6 27.1 171.2 26.7 171.2 25.7ZM162.2 25.7C162.2 24.2 163.7 23.5 166.8 23.7V26.2C166.3 26.9 165.2 27.4 164.1 27.4C162.9 27.4 162.2 26.7 162.2 25.7Z" fill="#fff"/>
<path d="M194.6 12.8C198 12.8 200 14.6 200 18.6V30.7H195.3V19.5C195.3 17.5 194.2 16.8 193 16.8C191.8 16.8 190.6 17.6 190.1 18.8V30.8H185.4V19.8C185.4 17.8 184.5 16.7 182.9 16.7C181.8 16.7 180.6 17.6 180.2 18.8V30.7H175.5V13.2H179.3L180.1 14.8H180.2C181.3 13.4 183.1 12.8 184.8 12.8C187.5 12.8 188.5 13.9 189.2 15.2H189.3C190.4 14 192.1 12.8 194.6 12.8Z" fill="#fff"/>
</svg>
