<svg width="145" height="63" viewBox="0 0 145 63" fill="none" xmlns="http://www.w3.org/2000/svg">
<path d="M137.801 33.6001C141.301 33.6001 144.101 30.8001 144.101 27.4001C144.101 23.9001 141.301 21.1001 137.901 21.1001C134.401 21.1001 131.601 23.9001 131.601 27.3001C131.601 30.7001 134.301 33.5001 137.801 33.6001Z" fill="#8B91A6"/>
<path d="M35.7006 33.6V14.9L25.7006 29.9H19.4006L9.50059 14.9V33.6H2.10059V0H10.5006L22.7006 21.1L35.5006 0H43.0006L43.2006 33.6H35.7006Z" fill="#8B91A6"/>
<path d="M50.6006 0H58.0006V22.4L76.8006 0H84.1006V33.6H76.8006V11.2L58.0006 33.6H50.6006V0Z" fill="#8B91A6"/>
<path fill-rule="evenodd" clip-rule="evenodd" d="M11.0004 61.9V58.2H9.70039V48.5H3.30039L2.90039 53.9C2.80039 56.6 2.40039 57.7 1.70039 58.2H0.900391V61.9C1.20039 62 1.60039 62 1.90039 62C2.16164 62.0871 2.34705 62.0225 2.58871 61.9383C2.62456 61.9258 2.66164 61.9129 2.70039 61.9V59.7H9.30039V61.9C9.60039 62 9.90039 62 10.2004 62C10.4616 62.0871 10.6471 62.0225 10.8887 61.9383C10.9246 61.9258 10.9616 61.9129 11.0004 61.9ZM4.10039 58.2C4.60039 56.9 4.80039 55.5 4.90039 54.1L5.20039 50H7.90039V58.2H4.10039Z" fill="#8B91A6"/>
<path d="M20.8004 48.5C21.2004 49 21.2004 49.7 20.8004 50.1H16.4004V53.2H20.1004C20.1004 53.4 20.2004 53.7 20.2004 53.9C20.2004 54.3 20.1004 54.6 20.1004 54.9H16.4004V58.2H21.1004C21.2004 58.4 21.2004 58.7 21.2004 58.9C21.2004 59.2 21.1004 59.4 21.1004 59.7H14.4004V48.5H20.8004Z" fill="#8B91A6"/>
<path fill-rule="evenodd" clip-rule="evenodd" d="M31.8004 51.3C31.8004 49.7 30.4004 48.4 28.8004 48.5H24.4004V59.7H28.9004H29.3004C31.0004 59.6 32.3004 58.1 32.2004 56.4C32.3004 55.3 31.7004 54.3 30.7004 53.9C31.4004 53.4 31.8004 52.5 31.8004 51.6V51.3ZM28.4004 53.2C29.2004 53.2 29.9004 52.6 29.9004 51.8V51.6C30.0004 50.8 29.4004 50.1 28.6004 50H28.4004H26.5004V53.2H28.4004ZM28.5004 58.2C29.3004 58.3 30.1004 57.7 30.1004 56.8V56.5C30.1004 55.3 29.6004 54.7 28.5004 54.7H26.4004V58.1H28.5004V58.2Z" fill="#8B91A6"/>
<path d="M42.1002 48.5C42.3002 49 42.3002 49.6 42.1002 50.1H37.7002V53.2H41.4002C41.4002 53.4 41.5002 53.7 41.5002 53.9C41.5002 54.3 41.4002 54.6 41.4002 54.9H37.7002V58.2H42.2002C42.4002 58.4 42.5002 58.6 42.5002 58.9C42.5002 59.2 42.4002 59.5 42.2002 59.7H35.7002V48.5H42.1002Z" fill="#8B91A6"/>
<path d="M44.9008 59.7C44.8008 59.5 44.8008 59.3 44.8008 59C44.8008 58.7 44.8008 58.4 44.9008 58.2H45.6008C46.0008 58.1 47.0008 57.4 47.2008 53.5L47.6008 48.5H53.7008V59.5C53.4008 59.6 53.1008 59.7 52.7008 59.6C52.4008 59.6 52.1008 59.6 51.8008 59.5V50H49.2008L49.1008 53.5C48.6008 59.1 46.8008 59.8 45.8008 59.8C45.5008 59.8 45.2008 59.7 44.9008 59.7Z" fill="#8B91A6"/>
<path fill-rule="evenodd" clip-rule="evenodd" d="M66.4004 54.0999C66.4004 50.1999 64.6004 48.3999 61.9004 48.3999C59.1004 48.3999 57.4004 50.0999 57.4004 54.0999C57.4004 58.2999 59.0004 59.8999 61.9004 59.8999C64.7004 59.8999 66.4004 58.1999 66.4004 54.0999ZM59.4004 53.9999C59.4004 50.7999 60.4004 49.9999 61.9004 49.9999C63.4004 49.9999 64.2004 50.7999 64.2004 53.9999C64.2004 57.2999 63.4004 58.0999 61.9004 58.0999C60.4004 58.0999 59.4004 57.2999 59.4004 53.9999Z" fill="#8B91A6"/>
<path d="M77.7008 59.5C77.1008 59.7 76.4008 59.7 75.8008 59.5V50.2H71.8008V59.5C71.5008 59.6 71.2008 59.6 70.8008 59.6C70.5008 59.6 70.1008 59.6 69.8008 59.5V48.5H77.6008V59.5H77.7008Z" fill="#8B91A6"/>
<path d="M90.8008 48.5001C91.3008 48.5001 91.7008 48.5001 92.2008 48.6001V59.5001C91.9008 59.6001 91.6008 59.6001 91.2008 59.6001C90.8008 59.6001 90.5008 59.6001 90.1008 59.5001V56.1001C90.1008 54.5001 90.1008 52.3001 90.2008 51.0001H90.1008C89.6008 52.3001 89.1008 53.6001 88.5008 54.8001L87.4008 57.1001C87.2008 57.2001 87.0008 57.2001 86.9008 57.2001C86.7008 57.2001 86.5008 57.2001 86.4008 57.1001C86.0008 56.4001 85.7008 55.6001 85.3008 54.9001C84.6008 53.6001 84.0008 52.3001 83.5008 50.9001H83.4008C83.6008 52.4001 83.7008 54.0001 83.7008 55.6001V59.4001C83.1008 59.6001 82.4008 59.6001 81.8008 59.4001V48.5001C82.6008 48.3001 83.5008 48.3001 84.3008 48.5001L85.7008 51.3001C86.2008 52.4001 86.8008 53.6001 87.1008 54.3001H87.2008C87.3008 53.8001 87.5008 53.3001 87.7008 52.8001C88.4008 51.3001 89.1008 50.0001 89.8008 48.5001C90.0008 48.6001 90.6008 48.5001 90.8008 48.5001Z" fill="#8B91A6"/>
<path d="M102.601 48.5C102.801 49 102.801 49.6 102.601 50.1H98.2006V53.2H101.801C101.901 53.4 101.901 53.6 101.901 53.9C101.901 54.2 101.901 54.6 101.801 54.9H98.2006V58.2H102.701C102.801 58.4 102.901 58.6 102.801 58.9C102.801 59.2 102.801 59.5 102.701 59.7H96.1006V48.5H102.601Z" fill="#8B91A6"/>
<path d="M112.3 48.6C112.6 48.5 112.9 48.5 113.3 48.5C113.7 48.5 114 48.5 114.4 48.6V59.5C114 59.6 113.7 59.6 113.3 59.6C113 59.6 112.6 59.6 112.3 59.5V54.7H108.3V59.5C108 59.6 107.7 59.6 107.3 59.6C106.9 59.6 106.6 59.6 106.2 59.5V48.6C106.6 48.5 106.9 48.5 107.3 48.5C107.6 48.5 107.9 48.5 108.3 48.6V53.1H112.3V48.6Z" fill="#8B91A6"/>
<path d="M125.1 48.5C125.2 48.8 125.2 49 125.2 49.3C125.2 49.6 125.2 49.9 125.1 50.3H122.3V59.6C121.7 59.8 121 59.8 120.4 59.6V50.3H117.5C117.4 50 117.4 49.8 117.4 49.5C117.4 49.2 117.4 48.9 117.5 48.5H125.1Z" fill="#8B91A6"/>
<path d="M121.4 33.6H91.7002V0H99.1002V26.1H114V0H121.4V33.6Z" fill="#8B91A6"/>
<path d="M117.7 26.1001H125.2V37.3001H117.7V26.1001Z" fill="#8B91A6"/>
</svg>
