<svg width="201" height="44" viewBox="0 0 201 44" fill="none" xmlns="http://www.w3.org/2000/svg">
<path d="M14.6 22.1001C14.6 17.7001 17.7 13.9001 22 13.1001V0.100098H0V44.0001H22V31.2001C17.7 30.3001 14.6 26.5001 14.6 22.1001Z" fill="#8B91A6"/>
<path d="M25.5996 0V13C30.5996 14 33.7996 18.8 32.8996 23.8C32.1996 27.5 29.2996 30.3 25.5996 31.1V43.9H47.5996V0H25.5996V0Z" fill="#8B91A6"/>
<path d="M64.9 11.4002H74V19.0002H76.9V1.2002H74V8.7002H64.9V1.2002H62V19.0002H64.9V11.4002Z" fill="#8B91A6"/>
<path fill-rule="evenodd" clip-rule="evenodd" d="M88.5998 19.2999C82.1998 19.2999 79.2998 14.4999 79.2998 10.0999C79.2998 5.6999 82.1998 0.899902 88.5998 0.899902C94.9998 0.899902 97.8998 5.6999 97.8998 10.0999C97.8998 14.4999 94.9998 19.2999 88.5998 19.2999ZM88.4998 16.4999C92.8998 16.4999 94.8998 13.2999 94.8998 10.0999C94.8998 6.8999 92.8998 3.6999 88.4998 3.6999C84.0998 3.6999 82.0998 6.8999 82.0998 10.0999C82.0998 13.2999 84.0998 16.4999 88.4998 16.4999Z" fill="#8B91A6"/>
<path fill-rule="evenodd" clip-rule="evenodd" d="M114.4 13.9002C114.5 12.1002 113.4 10.4002 111.7 9.60019C113 8.80019 113.8 7.4002 113.7 5.9002C113.7 3.0002 111.4 1.2002 107.5 1.2002H100.1V18.9002H107.6C109.3 19.0002 114.4 18.6002 114.4 13.9002ZM103 4.0002H107.3C110.3 4.0002 110.7 5.1002 110.7 6.2002C110.7 8.1002 108.9 8.4002 107.8 8.4002H103V4.0002ZM103 11.2002V16.2002H107.2C109.9 16.2002 111.4 15.8002 111.4 13.7002C111.4 12.0002 110.3 11.2002 107.8 11.2002H103Z" fill="#8B91A6"/>
<path fill-rule="evenodd" clip-rule="evenodd" d="M115.8 10.0999C115.8 5.6999 118.7 0.899902 125.1 0.899902C131.5 0.899902 134.4 5.6999 134.4 10.0999C134.4 14.4999 131.5 19.2999 125.1 19.2999C118.7 19.2999 115.8 14.4999 115.8 10.0999ZM118.7 10.0999C118.7 13.2999 120.7 16.4999 125.1 16.4999C129.5 16.4999 131.5 13.2999 131.5 10.0999C131.5 6.8999 129.5 3.6999 125.1 3.6999C120.7 3.6999 118.7 6.8999 118.7 10.0999Z" fill="#8B91A6"/>
<path d="M148.7 1.2002H136.8V19.0002H139.6V4.0002H148.7V1.2002Z" fill="#8B91A6"/>
<path fill-rule="evenodd" clip-rule="evenodd" d="M156.7 13.0002H153.4V18.9002H150.5V1.2002H156.7C160.2 1.2002 164.3 2.2002 164.3 7.1002C164.3 9.8002 163 13.0002 156.7 13.0002ZM156.8 4.0002H153.4V10.2002H156.8C160 10.2002 161.4 9.2002 161.4 7.10019C161.4 4.9002 160 4.0002 156.8 4.0002Z" fill="#8B91A6"/>
<path fill-rule="evenodd" clip-rule="evenodd" d="M181.2 18.9998H178.1L176.3 14.8998H167.8L166.1 18.9998H163L170.7 1.2998H173.5L181.2 18.9998ZM172.1 4.7998L169 12.0998H175.2L172.1 4.7998Z" fill="#8B91A6"/>
<path fill-rule="evenodd" clip-rule="evenodd" d="M198 1.2002V16.1002H200.2V22.9002H197.4V18.9002H184.8V22.9002H182V16.1002H184.2C185.9 12.9002 186.8 8.0002 186.8 1.6002V1.2002H198ZM187.4 16.2002H195.1H195.2V4.0002H189.7C189.3 9.60019 188.6 13.5002 187.4 16.2002Z" fill="#8B91A6"/>
<path d="M64.9 28.0998H73.7V43.0998H76.6V25.2998H62V43.0998H64.9V28.0998Z" fill="#8B91A6"/>
<path fill-rule="evenodd" clip-rule="evenodd" d="M78.2002 42.9998L85.9002 25.2998H88.6002L96.3002 42.9998H93.2002L91.5002 38.8998H83.0002L81.3002 42.9998H78.2002ZM87.3002 28.9998L84.2002 36.2998H90.4002L87.3002 28.9998Z" fill="#8B91A6"/>
<path fill-rule="evenodd" clip-rule="evenodd" d="M112.2 37.9998C112.3 36.1998 111.2 34.4998 109.5 33.6998C110.8 32.8998 111.6 31.4998 111.5 29.9998C111.5 27.0998 109.2 25.2998 105.3 25.2998H98V42.9998H105.5C107.1 43.0998 112.2 42.6998 112.2 37.9998ZM100.8 28.0998H105.1C108.1 28.0998 108.5 29.1998 108.5 30.2998C108.5 32.1998 106.7 32.4998 105.6 32.4998H100.7V28.0998H100.8ZM100.8 40.2998H105.1C107.8 40.2998 109.3 39.8998 109.2 37.7998C109.2 36.0998 108.1 35.2998 105.6 35.2998H100.8V40.2998Z" fill="#8B91A6"/>
<path d="M118.3 26.5C117.8 33 117.2 40.5 114.7 40.5C114.4 40.5 114 40.5 113.7 40.4L113.1 40.2V43L113.4 43.1C113.9 43.3 114.5 43.4 115 43.4C119.7 43.4 120.4 36 121.1 28.2H126.7V43.2H129.6V25.5H118.4L118.3 26.5Z" fill="#8B91A6"/>
<path d="M148 43.0998V25.2998H145.5L135.9 37.9998V25.2998H133.1V43.0998H135.6L145.1 30.3998V43.0998H148Z" fill="#8B91A6"/>
<path d="M163.4 32.7998H154.3V25.2998H151.4V43.0998H154.3V35.5998H163.4V43.0998H166.3V25.2998H163.4V32.7998Z" fill="#8B91A6"/>
<path fill-rule="evenodd" clip-rule="evenodd" d="M168.6 34.3001C168.6 29.9001 171.5 25.1001 177.9 25.1001C184.3 25.1001 187.2 29.8001 187.2 34.3001C187.2 38.7001 184.3 43.5001 177.9 43.5001C171.5 43.5001 168.6 38.7001 168.6 34.3001ZM171.5 34.2001C171.5 37.4001 173.5 40.6001 177.9 40.6001C182.3 40.6001 184.3 37.4001 184.3 34.2001C184.3 31.0001 182.3 27.8001 177.9 27.8001C173.5 27.8001 171.5 31.0001 171.5 34.2001Z" fill="#8B91A6"/>
</svg>
