<svg width="632" height="640" viewBox="0 0 632 640" fill="none" xmlns="http://www.w3.org/2000/svg">
<path d="M219.044 471.494L405.013 579.562L483.171 534.091L327.641 445.019L219.044 471.494Z" fill="url(#paint0_linear)"/>
<path d="M626.821 450.038L488.866 368.938L476.003 323.073L414.93 307.424L356.999 332.423L478.36 401.418L468.737 421.2L404.522 386.162L270.789 390.591L499.176 524.15L626.821 450.038Z" fill="url(#paint1_linear)"/>
<path d="M419.84 600.92L381.841 622.868L266.764 556.039L304.763 534.091L419.84 600.92Z" fill="url(#paint2_linear)"/>
<path d="M631.338 411.85L606.3 426.22L530.597 382.225L555.635 367.856L631.338 411.85Z" fill="url(#paint3_linear)"/>
<path d="M138.213 143.367C138.213 143.367 145.872 141.01 153.04 135.217C164.529 125.986 174.839 124.317 187.113 124.317V124.317C203.904 124.317 220.106 118.425 232.871 107.623L235.326 105.561C247.797 95.0543 265.668 93.7778 279.513 102.419L286.289 106.642C306.026 118.916 331.851 120.585 350.998 107.329C373.877 91.421 401.47 44.9741 455.967 56.4631C514.098 68.7376 546.894 2.35672 546.894 2.35672" stroke="#A6BBFA" stroke-width="0.5"/>
<path d="M156.967 138.555H166.393V229.878H156.967V138.555Z" fill="url(#paint4_linear)"/>
<path d="M179.354 129.325H188.781V229.878H179.354V129.325Z" fill="url(#paint5_linear)"/>
<path d="M201.743 129.325H211.17V229.878H201.743V129.325Z" fill="url(#paint6_linear)"/>
<path d="M224.132 119.8H233.558V229.78H224.132V119.8Z" fill="url(#paint7_linear)"/>
<path d="M246.52 103.401H255.946V229.878H246.52V103.401Z" fill="url(#paint8_linear)"/>
<path d="M268.907 107.133H278.334V229.78H268.907V107.133Z" fill="url(#paint9_linear)"/>
<path d="M291.198 119.8H300.625V229.78H291.198V119.8Z" fill="url(#paint10_linear)"/>
<path d="M313.586 125.888H323.013V229.878H313.586V125.888Z" fill="url(#paint11_linear)"/>
<path d="M335.974 121.371H345.4V229.878H335.974V121.371Z" fill="url(#paint12_linear)"/>
<path d="M358.362 108.998H367.789V229.878H358.362V108.998Z" fill="url(#paint13_linear)"/>
<path d="M380.75 88.7697H390.177V229.878H380.75V88.7697Z" fill="url(#paint14_linear)"/>
<path d="M403.139 70.7016H412.565V229.878H403.139V70.7016Z" fill="url(#paint15_linear)"/>
<path d="M425.527 61.7657H434.954V229.878H425.527V61.7657Z" fill="url(#paint16_linear)"/>
<path d="M447.915 62.8458H457.342V229.878H447.915V62.8458Z" fill="url(#paint17_linear)"/>
<path d="M470.303 66.2827H479.729V229.878H470.303V66.2827Z" fill="url(#paint18_linear)"/>
<path d="M501.43 227.816L492.004 228.013L492.2 61.8639L501.627 61.7657L501.43 227.816Z" fill="url(#paint19_linear)"/>
<path d="M514.98 47.2326H524.407V229.878H514.98V47.2326Z" fill="url(#paint20_linear)"/>
<path d="M537.368 27.2005H546.795V229.878H537.368V27.2005Z" fill="url(#paint21_linear)"/>
<path d="M132.812 148.964H142.238V228.504H132.812V148.964Z" fill="url(#paint22_linear)"/>
<path d="M183.578 126.772C184.88 126.772 185.935 125.717 185.935 124.415C185.935 123.114 184.88 122.058 183.578 122.058C182.277 122.058 181.222 123.114 181.222 124.415C181.222 125.717 182.277 126.772 183.578 126.772Z" fill="#81AAEF"/>
<path d="M211.76 122.157C213.062 122.157 214.117 121.101 214.117 119.8C214.117 118.498 213.062 117.443 211.76 117.443C210.458 117.443 209.403 118.498 209.403 119.8C209.403 121.101 210.458 122.157 211.76 122.157Z" fill="#81AAEF"/>
<path d="M258.794 99.1786C260.096 99.1786 261.151 98.1234 261.151 96.8219C261.151 95.5203 260.096 94.4651 258.794 94.4651C257.493 94.4651 256.438 95.5203 256.438 96.8219C256.438 98.1234 257.493 99.1786 258.794 99.1786Z" fill="#81AAEF"/>
<path d="M321.442 118.916C322.743 118.916 323.798 117.861 323.798 116.559C323.798 115.258 322.743 114.203 321.442 114.203C320.14 114.203 319.085 115.258 319.085 116.559C319.085 117.861 320.14 118.916 321.442 118.916Z" fill="#81AAEF"/>
<path d="M430.142 57.8378C431.443 57.8378 432.498 56.7827 432.498 55.4811C432.498 54.1795 431.443 53.1244 430.142 53.1244C428.84 53.1244 427.785 54.1795 427.785 55.4811C427.785 56.7827 428.84 57.8378 430.142 57.8378Z" fill="#81AAEF"/>
<path d="M479.73 59.0162C481.031 59.0162 482.086 57.961 482.086 56.6595C482.086 55.3579 481.031 54.3027 479.73 54.3027C478.428 54.3027 477.373 55.3579 477.373 56.6595C477.373 57.961 478.428 59.0162 479.73 59.0162Z" fill="#81AAEF"/>
<path d="M546.403 4.71344C547.704 4.71344 548.759 3.6583 548.759 2.35672C548.759 1.05514 547.704 0 546.403 0C545.101 0 544.046 1.05514 544.046 2.35672C544.046 3.6583 545.101 4.71344 546.403 4.71344Z" fill="#81AAEF"/>
<path d="M377.903 85.5293C379.204 85.5293 380.259 84.4741 380.259 83.1725C380.259 81.871 379.204 80.8158 377.903 80.8158C376.601 80.8158 375.546 81.871 375.546 83.1725C375.546 84.4741 376.601 85.5293 377.903 85.5293Z" fill="#81AAEF"/>
<path d="M137.525 145.724C138.826 145.724 139.881 144.669 139.881 143.367C139.881 142.065 138.826 141.01 137.525 141.01C136.223 141.01 135.168 142.065 135.168 143.367C135.168 144.669 136.223 145.724 137.525 145.724Z" fill="#81AAEF"/>
<path fill-rule="evenodd" clip-rule="evenodd" d="M387.661 519.19C387.666 518.096 385.899 517.201 383.714 517.191C381.53 517.181 379.755 518.059 379.749 519.153C379.744 520.247 381.511 521.142 383.696 521.153C385.881 521.163 387.656 520.284 387.661 519.19Z" stroke="#A6BBFA" stroke-width="0.500005"/>
<path fill-rule="evenodd" clip-rule="evenodd" d="M395.573 532.065C395.578 530.972 393.811 530.076 391.627 530.066C389.442 530.056 387.667 530.934 387.662 532.028C387.656 533.122 389.423 534.017 391.608 534.028C393.793 534.038 395.568 533.159 395.573 532.065Z" stroke="#A6BBFA" stroke-width="0.500005"/>
<path d="M518.399 388.44C519.436 388.44 520.277 387.553 520.277 386.459C520.277 385.365 519.436 384.478 518.399 384.478C517.361 384.478 516.52 385.365 516.52 386.459C516.52 387.553 517.361 388.44 518.399 388.44Z" fill="#A6BBFA"/>
<path d="M518.399 378.833C519.436 378.833 520.277 377.946 520.277 376.852C520.277 375.758 519.436 374.871 518.399 374.871C517.361 374.871 516.52 375.758 516.52 376.852C516.52 377.946 517.361 378.833 518.399 378.833Z" fill="#A6BBFA"/>
<path d="M518.399 369.325C519.436 369.325 520.277 368.438 520.277 367.344C520.277 366.25 519.436 365.363 518.399 365.363C517.361 365.363 516.52 366.25 516.52 367.344C516.52 368.438 517.361 369.325 518.399 369.325Z" fill="#A6BBFA"/>
<path d="M562.604 371.405H559.736C559.044 370.91 558.252 370.315 557.264 369.82C550.341 366.354 539.067 366.354 532.145 369.82C531.156 370.315 530.365 370.811 529.672 371.405H526.903V376.06C526.804 378.338 528.585 380.715 532.145 382.497C539.067 385.964 550.341 385.964 557.264 382.497C560.824 380.715 562.505 378.437 562.505 376.06H562.604V371.405Z" fill="url(#paint23_linear)"/>
<path d="M544.804 379.922C554.635 379.922 562.605 375.932 562.605 371.009C562.605 366.086 554.635 362.095 544.804 362.095C534.973 362.095 527.003 366.086 527.003 371.009C527.003 375.932 534.973 379.922 544.804 379.922Z" fill="#F5F8FB" stroke="#628FDE" stroke-width="0.5"/>
<path d="M562.604 361.996H559.736C559.044 361.501 558.252 360.907 557.264 360.411C550.341 356.945 539.067 356.945 532.145 360.411C531.156 360.907 530.365 361.402 529.672 361.996H526.903V366.651C526.804 368.929 528.585 371.306 532.145 373.089C539.067 376.555 550.341 376.555 557.264 373.089C560.824 371.306 562.505 369.028 562.505 366.651H562.604V361.996Z" fill="url(#paint24_linear)"/>
<path d="M544.804 370.514C554.635 370.514 562.605 366.523 562.605 361.6C562.605 356.677 554.635 352.686 544.804 352.686C534.973 352.686 527.003 356.677 527.003 361.6C527.003 366.523 534.973 370.514 544.804 370.514Z" fill="#F5F8FB" stroke="#628FDE" stroke-width="0.5"/>
<path d="M562.604 353.083H559.736C559.044 352.587 558.252 351.993 557.264 351.498C550.341 348.032 539.067 348.032 532.145 351.498C531.156 351.993 530.365 352.488 529.672 353.083H526.903V357.737C526.804 360.015 528.585 362.392 532.145 364.175C539.067 367.641 550.341 367.641 557.264 364.175C560.824 362.392 562.505 360.114 562.505 357.737H562.604V353.083Z" fill="url(#paint25_linear)"/>
<path d="M544.804 361.6C554.635 361.6 562.605 357.609 562.605 352.686C562.605 347.764 554.635 343.773 544.804 343.773C534.973 343.773 527.003 347.764 527.003 352.686C527.003 357.609 534.973 361.6 544.804 361.6Z" fill="#F5F8FB" stroke="#628FDE" stroke-width="0.5"/>
<path d="M557.363 361.6C550.441 365.066 539.167 365.066 532.244 361.6" stroke="#628FDE"/>
<path d="M557.362 370.712C550.44 374.178 539.166 374.178 532.243 370.712" stroke="#628FDE"/>
<path d="M557.362 379.922C550.44 383.389 539.166 383.389 532.243 379.922" stroke="#628FDE"/>
<path d="M531.65 378.734L518.398 386.459V367.245L531.65 359.421" stroke="#A6BBFA" stroke-width="0.5"/>
<path d="M518.2 377.149L530.859 369.919" stroke="#A6BBFA" stroke-width="0.5"/>
<path d="M386.066 521.259L434.614 549.652C435.302 550.046 435.302 551.131 434.614 551.525L355.503 597.96C354.422 598.551 353.144 598.551 352.063 597.96L293.196 564.046L289.757 561.877L361.104 520.864L325.529 500.95L337.912 492.57L316.488 479.556" stroke="#A6BBFA" stroke-width="0.5"/>
<path d="M222.015 411.912L195.809 398.74V397.65L222.015 410.724V411.912Z" fill="white"/>
<path d="M222.015 416.666L195.809 403.593V402.503L222.015 415.577V416.666Z" fill="white"/>
<path d="M222.015 421.519L195.809 408.347V407.257L222.015 420.429V421.519Z" fill="white"/>
<path d="M222.015 426.273L195.809 413.2V412.11L222.015 425.183V426.273Z" fill="white"/>
<path d="M222.015 431.126L195.809 417.954V416.864L222.015 430.036V431.126Z" fill="white"/>
<path d="M214.743 602.365L202.11 595.215C201.621 594.921 201.621 594.236 202.11 593.942L237.56 573.178L214.743 561.523L289.167 517.449L277.416 510.495L319.426 485.422L306.892 478.566" stroke="#A6BBFA" stroke-width="0.5"/>
<path fill-rule="evenodd" clip-rule="evenodd" d="M219.543 604.364C219.548 603.27 217.781 602.375 215.596 602.365C213.412 602.355 211.636 603.233 211.631 604.327C211.626 605.421 213.393 606.316 215.578 606.327C217.762 606.337 219.538 605.458 219.543 604.364Z" stroke="#A6BBFA" stroke-width="0.500005"/>
<path fill-rule="evenodd" clip-rule="evenodd" d="M185.643 597.387C185.649 596.254 183.817 595.327 181.551 595.316C179.286 595.305 177.446 596.215 177.44 597.349C177.435 598.482 179.267 599.409 181.532 599.42C183.798 599.43 185.638 598.52 185.643 597.387Z" stroke="#A6BBFA" stroke-width="0.500005"/>
<path d="M249.112 522.436L180.725 561.459C179.945 561.85 179.945 562.926 180.725 563.415L208.821 579.748C209.602 580.237 209.602 581.313 208.821 581.802L184.335 596.179" stroke="#A6BBFA" stroke-width="0.5"/>
<path d="M488.929 300.195L537.386 271.078" stroke="#BED1FD" stroke-width="0.5"/>
<path d="M537.386 243.05V271.474" stroke="#BED1FD" stroke-width="0.5"/>
<path d="M167.514 558.788L141.786 544.038C141.295 543.745 141.295 543.159 141.786 542.866L171.049 526.261C171.54 525.968 172.129 525.968 172.62 526.261L190.001 536.127C190.786 536.517 191.67 536.517 192.455 536.127L221.522 519.131L217.004 516.201" stroke="#A6BBFA" stroke-width="0.5"/>
<path fill-rule="evenodd" clip-rule="evenodd" d="M174.051 559.797C174.057 558.703 172.29 557.807 170.105 557.797C167.92 557.787 166.145 558.666 166.14 559.759C166.135 560.853 167.902 561.749 170.087 561.759C172.271 561.769 174.046 560.89 174.051 559.797Z" stroke="#A6BBFA" stroke-width="0.500005"/>
<path d="M159.218 514.814L188.638 531.75C189.228 532.146 190.015 532.146 190.704 531.75L221.6 513.527L205.07 503.722L234.49 486.489L223.47 480.447L237.343 472.623" stroke="#A6BBFA" stroke-width="0.5"/>
<path fill-rule="evenodd" clip-rule="evenodd" d="M161.196 512.258C161.201 511.164 159.434 510.269 157.25 510.258C155.065 510.248 153.29 511.127 153.285 512.221C153.28 513.314 155.046 514.21 157.231 514.22C159.416 514.23 161.191 513.352 161.196 512.258Z" stroke="#A6BBFA" stroke-width="0.500005"/>
<path d="M311.959 585.528L271.956 562.955L298.462 547.478L369.86 504.993L329.368 480.546" stroke="#A6BBFA" stroke-width="0.5"/>
<path d="M299.646 592.461L312.503 585.528" stroke="#A6BBFA" stroke-width="0.5"/>
<path fill-rule="evenodd" clip-rule="evenodd" d="M300.635 593.47C300.641 592.376 298.874 591.481 296.689 591.471C294.504 591.46 292.729 592.339 292.724 593.433C292.719 594.527 294.486 595.422 296.671 595.432C298.855 595.442 300.63 594.564 300.635 593.47Z" stroke="#A6BBFA" stroke-width="0.500005"/>
<path fill-rule="evenodd" clip-rule="evenodd" d="M533.074 389.059C533.08 387.921 531.252 386.989 528.992 386.979C526.731 386.968 524.895 387.882 524.89 389.021C524.884 390.159 526.712 391.09 528.972 391.101C531.233 391.111 533.069 390.197 533.074 389.059Z" stroke="#A6BBFA" stroke-width="0.500005"/>
<path d="M531.461 390.655L574.481 416.515C575.363 417.002 575.363 418.271 574.481 418.759L515.292 452.328C514.606 452.718 513.724 452.718 512.94 452.328L468.549 426.175" stroke="#A6BBFA" stroke-width="0.5"/>
<path d="M594.686 514.367L569.626 499.658C568.741 499.168 567.66 499.168 566.677 499.658L516.361 528.684C515.574 529.076 514.69 529.076 514.002 528.684L476.068 506.522L464.275 499.56C464.078 499.462 464.078 499.07 464.275 498.972L480.687 489.264C481.08 489.068 481.08 488.479 480.687 488.283L444.521 467.887C444.325 467.789 444.325 467.593 444.521 467.495L466.339 454.649C466.535 454.551 466.535 454.257 466.339 454.159L448.059 444.059C447.863 443.961 447.863 443.666 448.059 443.568L458.771 437.685C459.066 437.587 459.066 437.195 458.771 436.998L448.059 430.33" stroke="#A6BBFA" stroke-width="0.5"/>
<path fill-rule="evenodd" clip-rule="evenodd" d="M601.058 515.806C601.063 514.665 599.226 513.731 596.955 513.72C594.684 513.71 592.838 514.626 592.833 515.768C592.828 516.909 594.664 517.843 596.936 517.854C599.207 517.865 601.052 516.948 601.058 515.806Z" stroke="#A6BBFA" stroke-width="0.500005"/>
<path d="M488.045 500.354L480.99 495.912C480.697 495.715 480.697 495.32 480.99 495.122L491.279 489.2C491.573 489.101 491.573 488.706 491.279 488.607L445.128 462.053L423.963 474.096L403.484 462.053L434.84 443.001C435.427 442.705 435.427 441.916 434.84 441.521L409.168 426.121C408.58 425.727 408.58 424.838 409.168 424.542L434.252 410.228" stroke="#A6BBFA" stroke-width="0.5"/>
<path d="M554.791 396.363L589.145 416.864C589.83 417.26 590.711 417.26 591.494 416.864L602.26 410.724" stroke="#A6BBFA" stroke-width="0.5"/>
<path fill-rule="evenodd" clip-rule="evenodd" d="M494.466 501.363C494.471 500.269 492.704 499.374 490.519 499.364C488.334 499.354 486.559 500.232 486.554 501.326C486.549 502.42 488.316 503.315 490.501 503.326C492.685 503.336 494.46 502.457 494.466 501.363Z" stroke="#A6BBFA" stroke-width="0.500005"/>
<path fill-rule="evenodd" clip-rule="evenodd" d="M555.779 395.391C555.784 394.297 554.017 393.402 551.833 393.392C549.648 393.381 547.873 394.26 547.868 395.354C547.863 396.448 549.629 397.343 551.814 397.353C553.999 397.363 555.774 396.485 555.779 395.391Z" stroke="#A6BBFA" stroke-width="0.500005"/>
<path fill-rule="evenodd" clip-rule="evenodd" d="M609.182 477.594C609.187 476.5 607.421 475.605 605.236 475.594C603.051 475.584 601.276 476.463 601.271 477.557C601.266 478.651 603.033 479.546 605.217 479.556C607.402 479.566 609.177 478.688 609.182 477.594Z" stroke="#A6BBFA" stroke-width="0.500005"/>
<path d="M394.493 533.247L423.885 550.487C424.375 550.781 424.375 551.466 423.885 551.76L355.304 592.02C354.227 592.608 352.953 592.608 351.973 592.02L300.636 562.34L372.058 521.394L327.676 495.142L337.669 489.362L322.484 480.546" stroke="#A6BBFA" stroke-width="0.5"/>
<path d="M517.212 387.449L489.419 403.152C489.126 403.343 488.832 403.343 488.538 403.152L479.633 397.599" stroke="#A6BBFA" stroke-width="0.5"/>
<path d="M188.194 175.899C187.996 174.429 186.611 174.037 185.029 175.115L184.732 175.311V172.568C184.732 167.375 181.271 165.513 177.019 168.257C175.041 169.53 173.063 171.784 171.481 174.429C169.701 177.564 168.613 180.895 168.613 183.737V185.794L168.217 186.088C166.536 187.166 165.25 189.321 165.053 191.085C164.657 191.477 164.36 192.065 164.36 192.554V197.257C164.36 197.551 164.459 197.649 164.657 197.747C164.756 197.747 164.756 197.747 164.855 197.747C164.954 197.747 165.151 197.747 165.25 197.649C165.448 198.139 165.943 198.433 166.536 198.433C167.03 198.433 167.624 198.237 168.316 197.845L169.107 197.257C169.997 200.784 173.854 201.764 178.205 198.923L178.008 198.629L179.095 197.943C179.887 197.453 180.579 196.375 180.579 195.592V195.494C180.579 195.2 180.48 194.906 180.282 194.808C179.985 194.71 179.59 194.71 179.095 195.004L178.008 195.788C177.216 196.277 176.524 197.355 176.524 198.139V198.237C176.524 198.433 176.524 198.629 176.623 198.727C173.36 200.196 170.788 199.413 169.997 196.767C170.195 196.571 170.393 196.277 170.393 196.082V185.402C170.393 185.206 170.294 185.206 170.195 185.108V182.267C170.195 179.916 171.283 177.564 172.667 175.213C173.854 173.253 174.942 171.294 176.524 170.216C180.381 167.669 183.546 169.53 183.546 174.233V176.389C183.348 176.585 183.249 176.879 183.249 177.074V187.754C183.249 187.95 183.348 188.048 183.447 188.048C183.546 188.048 183.645 188.048 183.743 187.95L185.227 186.97C186.611 186.088 187.798 184.423 188.293 182.855C188.787 182.463 189.183 181.777 189.183 181.287V176.585C188.886 175.997 188.589 175.801 188.194 175.899Z" fill="#628FDE"/>
<path d="M180.974 195.2L180.084 194.808L179.49 195.886L180.974 195.2Z" fill="#628FDE"/>
<path d="M164.559 197.747L165.745 198.335V196.669L164.559 197.747Z" fill="#628FDE"/>
<path d="M184.04 188.244L183.15 187.852L184.93 186.48L184.04 188.244Z" fill="#628FDE"/>
<path d="M189.084 176.291C188.886 174.821 187.502 174.429 185.92 175.507L185.623 175.703V172.96C185.623 167.767 182.162 165.905 177.909 168.649C175.931 169.922 173.954 172.176 172.371 174.821C170.591 177.956 169.503 181.287 169.503 184.129V186.186L169.108 186.48C167.427 187.558 166.141 189.713 165.943 191.477C165.548 191.869 165.251 192.456 165.251 192.946V197.649C165.251 198.139 165.647 198.335 166.141 198.139C166.635 199.119 167.822 199.217 169.207 198.335L169.998 197.747C170.888 201.274 174.448 202.058 178.799 199.217V199.119L179.887 198.433C180.678 197.943 181.371 196.865 181.371 196.082V195.984C181.371 195.2 180.678 195.004 179.887 195.494L178.799 196.277C178.008 196.767 177.316 197.845 177.316 198.629V198.727C177.316 198.923 177.316 199.119 177.415 199.217C174.151 200.686 171.58 199.903 170.789 197.257C170.987 197.061 171.185 196.767 171.185 196.571V185.892C171.185 185.696 171.086 185.696 170.987 185.598V182.757C170.987 180.406 171.778 177.662 173.162 175.311C174.349 173.351 175.833 171.686 177.415 170.706C181.272 168.159 184.436 170.02 184.436 174.723V176.879C184.238 177.074 184.14 177.368 184.14 177.564V188.244C184.14 188.537 184.337 188.635 184.634 188.44L186.117 187.46C187.502 186.578 188.689 184.912 189.183 183.345C189.678 182.953 190.073 182.267 190.073 181.777V177.074C189.777 176.389 189.48 176.193 189.084 176.291Z" fill="#87B3F1"/>
<path fill-rule="evenodd" clip-rule="evenodd" d="M203.138 210.268C206.341 206.11 206.96 201.213 204.522 199.329C202.083 197.445 197.51 199.288 194.308 203.446C191.105 207.604 190.486 212.501 192.924 214.385C195.363 216.269 199.936 214.426 203.138 210.268Z" stroke="#87B3F1" stroke-width="0.500006"/>
<path fill-rule="evenodd" clip-rule="evenodd" d="M200.644 208.36C202.046 206.541 202.314 204.397 201.245 203.571C200.175 202.744 198.172 203.549 196.771 205.368C195.37 207.187 195.101 209.332 196.171 210.158C197.24 210.984 199.243 210.179 200.644 208.36Z" stroke="#87B3F1" stroke-width="0.500006"/>
<path d="M187.008 209.014C188.689 203.332 193.238 197.453 198.677 194.612C200.457 193.632 202.237 193.142 203.82 193.044" stroke="#87B3F1" stroke-width="0.5"/>
<path d="M204.116 215.089C202.435 216.754 200.655 218.126 198.677 219.106C191.853 222.633 186.315 220.085 186.315 213.325" stroke="#87B3F1" stroke-width="0.5"/>
<path d="M219.641 257.512L178.403 233.116C176.919 232.234 176.029 230.667 176.029 228.903V199.609" stroke="#A6BBFA" stroke-width="0.5"/>
<path d="M222.608 241.934L199.863 228.609C198.874 228.021 198.182 226.846 198.182 225.67V219.301" stroke="#A6BBFA" stroke-width="0.5"/>
<path d="M568.918 238.043C574.571 231.788 575.156 220.255 569.406 207.451L543.579 209.406L517.752 211.361C526.036 229.833 544.261 243.907 558.49 242.734C559.562 242.637 560.537 242.441 561.512 242.246V245.178L567.749 239.02C568.041 238.727 568.431 238.434 568.724 238.043H568.918Z" fill="url(#paint26_linear)"/>
<path d="M537.731 215.27L511.904 217.225C520.188 235.697 538.413 249.771 552.643 248.599C566.872 247.523 571.842 231.69 563.558 213.218L537.731 215.27Z" fill="url(#paint27_linear)"/>
<path d="M518.141 181.16L512.099 188.002L514.34 188.979C513.95 190.739 513.755 192.596 513.755 194.648C513.755 200.121 515.022 205.497 517.751 211.654L533.247 210.481L537.243 185.95L542.311 179.89L543.578 179.694C532.858 174.221 523.404 175.199 518.141 181.16Z" fill="url(#paint28_linear)"/>
<path d="M537.731 215.27V185.363C521.26 177.055 507.908 183.799 507.908 200.317C507.908 205.79 509.175 211.165 511.904 217.323L537.731 215.27Z" fill="#628FDE"/>
<path d="M537.73 215.27L542.896 209.211V179.792L537.73 185.656V215.27Z" fill="url(#paint29_linear)"/>
<path d="M547.574 205.399L568.138 208.038L573.401 203.347C567.944 191.032 558.49 180.965 547.574 175.394L542.312 180.085L547.574 205.399Z" fill="#DB122E"/>
<path d="M542.312 210.09L568.138 208.136C562.681 195.821 553.227 185.754 542.312 180.183V210.09Z" fill="#FF4453"/>
<path opacity="0.66" d="M553.896 283.125L522.66 264.781C521.964 264.385 521.168 264.88 521.168 265.575V292.445L543.949 305.831L548.922 314.16V308.806L553.697 311.582C554.195 311.88 554.792 311.483 554.792 310.987V284.81C554.792 284.116 554.493 283.521 553.896 283.125Z" fill="#76F3DD"/>
<path opacity="0.62" d="M537.778 288.041L506.337 269.694C505.94 269.399 505.345 269.792 505.345 270.282V296.184C505.345 296.969 505.741 297.656 506.436 298.048L509.213 299.618V305.603L514.271 302.561L537.282 316.003C537.977 316.395 538.968 315.905 538.968 315.12V290.003C538.968 289.218 538.572 288.531 537.778 288.041Z" fill="#A6BBFA"/>
<path d="M509.597 278.407V279.397L535.309 294.451V293.461L509.597 278.407Z" fill="white"/>
<path d="M509.597 283.062V284.052L535.309 299.106V298.116L509.597 283.062Z" fill="white"/>
<path d="M509.597 287.717V288.707L535.309 303.761V302.771L509.597 287.717Z" fill="white"/>
<path d="M509.597 292.371V293.362L535.309 308.515V307.524L509.597 292.371Z" fill="white"/>
<path d="M488.829 342.584L524.233 321.291" stroke="#BED1FD" stroke-width="0.5"/>
<path d="M524.232 308.812V321.588" stroke="#BED1FD" stroke-width="0.5"/>
<path d="M249.153 522.143L219.544 505.082L268.991 475.594" stroke="#A6BBFA" stroke-width="0.5"/>
<path d="M602.26 475.594L575.818 460.769C574.737 460.183 574.835 458.72 575.818 458.135L592.922 448.869C593.708 448.479 593.708 447.406 592.922 446.918L531.879 411.511C531.191 411.121 530.404 411.121 529.716 411.511L497.18 430.239C496 430.922 494.526 430.922 493.248 430.239L471.721 417.461" stroke="#A6BBFA" stroke-width="0.5"/>
<path fill-rule="evenodd" clip-rule="evenodd" d="M607.205 408.266C607.21 407.172 605.443 406.277 603.258 406.267C601.074 406.257 599.299 407.135 599.293 408.229C599.288 409.323 601.055 410.218 603.24 410.228C605.425 410.239 607.2 409.36 607.205 408.266Z" stroke="#A6BBFA" stroke-width="0.500005"/>
<path d="M435.219 403.296L396.811 425.405C396.319 425.699 396.319 426.481 396.811 426.775L422.253 442.33C422.842 442.721 422.842 443.504 422.253 443.895L389.934 462.091C389.541 462.287 389.541 462.776 389.934 463.07L441.113 493.201C441.604 493.495 442.194 493.495 442.685 493.201L484.434 468.548L492.489 473.244" stroke="#A6BBFA" stroke-width="0.5"/>
<path fill-rule="evenodd" clip-rule="evenodd" d="M498.422 474.623C498.427 473.529 496.66 472.634 494.475 472.623C492.291 472.613 490.515 473.492 490.51 474.586C490.505 475.679 492.272 476.575 494.457 476.585C496.641 476.595 498.416 475.717 498.422 474.623Z" stroke="#A6BBFA" stroke-width="0.500005"/>
<path fill-rule="evenodd" clip-rule="evenodd" d="M245.256 618.23C245.261 617.136 243.494 616.241 241.309 616.231C239.124 616.22 237.349 617.099 237.344 618.193C237.339 619.287 239.106 620.182 241.291 620.192C243.475 620.202 245.25 619.324 245.256 618.23Z" stroke="#A6BBFA" stroke-width="0.500005"/>
<path d="M243.659 617.221L254.873 611.431L222.51 592.784L254.873 574.333L232.248 562.164L275.53 537.727L296.68 526.44L248.381 494.447L279.17 476.585" stroke="#A6BBFA" stroke-width="0.5"/>
<path d="M236.191 624.154C234.727 623.868 233.36 623.393 232.189 622.823C227.211 620.446 227.211 616.452 232.091 614.076C235.898 612.174 241.657 611.794 246.244 612.84" stroke="#A6BBFA" stroke-width="0.5"/>
<path d="M253.044 616.231C255.163 618.588 254.255 621.338 250.32 623.302C247.293 624.776 243.257 625.365 239.322 625.07" stroke="#A6BBFA" stroke-width="0.5"/>
<path d="M237.344 608.544C239.251 608.346 241.264 608.247 243.277 608.346" stroke="#A6BBFA" stroke-width="0.5"/>
<path d="M222.51 613.259C223.382 612.398 224.546 611.537 225.903 610.783C227.842 609.707 230.072 608.846 232.399 608.307" stroke="#A6BBFA" stroke-width="0.5"/>
<path d="M257.123 626.033C248.785 630.146 235.188 630.146 226.85 625.935C221.987 623.585 219.903 620.354 220.697 617.221" stroke="#A6BBFA" stroke-width="0.5"/>
<path d="M260.409 613.259C264.042 616.402 263.935 620.116 260.089 623.163" stroke="#A6BBFA" stroke-width="0.5"/>
<path d="M331.413 531.153L298.371 550.084C298.176 550.181 297.98 550.181 297.785 550.084L249.102 521.785C248.711 521.59 248.711 521.004 249.102 520.809L282.144 501.878C282.339 501.78 282.535 501.78 282.73 501.878L331.413 530.177C331.804 530.372 331.804 530.958 331.413 531.153Z" fill="white"/>
<path d="M331.511 530.762L298.273 549.791C298.078 549.889 297.882 549.889 297.785 549.791L249.004 521.394C248.613 521.199 248.711 520.711 249.004 520.516L282.241 501.487C282.437 501.39 282.632 501.39 282.73 501.487L331.511 529.884C331.902 530.079 331.902 530.567 331.511 530.762Z" fill="url(#paint30_linear)"/>
<path d="M331.804 523.639L298.762 542.57C298.566 542.668 298.371 542.668 298.175 542.57L249.492 514.271C249.101 514.076 249.101 513.49 249.492 513.295L282.534 494.364C282.73 494.266 282.925 494.266 283.121 494.364L331.804 522.663C332.195 522.858 332.195 523.346 331.804 523.639Z" fill="white"/>
<path d="M331.805 523.248L298.764 542.18C298.568 542.277 298.373 542.277 298.177 542.18L249.592 513.978C249.201 513.783 249.201 513.1 249.592 512.905L282.634 493.974C282.829 493.876 283.025 493.876 283.22 493.974L331.805 522.175C332.196 522.468 332.196 523.053 331.805 523.248Z" fill="url(#paint31_linear)"/>
<path d="M332.098 514.271L299.057 533.202C298.861 533.3 298.666 533.3 298.47 533.202L249.787 504.903C249.396 504.708 249.396 504.122 249.787 503.927L282.829 484.996C283.025 484.898 283.22 484.898 283.416 484.996L332.098 513.295C332.489 513.49 332.489 513.978 332.098 514.271Z" fill="white"/>
<path d="M332.098 513.881L299.057 532.812C298.861 532.909 298.666 532.909 298.47 532.812L249.787 504.513C249.396 504.317 249.396 503.732 249.787 503.537L282.829 484.606C283.025 484.508 283.22 484.508 283.416 484.606L332.098 512.905C332.489 513.1 332.489 513.588 332.098 513.881Z" fill="url(#paint32_linear)"/>
<path d="M352.666 317.561L484.815 329.26V110.026L352.666 98.4251V317.561Z" fill="#3066D1"/>
<path d="M398.517 242.156L464.886 247.662V243.926L398.517 238.42" fill="#0046A1"/>
<path d="M398.517 249.628L464.886 255.035V251.299L398.517 245.892V249.628Z" fill="#0046A1"/>
<path d="M306.031 382.25L325.471 396.013V160.46L306.031 146.696V382.25Z" fill="#00DDB0"/>
<path d="M325.274 214.531V235.078L407.843 206.174L388.6 192.411L325.274 214.531Z" fill="#00C89C"/>
<path d="M340.396 166.456V224.067L393.903 205.289V147.679L340.396 166.456Z" fill="#068E77"/>
<path d="M407.842 189.166V131.556L325.273 160.459V197.523V218.07L330.379 216.3V233.308L325.273 235.078V421.083L407.842 392.179V206.174L379.763 216.005V198.998L407.842 189.166Z" fill="url(#paint33_linear)" stroke="#00B287" stroke-width="0.5" stroke-linejoin="round"/>
<path d="M356.986 467.289L351.292 482.527L351.096 200.472L356.986 183.956V467.289Z" fill="#E21E43"/>
<path d="M241.92 385.101L275.203 388.05V125.657L241.92 122.708V385.101Z" fill="#E21E43"/>
<path d="M275.399 125.559L242.312 122.708L219.044 188.773L252.13 191.722L351.095 200.472L356.986 183.956L257.923 175.206L275.399 125.559Z" fill="#FF4653"/>
<path d="M358.459 82.0071L352.666 98.5234L451.631 107.273L434.253 156.822L467.241 159.771L490.51 93.6078L358.459 82.0071Z" fill="#2541B1"/>
<path d="M407.843 131.556L325.274 160.558L306.031 146.696L388.6 117.792L407.843 131.556Z" fill="#1EC89E"/>
<path d="M275.399 238.814L242.312 235.864L219.044 301.929L252.13 304.879L351.095 313.628L342.063 297.112L257.923 288.362L275.399 238.814Z" fill="url(#paint34_linear)"/>
<path d="M351.291 279.514V200.472L219.044 188.871V267.815L276.675 272.928V307.042L219.044 301.929V470.828L351.291 482.527V313.628L351.095 313.53V279.514H351.291Z" fill="url(#paint35_linear)"/>
<path d="M276.675 290.427L257.923 288.559V271.355L276.675 272.928V290.427Z" fill="#E21E43"/>
<path d="M434.154 255.035H434.252V254.838L434.154 255.035Z" fill="#286AAA"/>
<path d="M434.154 225.05H434.252V224.853L434.154 225.05Z" fill="#417FB7"/>
<path d="M434.351 252.086V428.063L467.044 431.405L466.848 254.838L434.351 252.086Z" fill="#2853BC"/>
<path d="M467.143 227.901L444.365 225.935L434.253 252.675L467.143 255.625H467.241V227.803L467.143 227.901Z" fill="#213C93"/>
<path d="M445.444 242.058L450.157 242.451L466.946 243.926V175.796L445.543 174.125L445.444 242.058Z" fill="#2541B1"/>
<path d="M434.254 156.822V173.83V186.807V203.815V224.853V225.05L444.366 225.935L466.751 227.901V227.803V189.756V159.771L434.254 156.822Z" fill="#2853BC"/>
<path d="M484.815 131.753L466.946 181.4V412.628L484.815 362.981V131.753Z" fill="#2853BC"/>
<path d="M466.75 160.361V228.491L490.509 162.426V94.296L466.75 160.263V160.361Z" fill="#7BA1FF"/>
<path d="M488.84 194.18L484.815 193.885L466.946 243.238V296.031L488.644 297.899L488.84 194.18Z" fill="#213C93"/>
<path d="M488.84 194.279L466.946 254.838V431.799L488.84 371.239V194.279Z" fill="url(#paint36_linear)"/>
<path d="M276.972 233.505L343.243 239.01V235.274L276.972 229.769" fill="#FF8895"/>
<path d="M276.971 240.976L343.242 246.482V242.648L276.971 237.241V240.976Z" fill="#FF8895"/>
<path d="M276.971 248.35L343.242 253.855V250.119L283.451 245.106L276.971 244.614V248.35Z" fill="#FF8895"/>
<path d="M341.67 368.584L289.145 364.259V368.093L341.67 372.419V368.584Z" fill="#FFA49B"/>
<path d="M400.971 179.925L467.34 185.431V181.596L400.971 176.189" fill="#0046A1"/>
<path d="M400.97 187.298L467.339 192.804V189.068L400.97 183.563V187.298Z" fill="#0046A1"/>
<path d="M276.971 461.784L343.242 467.289V463.553L276.971 458.048" fill="#FF4653"/>
<path d="M296.017 470.828L343.241 474.662V470.927L296.017 466.994V470.828Z" fill="#FF4653"/>
<path d="M411.693 328.7L408.33 330.456C408.231 330.553 408.034 330.553 407.935 330.456L395.969 323.529C395.672 323.334 395.672 322.944 395.969 322.748L399.529 321.09C399.628 320.992 399.825 320.992 399.924 321.09L411.693 327.919C411.989 328.114 411.989 328.505 411.693 328.7Z" fill="white" stroke="#A6BBFA" stroke-width="0.5" stroke-linejoin="round"/>
<path d="M407.638 321.773L400.914 317.773L399.232 323.041L408.924 328.602L407.638 321.773Z" fill="white" stroke="#A6BBFA" stroke-width="0.5" stroke-linejoin="round"/>
<path d="M427.516 332.505L385.585 308.309C385.289 308.114 385.091 307.822 385.091 307.431V270.163C385.091 269.382 385.981 268.895 386.574 269.285L428.505 293.48C428.802 293.675 428.999 293.968 428.999 294.358V331.626C428.999 332.407 428.208 332.895 427.516 332.505Z" fill="url(#paint37_linear)" stroke="#A6BBFA" stroke-width="0.5" stroke-linejoin="round"/>
<path d="M426.33 333.285L384.399 309.09C384.102 308.895 383.904 308.602 383.904 308.212V270.943C383.904 270.163 384.794 269.675 385.388 270.065L427.318 294.26C427.615 294.456 427.813 294.748 427.813 295.139V332.407C427.813 333.187 427.022 333.675 426.33 333.285Z" fill="url(#paint38_linear)" stroke="#A6BBFA" stroke-width="0.5" stroke-linejoin="round"/>
<path d="M383.904 305.48L427.813 330.748L383.904 305.48Z" fill="white"/>
<path d="M383.904 305.48L427.813 330.748" stroke="#A6BBFA" stroke-width="0.5"/>
<path d="M404.771 318.358L404.079 317.87C403.683 317.578 403.09 317.87 403.09 318.358V318.651C403.09 318.846 403.189 319.041 403.387 319.139L404.079 319.626C404.474 319.919 405.068 319.626 405.068 319.139V318.846C405.068 318.651 404.969 318.456 404.771 318.358Z" fill="white" stroke="#A6BBFA" stroke-width="0.5" stroke-linejoin="round"/>
<path d="M385.783 288.895V303.139L403.584 313.383V299.139L385.783 288.895Z" fill="#A6BBFA"/>
<path opacity="0.2" d="M425.341 310.261L385.783 287.431V277.187L425.341 300.017V310.261Z" fill="#A6BBFA"/>
<path opacity="0.62" d="M405.068 299.822V314.163L425.341 325.773V311.431L405.068 299.822Z" fill="#A6BBFA"/>
<path d="M386.079 275.919L425.636 298.748V296.309L386.079 273.48V275.919Z" fill="#A6BBFA"/>
<path d="M393.001 355.576L373.421 344.064C373.124 343.869 372.827 343.479 372.827 343.088V293.137C372.827 292.259 373.816 291.771 374.508 292.161L393.99 303.186C394.88 303.771 394.979 304.259 394.979 304.649V354.601C395.078 355.479 393.793 355.967 393.001 355.576Z" fill="url(#paint39_linear)" stroke="#A6BBFA" stroke-width="0.5" stroke-linejoin="round"/>
<path d="M391.914 356.162L372.334 344.649C372.037 344.454 371.74 344.064 371.74 343.674V293.722C371.74 292.844 372.729 292.357 373.421 292.747L392.903 303.771C393.793 304.357 393.892 304.844 393.892 305.235V355.186C393.991 356.064 392.607 356.552 391.914 356.162Z" fill="url(#paint40_linear)" stroke="#A6BBFA" stroke-width="0.5" stroke-linejoin="round"/>
<path d="M388.355 303.088L378.07 297.04C377.971 296.942 377.872 296.844 377.872 296.747V295.381L388.355 301.527V303.088Z" fill="#A6BBFA"/>
<path opacity="0.66" d="M391.419 333.918L374.311 323.966V298.113L391.419 308.064V333.918Z" fill="#76F3DD"/>
<path d="M391.32 350.015L374.311 340.162V327.771L391.32 337.723V350.015Z" fill="#A6BBFA"/>
<path d="M387.167 325.918L373.52 318.113V315.966L387.167 323.869V325.918Z" fill="#00DDB0"/>
<path d="M387.167 312.162L373.52 304.357V302.21L387.167 310.015V312.162Z" fill="#00DDB0"/>
<path d="M385.881 313.235L373.52 306.21V308.357L385.881 315.381V313.235Z" fill="#00DDB0"/>
<path d="M382.42 315.186L373.52 310.113V312.162L382.42 317.332V315.186Z" fill="#00DDB0"/>
<path d="M357.004 364.523L381.632 378.436C382.125 378.728 382.716 378.339 382.716 377.755V350.805" stroke="#FBFBFB" stroke-width="0.5"/>
<path d="M357.004 349.732L401.711 375.386C402.499 375.879 403.484 375.287 403.484 374.399V328.026" stroke="#FBFBFB" stroke-width="0.5"/>
<path d="M597.316 339.91L589.096 330.006L575.33 330.197L574.736 330.006C574.736 330.102 574.736 330.102 574.637 330.197C574.34 331.244 575.033 332.292 576.717 333.054C577.212 333.244 577.707 333.435 578.202 333.625C578.797 333.911 597.316 339.91 597.316 339.91Z" fill="url(#paint41_linear)"/>
<path d="M612.148 337.93L606.452 331.987L597.758 332.079L597.358 331.987V332.079C597.158 332.719 597.658 333.358 598.657 333.816C598.957 333.907 599.257 334.09 599.556 334.181C599.856 334.273 600.256 334.364 600.556 334.364L612.148 337.93Z" fill="url(#paint42_linear)"/>
<path d="M605.82 330.502L605.721 330.304C605.524 329.907 605.128 329.61 604.535 329.313C604.337 329.511 604.139 329.709 603.743 329.907C602.359 330.601 599.986 330.601 598.601 329.907C598.304 329.709 598.008 329.511 597.81 329.313C597.118 329.709 596.722 330.105 596.524 330.502C596.228 331.195 596.722 331.987 597.81 332.581C599.59 333.473 602.557 333.473 604.436 332.581C605.622 332.086 606.117 331.294 605.82 330.502Z" fill="#00C89C"/>
<path d="M605.227 329.313L605.82 330.502L605.029 330.7L605.227 329.313Z" fill="#00C89C"/>
<path d="M597.217 329.214L596.723 330.403L597.81 330.502L597.217 329.214Z" fill="#00C89C"/>
<path d="M601.271 331.69C603.511 331.69 605.326 330.759 605.326 329.61C605.326 328.462 603.511 327.53 601.271 327.53C599.032 327.53 597.217 328.462 597.217 329.61C597.217 330.759 599.032 331.69 601.271 331.69Z" fill="url(#paint43_linear)"/>
<path d="M605.722 330.403L605.821 330.601C605.821 330.502 605.722 330.403 605.722 330.403Z" fill="#00C89C"/>
<path d="M604.732 328.026L604.93 328.323C604.831 328.224 604.732 328.125 604.732 328.026Z" fill="#00C89C"/>
<path d="M598.7 327.332C600.084 326.639 602.458 326.639 603.842 327.332C604.238 327.53 604.534 327.828 604.732 328.026L601.271 320.301L597.81 328.125C597.908 327.828 598.205 327.53 598.7 327.332Z" fill="url(#paint44_linear)"/>
<path d="M597.611 328.323L597.71 328.125C597.71 328.125 597.611 328.224 597.611 328.323Z" fill="#00C89C"/>
<path d="M604.831 328.323L604.633 328.026C604.435 327.728 604.138 327.53 603.743 327.332C602.358 326.639 599.985 326.639 598.6 327.332C597.513 327.828 597.216 328.719 597.809 329.313C599.589 328.422 602.556 328.422 604.435 329.313C604.435 329.313 604.435 329.313 604.534 329.313C604.831 329.016 604.93 328.719 604.831 328.323Z" fill="url(#paint45_linear)"/>
<path d="M597.908 329.313C598.007 329.511 598.304 329.709 598.6 329.907C599.985 330.601 602.358 330.601 603.743 329.907C604.04 329.709 604.336 329.511 604.534 329.313C604.534 329.313 604.534 329.313 604.435 329.313C602.655 328.422 599.787 328.422 597.908 329.313Z" fill="url(#paint46_linear)"/>
<path d="M605.82 330.601L605.227 329.313C605.227 329.511 605.326 329.61 605.227 329.808C605.128 330.105 605.029 330.304 604.732 330.601C604.535 330.799 604.337 330.898 604.04 331.096C602.458 331.888 599.887 331.888 598.304 331.096C598.008 330.997 597.81 330.799 597.612 330.601C597.315 330.403 597.216 330.105 597.118 329.808C597.118 329.61 597.118 329.511 597.118 329.313L596.524 330.601C596.228 331.294 596.722 332.086 597.81 332.68C599.59 333.572 602.557 333.572 604.436 332.68C605.622 332.086 606.117 331.294 605.82 330.601Z" fill="url(#paint47_linear)"/>
<path d="M589.107 329.313C589.107 329.313 589.107 329.214 589.107 329.313L589.009 329.016C588.712 328.422 588.02 327.828 587.13 327.332C586.833 327.629 586.437 328.026 585.844 328.224C583.569 329.412 579.811 329.412 577.438 328.224C576.845 327.927 576.449 327.629 576.152 327.332C575.065 327.927 574.372 328.62 574.076 329.313C573.68 330.502 574.372 331.789 576.152 332.68C579.119 334.166 583.866 334.166 586.833 332.68C588.811 331.69 589.503 330.502 589.107 329.313Z" fill="#00C89C"/>
<path d="M588.217 327.233L589.107 329.214L587.821 329.61L588.217 327.233Z" fill="#00C89C"/>
<path d="M575.066 327.134L574.274 329.115L576.054 329.214L575.066 327.134Z" fill="#00C89C"/>
<path d="M581.69 331.096C585.35 331.096 588.316 329.588 588.316 327.728C588.316 325.869 585.35 324.361 581.69 324.361C578.031 324.361 575.064 325.869 575.064 327.728C575.064 329.588 578.031 331.096 581.69 331.096Z" fill="url(#paint48_linear)"/>
<path d="M589.008 329.016L589.107 329.313C589.107 329.115 589.008 329.115 589.008 329.016Z" fill="#00C89C"/>
<path d="M587.327 325.253L587.525 325.847C587.525 325.55 587.426 325.352 587.327 325.253Z" fill="#00C89C"/>
<path d="M577.438 324.064C579.713 322.876 583.471 322.876 585.844 324.064C586.537 324.361 587.031 324.856 587.328 325.252L581.691 312.674L575.955 325.451C576.252 324.856 576.746 324.361 577.438 324.064Z" fill="url(#paint49_linear)"/>
<path d="M575.757 325.649L575.955 325.253C575.856 325.451 575.856 325.55 575.757 325.649Z" fill="#00C89C"/>
<path d="M587.525 325.748L587.327 325.153C587.031 324.757 586.536 324.361 585.844 323.965C583.569 322.776 579.812 322.776 577.438 323.965C575.658 324.856 575.262 326.144 576.152 327.233C576.152 327.233 576.152 327.233 576.251 327.233C579.218 325.748 583.965 325.748 586.932 327.233H587.031C587.525 326.837 587.624 326.243 587.525 325.748Z" fill="url(#paint50_linear)"/>
<path d="M576.251 327.233C576.251 327.233 576.251 327.332 576.251 327.233C576.449 327.629 576.844 327.927 577.438 328.224C579.712 329.412 583.47 329.412 585.844 328.224C586.338 327.927 586.833 327.629 587.129 327.332H587.03C584.064 325.748 579.218 325.748 576.251 327.233Z" fill="url(#paint51_linear)"/>
<path d="M589.108 329.313L588.218 327.233C588.317 327.53 588.317 327.828 588.218 328.026C588.119 328.422 587.921 328.818 587.427 329.214C587.13 329.511 586.734 329.709 586.24 330.006C583.669 331.294 579.416 331.294 576.845 330.006C576.35 329.808 575.955 329.511 575.658 329.214C575.263 328.818 574.966 328.422 574.867 328.026C574.768 327.728 574.768 327.431 574.867 327.233L573.977 329.313C573.581 330.502 574.274 331.69 576.054 332.68C579.021 334.166 583.767 334.166 586.734 332.68C588.811 331.69 589.503 330.502 589.108 329.313Z" fill="url(#paint52_linear)"/>
<path opacity="0.87" d="M282.835 640L260.447 614.616L260.545 614.713L258.876 613.259L223.526 615.294L221.857 614.81C221.758 615.003 221.758 615.197 221.66 615.294C220.973 618.104 222.839 621.107 227.257 623.239C228.436 623.82 229.81 624.304 231.185 624.789C232.56 625.176 235.8 625.758 235.8 625.758L282.835 640Z" fill="url(#paint53_linear)"/>
<path opacity="0.87" d="M303.602 626.134L277.081 600.384V600.483L247.81 600.879L246.434 600.483C246.434 600.582 246.336 600.78 246.336 600.879C245.845 603.157 247.318 605.534 250.756 607.317C251.739 607.812 252.721 608.208 253.9 608.505C254.98 608.803 256.159 609.1 257.338 609.298H257.534L303.602 626.134Z" fill="url(#paint54_linear)"/>
<path d="M279.967 602.761C279.967 602.761 279.967 602.662 279.967 602.761L279.769 602.167C279.176 600.978 277.989 599.889 276.11 598.899C275.517 599.493 274.726 600.087 273.737 600.681C269.287 602.86 262.166 602.86 257.716 600.681C256.628 600.186 255.837 599.592 255.343 598.899C253.266 599.988 251.98 601.276 251.486 602.662C250.695 604.94 252.079 607.317 255.541 609.001C261.177 611.873 270.375 611.873 276.011 609.001C279.374 607.416 280.758 605.039 279.967 602.761Z" fill="#00C89C"/>
<path d="M278.186 598.8L279.966 602.662L277.494 603.355L278.186 598.8Z" fill="#00C89C"/>
<path d="M253.167 598.701L251.585 602.464L255.046 602.662L253.167 598.701Z" fill="#00C89C"/>
<path d="M265.726 606.128C272.717 606.128 278.384 603.291 278.384 599.79C278.384 596.289 272.717 593.451 265.726 593.451C258.735 593.451 253.067 596.289 253.067 599.79C253.067 603.291 258.735 606.128 265.726 606.128Z" fill="#00B287"/>
<path d="M279.769 602.167L279.966 602.662C279.867 602.464 279.769 602.365 279.769 602.167Z" fill="#00C89C"/>
<path d="M276.505 594.937L276.999 596.026C276.9 595.63 276.703 595.333 276.505 594.937Z" fill="#00C89C"/>
<path d="M257.717 592.659C262.167 590.48 269.287 590.48 273.737 592.659C275.023 593.352 275.913 594.046 276.506 594.937L265.727 570.771L254.849 595.135C255.343 594.244 256.332 593.451 257.717 592.659Z" fill="#00C89C"/>
<path d="M254.453 595.828L254.75 595.135C254.651 595.333 254.552 595.63 254.453 595.828Z" fill="#00C89C"/>
<path d="M277 596.026L276.505 594.937C276.011 594.145 275.022 593.352 273.736 592.659C269.286 590.48 262.166 590.48 257.716 592.659C254.353 594.343 253.562 596.819 255.342 598.899C255.342 598.899 255.441 598.899 255.441 598.8C261.078 595.927 270.275 595.927 275.912 598.8C276.011 598.8 276.011 598.899 276.11 598.899C276.901 598.007 277.198 597.017 277 596.026Z" fill="#00C89C"/>
<path d="M255.441 598.899C255.441 598.899 255.342 598.899 255.342 598.998C255.935 599.592 256.726 600.285 257.715 600.78C262.165 602.959 269.286 602.959 273.736 600.78C274.725 600.285 275.516 599.691 276.109 598.998C276.01 598.998 276.01 598.899 275.912 598.899C270.275 596.026 261.078 596.026 255.441 598.899Z" fill="#00C89C"/>
<path d="M261.671 615.438V615.339L261.374 614.646C260.583 613.061 258.902 611.477 256.43 610.189C255.638 611.08 254.551 611.873 253.166 612.566C247.134 615.636 237.343 615.636 231.311 612.566C229.926 611.873 228.838 611.08 228.047 610.189C225.179 611.675 223.399 613.457 222.707 615.339C221.619 618.409 223.498 621.678 228.245 624.055C235.959 627.917 248.518 627.917 256.232 624.055C260.979 621.777 262.759 618.508 261.671 615.438Z" fill="#00C89C"/>
<path d="M259.298 609.991L261.671 615.24L258.309 616.131L259.298 609.991Z" fill="#00C89C"/>
<path d="M225.081 609.793L222.905 614.943L227.553 615.24L225.081 609.793Z" fill="#00C89C"/>
<path d="M242.188 619.994C251.746 619.994 259.494 616.092 259.494 611.279C259.494 606.465 251.746 602.563 242.188 602.563C232.63 602.563 224.882 606.465 224.882 611.279C224.882 616.092 232.63 619.994 242.188 619.994Z" fill="#00B287"/>
<path d="M261.374 614.646L261.671 615.339C261.572 615.042 261.473 614.844 261.374 614.646Z" fill="#00C89C"/>
<path d="M261.671 615.438L261.572 615.339C261.671 615.339 261.671 615.339 261.671 615.438Z" fill="#00C89C"/>
<path d="M256.925 604.742L257.518 606.128C257.419 605.633 257.221 605.138 256.925 604.742Z" fill="#00C89C"/>
<path d="M231.31 601.672C237.343 598.601 247.133 598.601 253.166 601.672C254.946 602.563 256.232 603.652 256.924 604.742L242.189 571.762L227.256 605.039C227.948 603.752 229.333 602.662 231.31 601.672Z" fill="#00C89C"/>
<path d="M226.86 605.93L227.256 605.039C227.058 605.336 226.959 605.633 226.86 605.93Z" fill="#00C89C"/>
<path d="M257.616 606.128L257.023 604.742C256.331 603.652 255.045 602.563 253.265 601.672C247.232 598.601 237.442 598.601 231.41 601.672C226.762 603.95 225.674 607.416 228.146 610.189C228.245 610.189 228.245 610.09 228.344 610.09C236.058 606.228 248.617 606.228 256.331 610.09C256.43 610.09 256.43 610.189 256.528 610.189C257.517 608.902 257.913 607.515 257.616 606.128Z" fill="#00C89C"/>
<path d="M228.246 610.09C228.147 610.09 228.147 610.189 228.048 610.189C228.839 611.081 229.927 611.873 231.311 612.566C237.344 615.636 247.134 615.636 253.167 612.566C254.551 611.873 255.639 611.081 256.43 610.189C256.331 610.189 256.331 610.09 256.232 610.09C248.519 606.228 235.959 606.228 228.246 610.09Z" fill="#00C89C"/>
<path d="M303.899 500.651L283.428 512.833L284.12 513.329L304.591 501.147L303.899 500.651Z" fill="white"/>
<path d="M297.866 497.086L277.396 509.367L278.088 509.763L298.559 497.581L297.866 497.086Z" fill="white"/>
<path d="M291.932 493.62L271.362 505.801L272.055 506.297L292.525 494.016L291.932 493.62Z" fill="white"/>
<path d="M285.9 490.054L265.33 502.236L266.022 502.731L286.493 490.549L285.9 490.054Z" fill="white"/>
<path d="M321.948 513.209L300.982 524.968C300.686 525.163 300.389 525.163 300.092 524.968L287.236 517.776C286.643 517.388 286.643 516.61 287.236 516.221L308.201 504.462C308.498 504.267 308.795 504.267 309.091 504.462L321.948 511.654C322.541 511.945 322.541 512.82 321.948 513.209Z" fill="white"/>
<defs>
<linearGradient id="paint0_linear" x1="107.352" y1="482.143" x2="186.362" y2="658.345" gradientUnits="userSpaceOnUse">
<stop offset="0.0966183" stop-color="#6F89D1"/>
<stop offset="1" stop-color="white"/>
</linearGradient>
<linearGradient id="paint1_linear" x1="39.4159" y1="355.978" x2="218.614" y2="652.641" gradientUnits="userSpaceOnUse">
<stop offset="0.0966183" stop-color="#6F89D1"/>
<stop offset="0.733" stop-color="#D5DCF1"/>
<stop offset="1" stop-color="white"/>
</linearGradient>
<linearGradient id="paint2_linear" x1="530.629" y1="540.375" x2="407.026" y2="318.732" gradientUnits="userSpaceOnUse">
<stop stop-color="white"/>
<stop offset="0.9034" stop-color="#6F89D1"/>
</linearGradient>
<linearGradient id="paint3_linear" x1="704.225" y1="372.03" x2="623.125" y2="226.301" gradientUnits="userSpaceOnUse">
<stop stop-color="white"/>
<stop offset="0.9034" stop-color="#6F89D1"/>
</linearGradient>
<linearGradient id="paint4_linear" x1="138.656" y1="-807.23" x2="-189.065" y2="-681.52" gradientUnits="userSpaceOnUse">
<stop offset="0.0966183" stop-color="#6F89D1"/>
<stop offset="1" stop-color="white"/>
</linearGradient>
<linearGradient id="paint5_linear" x1="166.948" y1="-713.267" x2="-90.3212" y2="-631.867" gradientUnits="userSpaceOnUse">
<stop offset="0.0966183" stop-color="#6F89D1"/>
<stop offset="1" stop-color="white"/>
</linearGradient>
<linearGradient id="paint6_linear" x1="189.292" y1="-712.028" x2="-67.9772" y2="-630.629" gradientUnits="userSpaceOnUse">
<stop offset="0.0966183" stop-color="#6F89D1"/>
<stop offset="1" stop-color="white"/>
</linearGradient>
<linearGradient id="paint7_linear" x1="215.489" y1="-670.363" x2="3.10141" y2="-614.191" gradientUnits="userSpaceOnUse">
<stop offset="0.0966183" stop-color="#6F89D1"/>
<stop offset="1" stop-color="white"/>
</linearGradient>
<linearGradient id="paint8_linear" x1="242.861" y1="-576.86" x2="93.2075" y2="-546.932" gradientUnits="userSpaceOnUse">
<stop offset="0.0966183" stop-color="#6F89D1"/>
<stop offset="1" stop-color="white"/>
</linearGradient>
<linearGradient id="paint9_linear" x1="263.794" y1="-644.686" x2="92.3445" y2="-608.223" gradientUnits="userSpaceOnUse">
<stop offset="0.0966183" stop-color="#6F89D1"/>
<stop offset="1" stop-color="white"/>
</linearGradient>
<linearGradient id="paint10_linear" x1="280.651" y1="-807.933" x2="34.8509" y2="-742.923" gradientUnits="userSpaceOnUse">
<stop offset="0.0966183" stop-color="#6F89D1"/>
<stop offset="1" stop-color="white"/>
</linearGradient>
<linearGradient id="paint11_linear" x1="299.913" y1="-858.891" x2="16.4568" y2="-775.036" gradientUnits="userSpaceOnUse">
<stop offset="0.0966183" stop-color="#6F89D1"/>
<stop offset="1" stop-color="white"/>
</linearGradient>
<linearGradient id="paint12_linear" x1="326.958" y1="-650.271" x2="113.151" y2="-592.177" gradientUnits="userSpaceOnUse">
<stop offset="0.0966183" stop-color="#6F89D1"/>
<stop offset="1" stop-color="white"/>
</linearGradient>
<linearGradient id="paint13_linear" x1="353.259" y1="-590.884" x2="187.371" y2="-554.566" gradientUnits="userSpaceOnUse">
<stop offset="0.0966183" stop-color="#6F89D1"/>
<stop offset="1" stop-color="white"/>
</linearGradient>
<linearGradient id="paint14_linear" x1="379.246" y1="-614.532" x2="249.238" y2="-593.644" gradientUnits="userSpaceOnUse">
<stop offset="0.0966183" stop-color="#6F89D1"/>
<stop offset="1" stop-color="white"/>
</linearGradient>
<linearGradient id="paint15_linear" x1="404.155" y1="-564.492" x2="305.29" y2="-552.01" gradientUnits="userSpaceOnUse">
<stop offset="0.0966183" stop-color="#6F89D1"/>
<stop offset="1" stop-color="white"/>
</linearGradient>
<linearGradient id="paint16_linear" x1="427.466" y1="-476.697" x2="347.503" y2="-467.646" gradientUnits="userSpaceOnUse">
<stop offset="0.0966183" stop-color="#6F89D1"/>
<stop offset="1" stop-color="white"/>
</linearGradient>
<linearGradient id="paint17_linear" x1="449.664" y1="-559.636" x2="359.186" y2="-549.262" gradientUnits="userSpaceOnUse">
<stop offset="0.0966183" stop-color="#6F89D1"/>
<stop offset="1" stop-color="white"/>
</linearGradient>
<linearGradient id="paint18_linear" x1="471.591" y1="-623.04" x2="370.077" y2="-610.906" gradientUnits="userSpaceOnUse">
<stop offset="0.0966183" stop-color="#6F89D1"/>
<stop offset="1" stop-color="white"/>
</linearGradient>
<linearGradient id="paint19_linear" x1="493.323" y1="-565.842" x2="397.965" y2="-554.34" gradientUnits="userSpaceOnUse">
<stop offset="0.0966183" stop-color="#6F89D1"/>
<stop offset="1" stop-color="white"/>
</linearGradient>
<linearGradient id="paint20_linear" x1="517.953" y1="-478.26" x2="448.267" y2="-471.577" gradientUnits="userSpaceOnUse">
<stop offset="0.0966183" stop-color="#6F89D1"/>
<stop offset="1" stop-color="white"/>
</linearGradient>
<linearGradient id="paint21_linear" x1="541.4" y1="-468.084" x2="483.836" y2="-463.601" gradientUnits="userSpaceOnUse">
<stop offset="0.0966183" stop-color="#6F89D1"/>
<stop offset="1" stop-color="white"/>
</linearGradient>
<linearGradient id="paint22_linear" x1="111.382" y1="-661.781" x2="-227.07" y2="-490.637" gradientUnits="userSpaceOnUse">
<stop offset="0.0966183" stop-color="#6F89D1"/>
<stop offset="1" stop-color="white"/>
</linearGradient>
<linearGradient id="paint23_linear" x1="588.033" y1="340.242" x2="445.654" y2="343.502" gradientUnits="userSpaceOnUse">
<stop stop-color="white"/>
<stop offset="0.267" stop-color="#D5DCF1"/>
<stop offset="0.9034" stop-color="#6F89D1"/>
</linearGradient>
<linearGradient id="paint24_linear" x1="587.979" y1="330.824" x2="445.6" y2="334.084" gradientUnits="userSpaceOnUse">
<stop stop-color="white"/>
<stop offset="0.267" stop-color="#D5DCF1"/>
<stop offset="0.9034" stop-color="#6F89D1"/>
</linearGradient>
<linearGradient id="paint25_linear" x1="587.928" y1="321.92" x2="445.549" y2="325.179" gradientUnits="userSpaceOnUse">
<stop stop-color="white"/>
<stop offset="0.267" stop-color="#D5DCF1"/>
<stop offset="0.9034" stop-color="#6F89D1"/>
</linearGradient>
<linearGradient id="paint26_linear" x1="517.762" y1="245.26" x2="573.454" y2="245.26" gradientUnits="userSpaceOnUse">
<stop stop-color="white"/>
<stop offset="0.267" stop-color="#D5DCF1"/>
<stop offset="0.9034" stop-color="#6F89D1"/>
</linearGradient>
<linearGradient id="paint27_linear" x1="428.486" y1="213.919" x2="435.948" y2="353.737" gradientUnits="userSpaceOnUse">
<stop stop-color="white"/>
<stop offset="0.267" stop-color="#D5DCF1"/>
<stop offset="0.9034" stop-color="#6F89D1"/>
</linearGradient>
<linearGradient id="paint28_linear" x1="512.139" y1="211.548" x2="543.606" y2="211.548" gradientUnits="userSpaceOnUse">
<stop stop-color="white"/>
<stop offset="0.267" stop-color="#D5DCF1"/>
<stop offset="0.9034" stop-color="#6F89D1"/>
</linearGradient>
<linearGradient id="paint29_linear" x1="537.45" y1="179.679" x2="537.45" y2="219.273" gradientUnits="userSpaceOnUse">
<stop stop-color="white"/>
<stop offset="0.267" stop-color="#D5DCF1"/>
<stop offset="0.9034" stop-color="#6F89D1"/>
</linearGradient>
<linearGradient id="paint30_linear" x1="412.915" y1="549.437" x2="374.183" y2="456.472" gradientUnits="userSpaceOnUse">
<stop offset="0.0966183" stop-color="#6F89D1"/>
<stop offset="0.1545" stop-color="#849AD7"/>
<stop offset="0.2693" stop-color="#A7B6E3"/>
<stop offset="0.3775" stop-color="#C0CBEA"/>
<stop offset="0.4754" stop-color="#D0D8EF"/>
<stop offset="0.5537" stop-color="#D5DCF1"/>
<stop offset="0.815" stop-color="white"/>
</linearGradient>
<linearGradient id="paint31_linear" x1="407.834" y1="537.508" x2="369.075" y2="444.682" gradientUnits="userSpaceOnUse">
<stop offset="0.0966183" stop-color="#6F89D1"/>
<stop offset="0.1545" stop-color="#849AD7"/>
<stop offset="0.2693" stop-color="#A7B6E3"/>
<stop offset="0.3775" stop-color="#C0CBEA"/>
<stop offset="0.4754" stop-color="#D0D8EF"/>
<stop offset="0.5537" stop-color="#D5DCF1"/>
<stop offset="0.815" stop-color="white"/>
</linearGradient>
<linearGradient id="paint32_linear" x1="418.884" y1="536.829" x2="380.203" y2="443.972" gradientUnits="userSpaceOnUse">
<stop offset="0.435" stop-color="#D5DCF1"/>
<stop offset="0.9624" stop-color="white"/>
</linearGradient>
<linearGradient id="paint33_linear" x1="407.857" y1="421.066" x2="407.857" y2="131.533" gradientUnits="userSpaceOnUse">
<stop offset="0.2377" stop-color="#87F4D4"/>
<stop offset="0.984" stop-color="#00AE8A"/>
</linearGradient>
<linearGradient id="paint34_linear" x1="197.156" y1="283.74" x2="222.956" y2="351.904" gradientUnits="userSpaceOnUse">
<stop stop-color="#FFA49B"/>
<stop offset="0.8392" stop-color="#FF4453"/>
</linearGradient>
<linearGradient id="paint35_linear" x1="357.264" y1="465.598" x2="357.264" y2="145.419" gradientUnits="userSpaceOnUse">
<stop stop-color="#FFA49B"/>
<stop offset="0.9248" stop-color="#E32537"/>
</linearGradient>
<linearGradient id="paint36_linear" x1="465.228" y1="247.633" x2="465.228" y2="522.591" gradientUnits="userSpaceOnUse">
<stop offset="0.1063" stop-color="#7BA1FF"/>
<stop offset="0.7699" stop-color="#CCECFA"/>
</linearGradient>
<linearGradient id="paint37_linear" x1="503.406" y1="302.786" x2="410.388" y2="266.03" gradientUnits="userSpaceOnUse">
<stop offset="0.0966183" stop-color="#6F89D1"/>
<stop offset="0.1455" stop-color="#849AD7"/>
<stop offset="0.2426" stop-color="#A7B6E3"/>
<stop offset="0.3341" stop-color="#C0CBEA"/>
<stop offset="0.4168" stop-color="#D0D8EF"/>
<stop offset="0.483" stop-color="#D5DCF1"/>
<stop offset="0.5025" stop-color="#DEE3F4"/>
<stop offset="0.5448" stop-color="#E9ECF7"/>
<stop offset="0.6044" stop-color="#F0F2F9"/>
<stop offset="0.7699" stop-color="#F2F3FA"/>
</linearGradient>
<linearGradient id="paint38_linear" x1="502.242" y1="303.543" x2="409.224" y2="266.788" gradientUnits="userSpaceOnUse">
<stop offset="0.0966183" stop-color="#6F89D1"/>
<stop offset="0.1455" stop-color="#849AD7"/>
<stop offset="0.2426" stop-color="#A7B6E3"/>
<stop offset="0.3341" stop-color="#C0CBEA"/>
<stop offset="0.4168" stop-color="#D0D8EF"/>
<stop offset="0.483" stop-color="#D5DCF1"/>
<stop offset="0.5025" stop-color="#DEE3F4"/>
<stop offset="0.5448" stop-color="#E9ECF7"/>
<stop offset="0.6044" stop-color="#F0F2F9"/>
<stop offset="0.7699" stop-color="#F2F3FA"/>
</linearGradient>
<linearGradient id="paint39_linear" x1="432.484" y1="321.1" x2="353.044" y2="296.926" gradientUnits="userSpaceOnUse">
<stop offset="0.0966183" stop-color="#6F89D1"/>
<stop offset="0.1455" stop-color="#849AD7"/>
<stop offset="0.2426" stop-color="#A7B6E3"/>
<stop offset="0.3341" stop-color="#C0CBEA"/>
<stop offset="0.4168" stop-color="#D0D8EF"/>
<stop offset="0.483" stop-color="#D5DCF1"/>
<stop offset="0.5025" stop-color="#DEE3F4"/>
<stop offset="0.5448" stop-color="#E9ECF7"/>
<stop offset="0.6044" stop-color="#F0F2F9"/>
<stop offset="0.7699" stop-color="#F2F3FA"/>
</linearGradient>
<linearGradient id="paint40_linear" x1="436.053" y1="333.413" x2="356.613" y2="309.239" gradientUnits="userSpaceOnUse">
<stop offset="0.0966183" stop-color="#6F89D1"/>
<stop offset="0.1274" stop-color="#849AD7"/>
<stop offset="0.1886" stop-color="#A7B6E3"/>
<stop offset="0.2462" stop-color="#C0CBEA"/>
<stop offset="0.2983" stop-color="#D0D8EF"/>
<stop offset="0.34" stop-color="#D5DCF1"/>
<stop offset="0.3693" stop-color="#DEE3F4"/>
<stop offset="0.4327" stop-color="#E9ECF7"/>
<stop offset="0.5219" stop-color="#F0F2F9"/>
<stop offset="0.7699" stop-color="#F2F3FA"/>
</linearGradient>
<linearGradient id="paint41_linear" x1="574.66" y1="339.925" x2="597.334" y2="339.925" gradientUnits="userSpaceOnUse">
<stop offset="0.0966183" stop-color="#6F89D1"/>
<stop offset="0.733" stop-color="#D5DCF1"/>
<stop offset="1" stop-color="white"/>
</linearGradient>
<linearGradient id="paint42_linear" x1="597.365" y1="337.88" x2="612.161" y2="337.88" gradientUnits="userSpaceOnUse">
<stop offset="0.0966183" stop-color="#6F89D1"/>
<stop offset="0.733" stop-color="#D5DCF1"/>
<stop offset="1" stop-color="white"/>
</linearGradient>
<linearGradient id="paint43_linear" x1="593.029" y1="338.222" x2="602.318" y2="326.794" gradientUnits="userSpaceOnUse">
<stop stop-color="white"/>
<stop offset="0.267" stop-color="#D5DCF1"/>
<stop offset="0.9034" stop-color="#6F89D1"/>
</linearGradient>
<linearGradient id="paint44_linear" x1="597.706" y1="328.128" x2="604.695" y2="328.128" gradientUnits="userSpaceOnUse">
<stop stop-color="white"/>
<stop offset="0.267" stop-color="#D5DCF1"/>
<stop offset="0.9034" stop-color="#6F89D1"/>
</linearGradient>
<linearGradient id="paint45_linear" x1="597.589" y1="329.288" x2="604.874" y2="329.288" gradientUnits="userSpaceOnUse">
<stop stop-color="white"/>
<stop offset="0.267" stop-color="#D5DCF1"/>
<stop offset="0.9034" stop-color="#6F89D1"/>
</linearGradient>
<linearGradient id="paint46_linear" x1="597.887" y1="330.419" x2="604.574" y2="330.419" gradientUnits="userSpaceOnUse">
<stop stop-color="white"/>
<stop offset="0.267" stop-color="#D5DCF1"/>
<stop offset="0.9034" stop-color="#6F89D1"/>
</linearGradient>
<linearGradient id="paint47_linear" x1="596.57" y1="333.278" x2="605.888" y2="333.278" gradientUnits="userSpaceOnUse">
<stop stop-color="white"/>
<stop offset="0.267" stop-color="#D5DCF1"/>
<stop offset="0.9034" stop-color="#6F89D1"/>
</linearGradient>
<linearGradient id="paint48_linear" x1="568.411" y1="341.692" x2="583.243" y2="323.104" gradientUnits="userSpaceOnUse">
<stop stop-color="white"/>
<stop offset="0.267" stop-color="#D5DCF1"/>
<stop offset="0.9034" stop-color="#6F89D1"/>
</linearGradient>
<linearGradient id="paint49_linear" x1="575.93" y1="325.321" x2="587.283" y2="325.321" gradientUnits="userSpaceOnUse">
<stop stop-color="white"/>
<stop offset="0.267" stop-color="#D5DCF1"/>
<stop offset="0.9034" stop-color="#6F89D1"/>
</linearGradient>
<linearGradient id="paint50_linear" x1="575.741" y1="327.308" x2="587.574" y2="327.308" gradientUnits="userSpaceOnUse">
<stop stop-color="white"/>
<stop offset="0.267" stop-color="#D5DCF1"/>
<stop offset="0.9034" stop-color="#6F89D1"/>
</linearGradient>
<linearGradient id="paint51_linear" x1="576.224" y1="329.11" x2="587.086" y2="329.11" gradientUnits="userSpaceOnUse">
<stop stop-color="white"/>
<stop offset="0.267" stop-color="#D5DCF1"/>
<stop offset="0.9034" stop-color="#6F89D1"/>
</linearGradient>
<linearGradient id="paint52_linear" x1="574.085" y1="333.734" x2="589.221" y2="333.734" gradientUnits="userSpaceOnUse">
<stop stop-color="white"/>
<stop offset="0.267" stop-color="#D5DCF1"/>
<stop offset="0.9034" stop-color="#6F89D1"/>
</linearGradient>
<linearGradient id="paint53_linear" x1="221.502" y1="640.005" x2="282.842" y2="640.005" gradientUnits="userSpaceOnUse">
<stop offset="0.0966183" stop-color="#1F47B7"/>
<stop offset="0.8497" stop-color="#1F47B7" stop-opacity="0.01"/>
</linearGradient>
<linearGradient id="paint54_linear" x1="246.322" y1="626.12" x2="303.644" y2="626.12" gradientUnits="userSpaceOnUse">
<stop offset="0.0966183" stop-color="#1F47B7"/>
<stop offset="0.8497" stop-color="#1F47B7" stop-opacity="0.01"/>
</linearGradient>
</defs>
</svg>
