<svg width="227" height="30" viewBox="0 0 227 30" fill="none" xmlns="http://www.w3.org/2000/svg">
<path fill-rule="evenodd" clip-rule="evenodd" d="M1.29172 8.89952C2.41814 6.17225 5.37499 4.88038 8.19104 4.88038C9.03585 4.88038 11.0071 5.02392 13.2599 6.02871L13.1191 9.76077C12.9783 9.689 12.8727 9.61723 12.7671 9.54546C12.6615 9.47369 12.5559 9.40191 12.4151 9.33014C12.3875 9.32077 12.3551 9.30956 12.3183 9.2968L12.3172 9.29642L12.3168 9.2963C11.7878 9.11316 10.3414 8.61244 8.89505 8.61244C8.47264 8.61244 6.64221 8.61244 5.7974 10.0478C5.37499 10.7656 5.37499 11.3397 5.37499 11.6268C5.37499 12.6316 5.7974 13.4928 6.50141 14.067C7.06462 14.4976 7.48703 14.7847 8.61345 15.3589L10.3031 16.2201L10.6101 16.4154C11.5595 17.0189 12.1733 17.409 12.5559 17.799C13.2599 18.5167 14.5271 20.2392 14.5271 22.823C14.5271 23.3971 14.3863 24.5455 13.8231 25.9809C13.1191 27.7033 11.2887 30 6.78302 30C5.6566 30 3.68536 29.8565 1.15092 28.8517L1.43253 24.8325C1.50293 24.9043 1.60853 24.9402 1.71413 24.9761C1.81973 25.012 1.92534 25.0478 1.99574 25.1196C2.55895 25.4067 4.24857 26.2679 6.36061 26.2679C7.06462 26.2679 7.48703 26.2679 7.76863 26.1244C9.17665 25.6938 10.0215 24.4019 10.0215 22.9665C10.0215 22.823 10.0215 21.9617 9.59906 21.3876C9.03585 20.3828 8.05024 19.8086 6.92382 19.2344C6.53285 19.0234 6.17944 18.8354 5.85746 18.6641L5.85744 18.6641C4.20819 17.7866 3.38357 17.3478 2.55895 16.5072C1.85493 15.7895 0.728516 14.2105 0.728516 11.6268C0.728516 11.1962 0.869318 10.0478 1.29172 8.89952ZM216.156 -0.00028801C210.665 -0.00028801 206.159 4.59301 206.159 10.1911C206.159 15.7892 210.665 20.3825 216.156 20.3825C221.647 20.3825 226.153 15.7892 226.153 10.1911C226.153 4.44947 221.788 -0.00028801 216.156 -0.00028801ZM216.156 0.717968C221.225 0.717968 225.308 4.88065 225.308 10.0481C225.308 15.2156 221.225 19.3783 216.156 19.3783C211.087 19.3783 207.004 15.2156 207.004 10.0481C207.145 4.88065 211.228 0.717968 216.156 0.717968ZM216.86 4.88052C216.719 5.02406 216.86 5.31114 216.86 5.31114C216.719 5.45468 216.297 5.45468 216.297 5.45468C216.297 5.59822 216.719 5.8853 216.719 5.8853C216.719 5.94345 216.65 6.02517 216.577 6.11135C216.47 6.23789 216.354 6.37408 216.438 6.45947C216.438 6.55955 216.643 6.52007 216.815 6.48699C216.89 6.47263 216.958 6.45947 217.001 6.45947C217.071 6.53124 217.071 6.63889 217.071 6.72861C217.071 6.81832 217.071 6.89009 217.142 6.89009C217.212 6.89009 217.318 6.78243 217.441 6.65683C217.564 6.53123 217.705 6.3877 217.846 6.31593C218.128 6.17239 218.268 6.31593 218.409 6.60301C218.691 7.17717 218.268 7.60779 217.142 8.18196C216.875 8.29877 216.669 8.39446 216.509 8.46903C216.08 8.66933 215.977 8.71718 215.875 8.61258C215.781 8.61258 215.687 8.48498 215.593 8.35739C215.546 8.29359 215.499 8.2298 215.452 8.18196C215.452 8.14165 215.463 8.07872 215.476 8.00586C215.509 7.81923 215.554 7.56749 215.452 7.46425C215.311 7.32071 215.03 7.03363 214.889 6.74655C214.839 6.64539 214.807 6.50859 214.774 6.36755C214.713 6.10831 214.649 5.83473 214.467 5.74176C214.396 5.74176 214.326 5.84941 214.255 5.95707C214.185 6.06472 214.115 6.17239 214.044 6.17239C213.974 6.17239 213.868 6.10062 213.763 6.02884C213.657 5.95707 213.551 5.8853 213.481 5.8853C213.34 6.02884 213.622 6.45947 213.622 6.45947C213.551 6.53124 213.411 6.53124 213.287 6.53124C213.164 6.53124 213.059 6.53124 213.059 6.60301C213.059 6.67478 213.164 6.78243 213.252 6.87214C213.34 6.96186 213.411 7.03363 213.34 7.03363C213.34 7.1054 213.235 7.17717 213.129 7.24894C213.023 7.32071 212.918 7.39248 212.918 7.46425C212.918 7.55296 213.079 7.53202 213.302 7.50308C213.44 7.48519 213.601 7.46425 213.763 7.46425C214.044 7.46425 214.185 7.60779 214.326 7.75133C214.467 8.03841 213.903 9.18674 213.481 9.18674C212.918 9.33028 212.636 8.61258 212.495 8.18196C212.435 8.12044 212.401 7.92709 212.359 7.69231C212.303 7.37929 212.234 6.99261 212.073 6.74655C211.369 5.59822 209.961 4.73698 209.539 5.02406C208.975 5.45468 208.835 7.60779 209.116 8.32549C209.382 8.86766 209.704 9.18229 209.976 9.44844C210.136 9.60507 210.279 9.74491 210.383 9.90444C211.087 11.1963 211.791 11.7705 212.495 12.2011C212.798 12.4066 212.884 12.465 212.96 12.5342C212.99 12.5614 213.018 12.5902 213.057 12.6302L213.058 12.6314L213.059 12.6317C213.146 12.7204 213.179 12.8092 213.225 12.9318C213.253 13.0075 213.286 13.0962 213.34 13.2059C213.481 13.493 213.34 13.78 213.199 13.78C213.059 13.9236 212.636 13.9236 212.355 13.6365C212.302 13.5831 212.23 13.4699 212.153 13.349C212.024 13.145 211.88 12.9188 211.791 12.9188C211.715 12.9188 211.68 13.045 211.642 13.1835C211.609 13.3009 211.574 13.4271 211.51 13.493C211.369 13.493 210.947 13.3494 210.947 13.3494C210.863 13.4348 210.978 13.571 211.086 13.6975C211.159 13.7837 211.228 13.8654 211.228 13.9236C211.228 13.9954 211.123 14.0671 211.017 14.1389C210.911 14.2107 210.806 14.2824 210.806 14.3542C210.806 14.4319 210.93 14.4676 211.065 14.5067C211.181 14.5398 211.304 14.5755 211.369 14.6413C211.439 14.7131 211.404 14.8207 211.369 14.9284C211.334 15.036 211.299 15.1437 211.369 15.2154C211.51 15.359 211.791 15.0719 211.932 14.9284C212.355 14.6413 213.34 14.7848 213.622 14.9284C213.763 14.9284 214.044 14.9284 214.044 14.7848C214.234 14.4942 214.36 13.9422 214.465 13.4816C214.516 13.2596 214.562 13.0588 214.607 12.9188C214.7 12.7307 214.732 12.6658 214.782 12.6435C214.809 12.6317 214.841 12.6317 214.889 12.6317C216.704 12.3233 217.869 11.6468 218.488 11.2876C218.733 11.1453 218.892 11.0528 218.972 11.0528C219.017 11.0528 219.047 11.0528 219.077 11.0573C219.141 11.0672 219.202 11.0982 219.395 11.1962L219.395 11.1963L219.817 11.6269C219.817 11.6269 220.24 12.0576 219.817 12.2011C219.578 12.2823 219.339 12.2257 219.177 12.1872C219.052 12.1576 218.972 12.1388 218.972 12.2011C218.891 12.2836 218.996 12.4135 219.074 12.509C219.131 12.5798 219.173 12.6317 219.113 12.6317C219.113 12.7094 218.989 12.7451 218.853 12.7842C218.738 12.8173 218.614 12.853 218.55 12.9188C218.55 13.0623 218.972 13.2059 219.113 13.2059C219.113 13.2633 219.068 13.3666 219.023 13.47C218.955 13.625 218.888 13.78 218.972 13.78C219.113 13.9236 219.536 13.6365 219.536 13.6365C219.597 13.6994 219.632 13.79 219.663 13.8718C219.703 13.9766 219.738 14.0671 219.817 14.0671C219.881 14.0671 219.916 13.9773 219.976 13.825C220.046 13.6438 220.151 13.3742 220.38 13.0623C220.521 12.9188 220.803 12.6317 221.084 12.4882C221.225 12.3446 221.225 12.2011 221.225 11.7705C221.192 11.6688 221.151 11.5512 221.107 11.427C220.967 11.025 220.803 10.5544 220.803 10.3351C220.803 10.048 220.944 9.7609 221.366 9.7609C221.788 9.61736 222.492 9.7609 222.915 10.6221C223.337 11.4834 223.056 12.4882 222.633 13.2059C222.311 13.8621 221.898 14.5183 221.602 14.987C221.38 15.3385 221.225 15.5846 221.225 15.6461C221.084 15.7896 221.225 15.9332 221.366 15.7896C221.376 15.7798 221.404 15.7551 221.449 15.7167C222.06 15.1939 225.654 12.1186 224.604 9.0432C224.041 7.17717 222.633 6.60301 221.507 6.60301C220.869 6.49457 220.391 6.6319 220.135 6.70554C220.052 6.72938 219.992 6.74655 219.958 6.74655C219.817 6.89009 219.676 6.60301 219.676 6.60301C219.536 6.02884 219.395 5.74176 219.113 5.45468C218.972 5.31114 218.832 5.31114 218.55 5.31114C218.389 5.31114 218.268 5.33208 218.166 5.34997C217.999 5.37891 217.879 5.39985 217.705 5.31114C217.283 5.31114 216.86 4.88052 216.86 4.88052ZM152.654 5.16731H153.78C153.976 5.16731 154.172 5.19823 154.382 5.23137C154.625 5.26963 154.886 5.31086 155.188 5.31086C156.174 5.31086 159.271 5.59794 161.665 7.89459C163.214 9.32999 164.904 12.3443 164.904 17.3683C164.904 18.086 164.904 19.8085 164.34 21.6745C163.073 26.4113 159.835 28.2774 158.004 28.8515C156.737 29.4257 155.329 29.5692 152.513 29.5692H147.303V5.16731H152.654ZM23.5386 5.31108L15.5129 29.713H19.737L21.5674 23.8278H29.7339L31.2828 29.713H35.7884L28.0443 5.31108H23.5386ZM39.0269 29.713V5.31108H43.3918V26.1245H49.7279V29.713L39.0269 29.713ZM59.1609 5.31108L51.1352 29.713H55.3593L57.1897 23.8278H65.3562L67.0458 29.713H71.5515L63.8074 5.31108H59.1609ZM74.6497 29.713V5.31108H80.7042L86.0547 23.5408L91.546 5.31108H97.8821V29.713H93.7988L94.0804 9.33022L87.7443 29.713H84.6467L78.4514 9.33022L78.733 29.713H74.6497ZM109.006 5.31108L100.98 29.713L105.204 29.713L107.035 23.8278H115.201L116.891 29.713H121.396L113.652 5.31108H109.006ZM124.493 29.713V5.31108H129.844L137.87 24.5455L137.447 5.31108H141.531V29.713H136.18L128.295 10.4785L128.577 29.713H124.493ZM168.706 5.31108V29.713H181.378V26.1245H172.93V18.8039H180.533V15.2154H172.93V8.61252H180.956V5.16755L168.706 5.31108ZM185.601 29.713V5.31108L192.36 5.16755C194.331 5.16755 196.021 5.16755 197.71 6.31587C198.555 7.03357 200.245 8.61252 200.245 11.4833C200.245 12.4881 200.104 15.5025 197.429 16.9379C197.147 17.0814 196.584 17.3685 195.739 17.512V17.6556C196.021 17.6556 196.302 17.7991 196.725 18.0862C197.648 18.7583 198.077 19.9341 198.475 21.0238L198.514 21.133L198.555 21.2441L201.371 29.713H196.725L194.472 22.536C194.331 22.249 194.19 21.8185 194.05 21.3881L194.049 21.3876C193.486 19.6652 192.36 19.2345 190.67 19.2345H189.966V29.713L185.601 29.713ZM210.805 6.74663C211.087 6.74663 211.369 7.17725 211.65 7.60787C211.932 8.18204 211.932 8.7562 211.509 8.89974C211.369 8.89974 211.087 8.46912 210.946 8.0385C210.665 7.60787 210.524 7.03371 210.524 6.89017C210.605 6.80736 210.639 6.77232 210.681 6.7575C210.711 6.74663 210.746 6.74663 210.805 6.74663ZM210.383 8.03855C210.242 7.60793 209.96 7.17731 209.82 7.17731C209.538 7.17731 209.538 7.89501 209.82 8.32563C209.96 8.8998 210.524 9.47396 210.805 9.18688C210.805 9.10627 210.717 8.88986 210.614 8.63933C210.533 8.44374 210.445 8.22735 210.383 8.03855ZM220.661 7.46412C221.128 7.46412 221.498 7.56264 221.931 7.67805L221.931 7.67815L222.02 7.70164C222.082 7.71801 222.145 7.73461 222.21 7.75121H222.351C222.492 7.89475 222.492 8.03829 222.492 8.18183L222.492 8.18191L222.491 8.18199C222.41 8.26468 222.376 8.29968 222.334 8.3145C222.304 8.32537 222.27 8.32537 222.21 8.32537H222.069C221.365 8.18183 220.52 8.18183 219.816 8.46891H219.676C219.57 8.57656 219.464 8.442 219.359 8.30743C219.324 8.26257 219.288 8.21771 219.253 8.18183C219.112 8.03829 219.394 7.75121 219.676 7.60767H219.816C220.098 7.46412 220.38 7.46412 220.661 7.46412ZM218.69 8.25367C218.584 8.21778 218.479 8.1819 218.408 8.1819C218.338 8.1819 218.303 8.1819 218.285 8.1643C218.268 8.14647 218.268 8.11059 218.268 8.03836L218.127 8.1819C217.591 8.4549 217.452 8.55483 217.35 8.62798C217.291 8.67021 217.244 8.70352 217.141 8.75606L217 8.8996C216.719 9.04314 216.437 9.18668 216.578 9.6173C216.719 10.0479 217 10.0479 217.141 9.90439L217.282 9.76085C217.543 9.58342 217.75 9.46082 218.037 9.29139C218.214 9.18668 218.421 9.06408 218.69 8.8996L218.831 8.75606C218.972 8.75606 219.112 8.61252 218.972 8.32544C218.901 8.32544 218.796 8.28955 218.69 8.25367ZM189.967 8.61259H191.093C192.501 8.61259 194.191 8.75613 195.036 10.1915C195.072 10.3029 195.127 10.4239 195.189 10.5595C195.367 10.948 195.599 11.4562 195.599 12.2011C195.599 12.6317 195.458 13.493 195.036 14.3542C194.05 15.7896 192.501 15.9332 191.093 15.9332H189.967V8.61259ZM221.648 8.61198H221.225C220.803 8.61198 220.521 8.61198 220.099 8.75552C220.064 8.79141 220.02 8.8273 219.976 8.86319C219.844 8.97084 219.712 9.07849 219.817 9.18615C219.958 9.47323 220.099 9.76031 220.38 9.61677L220.944 9.32969C221.366 9.0426 221.648 9.18615 221.648 9.18615C221.929 9.18615 222.07 9.0426 222.07 8.89907C222.07 8.75552 221.929 8.61198 221.788 8.61198H221.648ZM222.914 8.61227C222.985 8.68404 223.055 8.71993 223.125 8.75581C223.196 8.7917 223.266 8.82758 223.337 8.89935C223.368 8.96372 223.407 9.0353 223.449 9.1141L223.45 9.11464L223.45 9.11484C223.597 9.3874 223.791 9.74619 223.9 10.1912C224.029 10.9824 223.683 12.0159 223.517 12.5126C223.502 12.5566 223.489 12.5964 223.477 12.6314C223.414 12.6963 223.379 12.7319 223.36 12.7248C223.337 12.7162 223.337 12.6451 223.337 12.4879C223.337 12.4599 223.342 12.3994 223.349 12.3137C223.381 11.9588 223.45 11.172 223.337 10.4783C223.238 10.1781 223.072 9.87786 222.932 9.62628C222.872 9.51701 222.816 9.41691 222.773 9.32997C222.633 9.18643 222.633 8.89935 222.633 8.89935C222.633 8.75581 222.773 8.61227 222.914 8.61227ZM156.033 9.04343C154.906 8.75635 153.78 8.61281 152.654 8.61281H151.95V25.9812H152.513C152.545 25.9812 152.596 25.9831 152.662 25.9856C153.177 26.0047 154.645 26.0591 155.892 25.5506C158.145 24.6894 160.257 22.3927 160.257 17.2252C160.257 15.2157 159.975 12.7755 158.708 11.053C158.426 10.6224 157.582 9.61759 156.033 9.04343ZM25.9318 8.899L28.8887 20.2387L22.4118 20.2387L25.9318 8.899ZM64.6526 20.2387L61.5549 8.899L58.1757 20.2387H64.6526ZM111.54 8.899L114.497 20.2387H108.16L111.54 8.899ZM212.354 9.3301C212.213 9.18656 212.072 9.18656 211.931 9.18656C211.931 9.18656 211.792 9.18656 211.93 9.04469C211.791 9.18768 211.791 9.33066 211.931 9.47364C211.973 9.53743 212.012 9.59806 212.049 9.65602L212.049 9.65728C212.261 9.98993 212.417 10.2342 212.776 10.4784L212.917 10.622C213.058 10.7655 213.339 10.622 213.48 10.4784C213.48 10.3349 213.48 10.0478 213.339 9.90426C213.339 9.90426 213.058 9.90426 212.917 9.76072C212.847 9.68896 212.741 9.61719 212.635 9.54542C212.53 9.47365 212.424 9.40187 212.354 9.3301ZM219.113 9.33014C219.172 9.33014 219.206 9.33014 219.237 9.34101C219.279 9.35584 219.313 9.39087 219.394 9.47368C219.535 9.61722 219.535 10.0478 219.253 10.1914L218.972 10.3349C218.268 10.9091 217.705 11.0526 217.705 11.0526C217.564 11.1962 217.141 11.0526 217.141 10.7655C217.001 10.622 217.001 10.3349 217.282 10.1914C217.282 10.1914 217.705 10.0478 218.268 9.61722L218.831 9.1866C218.972 9.33014 219.113 9.33014 219.113 9.33014ZM216.156 10.0481C216.156 9.76099 215.874 9.61745 215.734 9.61745C215.358 9.80884 215.108 9.87264 214.858 9.93643C214.732 9.96833 214.607 10.0002 214.466 10.0481H214.326C214.044 10.0481 213.903 10.3352 213.903 10.6222C213.903 10.9093 213.903 11.1964 214.326 11.0529H214.466C215.03 10.9093 216.015 10.4787 216.015 10.4787C216.297 10.4787 216.297 10.1916 216.156 10.0481ZM211.087 9.6175C211.157 9.6175 211.193 9.65339 211.228 9.68928C211.263 9.72516 211.298 9.76104 211.369 9.76104C211.515 9.91034 211.645 10.0596 211.769 10.2029C212.003 10.473 212.219 10.7218 212.495 10.9094C212.636 11.0529 212.777 11.0529 212.777 11.0529C213.058 11.1964 212.917 11.6271 212.917 11.6271C212.88 11.6655 212.852 11.7143 212.826 11.7596C212.756 11.8832 212.701 11.9808 212.495 11.7706L212.354 11.6271C211.656 11.0578 211.235 10.6297 210.816 10.0628L210.816 10.0638C210.811 10.0785 210.808 10.0865 210.807 10.0863C210.807 10.0862 210.806 10.0855 210.806 10.0841C210.805 10.0796 210.805 10.068 210.805 10.0481L210.816 10.0628C210.837 9.99782 210.9 9.80766 211.087 9.6175ZM216.719 11.0527C216.578 10.9092 216.437 10.9092 216.297 10.9092C216.225 10.9335 216.155 10.9577 216.085 10.9816C215.334 11.2407 214.7 11.4591 214.185 11.1963C213.903 11.1963 213.762 11.6269 213.762 11.7704C213.762 12.0575 213.762 12.2011 214.185 12.2011C214.185 12.2011 215.17 12.2011 216.297 11.7704C216.578 11.6269 216.86 11.4834 216.719 11.0527Z" fill="#8B91A6"/>
</svg>
