<svg width="201" height="61" viewBox="0 0 201 61" fill="none" xmlns="http://www.w3.org/2000/svg">
<path fill-rule="evenodd" clip-rule="evenodd" d="M145.1 16.8V1.7L149.2 2.2C150.9 2.2 152 2.4 152.6 2.8C153.2 3.1 153.5 3.6 153.6 4.1V4.5C153.7 4.7 153.7 4.9 153.7 5C153.7 5.1 153.8 5.1 153.9 5.1C153.943 5.1 153.967 5.1 153.989 5.09233C154.018 5.08194 154.043 5.05751 154.1 5C154.2 4.9 154.2 4.8 154.2 4.6V4C154.3 3.70002 154.3 3.30006 154.3 2.90009V2.9V2.7V2.5V1.5V0.7V0.4V0.399909C154.3 0.349968 154.3 0.324991 154.288 0.312499C154.275 0.3 154.25 0.3 154.2 0.3C154.159 0.3 154.118 0.317158 154.069 0.337259C154 0.365686 153.918 0.4 153.8 0.4C153.764 0.4 153.714 0.413397 153.65 0.430385C153.541 0.459808 153.391 0.5 153.2 0.5C153.061 0.5 152.9 0.521539 152.728 0.544625C152.529 0.571281 152.315 0.6 152.1 0.6H150.6H137.2H136.4C136.1 0.5 135.7 0.5 135.3 0.5H134.9C134.8 0.4 134.6 0.4 134.5 0.4C134.3 0.3 134.1 0.3 133.9 0.3C133.783 0.3 133.7 0.265685 133.632 0.237258C133.583 0.217157 133.542 0.2 133.5 0.2C133.383 0.2 133.3 0.165686 133.232 0.137259C133.183 0.117157 133.142 0.1 133.1 0.1C133.1 0 133 0 132.9 0C132.9 0 132.8 0 132.8 0.1C132.8 0.1 132.7 0.2 132.7 0.3C132.6 0.3 132.6 0.4 132.6 0.4V0.5C132.6 0.6 132.6 0.8 132.5 1.1C132.5 1.4 132.4 1.8 132.3 2.2V2.3V2.4C132.3 2.82706 132.227 3.10821 132.144 3.43039C132.13 3.48542 132.115 3.54165 132.1 3.6C132 4 132 4.2 132 4.3V4.5C132 4.6 132.1 4.6 132.1 4.6C132.2 4.6 132.3 4.5 132.3 4.5C132.4 4.4 132.5 4.3 132.5 4.2C132.55 4.15 132.575 4.075 132.6 4C132.625 3.925 132.65 3.85 132.7 3.8C132.8 3.6 132.9 3.4 133.1 3.1C133.4 2.6 133.8 2.3 134.3 2.2C134.362 2.18761 134.429 2.17368 134.5 2.15879L134.5 2.15873C135.004 2.05344 135.737 1.9 136.7 1.9L142 1.8V16.9V21.5C142 22.8 142 23.8 141.9 24.6C141.8 25.1 141.7 25.5 141.6 25.9C141.5 26.2 141.3 26.4 140.9 26.5C140.9 26.6 140.8 26.6 140.7 26.6H140.4H140.1H139.9C139.85 26.6 139.825 26.625 139.8 26.65C139.775 26.675 139.75 26.7 139.7 26.7C139.6 26.7 139.6 26.8 139.6 26.8C139.6 26.9 139.6 27 139.7 27C139.8 27.1 139.9 27.1 140.1 27.1H140.8H141.6H141.9H142.2C142.5 27 142.8 27 143.1 27H143.6H144.1C144.4 27.1 144.8 27.1 145.2 27.1H146.2H147.3H147.7H148.1C148.218 27.1 148.3 27.0657 148.369 27.0373C148.418 27.0172 148.459 27 148.5 27C148.6 27 148.6 26.9 148.6 26.8L148.5 26.7C148.5 26.6 148.4 26.6 148.3 26.6H147.9C147.8 26.5 147.6 26.5 147.4 26.5H147C146.9 26.4 146.8 26.4 146.7 26.4C146.1 26.4 145.8 26.2 145.6 25.8C145.587 25.7602 145.572 25.717 145.556 25.6706L145.556 25.6704C145.451 25.3672 145.3 24.9336 145.3 24.5C145.2 23.8 145.1 22.7 145.1 21.4V16.8ZM83.6004 16.8V10.5V5.2C83.6004 4.3 83.6004 3.5 83.5004 3V2.9C83.5004 2.3 83.4004 1.8 83.1004 1.5C82.9004 1.2 82.5004 1 81.9004 0.9H81.6004H81.2004H80.9004H80.7004H80.5004C80.5004 0.9 80.4004 0.8 80.4004 0.7C80.4004 0.6 80.4004 0.5 80.5004 0.5C80.5418 0.5 80.5832 0.482843 80.6318 0.462742C80.7004 0.434315 80.7832 0.4 80.9004 0.4H81.5004H82.1004H82.8004H83.5004C83.9004 0.4 84.2004 0.4 84.5004 0.5H85.0004H85.7004C86.0004 0.5 86.3004 0.5 86.6004 0.4H87.7004H88.9004C90.8004 0.4 92.3004 0.7 93.3004 1.4C94.3004 2.1 95.0004 2.8 95.5004 3.6C95.7004 4 95.8004 4.39999 95.9004 4.79999L95.9004 4.8C96.0004 5.2 96.0004 5.5 96.0004 5.8C96.0004 7.2 95.6004 8.5 94.9004 9.4C94.2004 10.4 93.5004 11.3 92.6004 12.2C92.7504 12.25 92.8754 12.3 93.0004 12.35C93.1254 12.4 93.2504 12.45 93.4004 12.5C93.5504 12.55 93.7004 12.625 93.8504 12.7L93.8504 12.7L93.8504 12.7C94.0004 12.775 94.1504 12.85 94.3004 12.9C95.4004 13.5 96.4004 14.4 97.4004 15.5C98.3004 16.6 98.8004 18 98.8004 19.7V19.9V20.1C98.7004 22 97.9004 23.6 96.4004 25.2C94.9004 26.7 92.7004 27.5 89.7004 27.5H88.8004C88.4004 27.5 87.9004 27.5 87.4004 27.4H87.3004H87.2004C86.7004 27.4 86.2004 27.4 85.8004 27.3H85.1004H84.6004C84.3004 27.3 84.0004 27.3 83.7004 27.4H83.4004H83.1004H82.3004H81.6004C81.4004 27.4 81.3004 27.4 81.2004 27.3C81.1004 27.3 81.1004 27.2 81.1004 27.1C81.1004 27.1 81.1004 27 81.2004 27C81.2504 27 81.2754 26.975 81.3004 26.95C81.3254 26.925 81.3504 26.9 81.4004 26.9H81.6004H81.9004H82.2004C82.3004 26.9 82.4004 26.9 82.4004 26.8C82.8004 26.7 83.0004 26.5 83.1004 26.2C83.2004 25.8 83.3004 25.4 83.4004 24.9C83.5004 24.1 83.5004 23.1 83.5004 21.8C83.5004 20.95 83.5254 20.125 83.5504 19.3C83.5754 18.475 83.6004 17.65 83.6004 16.8ZM86.4004 13.1V15.1V16.5V17.9V21.1V22.8V23V23.2C86.4004 23.9 86.5004 24.4 86.6004 24.7C86.7004 25 87.0004 25.3 87.5004 25.5H87.6004C87.8004 25.6 88.0004 25.7 88.2004 25.7C88.3004 25.7 88.4254 25.725 88.5504 25.75C88.6754 25.775 88.8004 25.8 88.9004 25.8C89.1004 25.8 89.2754 25.825 89.4504 25.85C89.6254 25.875 89.8004 25.9 90.0004 25.9H90.8004C91.1004 25.9 91.3004 25.9 91.7004 25.8C91.8757 25.7562 92.0127 25.7315 92.1364 25.7093L92.1365 25.7093H92.1365C92.295 25.6808 92.4319 25.6562 92.6004 25.6C93.4004 25.3 94.1004 24.8 94.8004 24.1C95.5004 23.4 95.8004 22.3 95.8004 20.8C95.8004 20.3 95.8004 19.8 95.7004 19.3C95.6842 19.2191 95.668 19.1357 95.6515 19.05L95.6513 19.0495L95.6513 19.0491C95.5653 18.6053 95.4679 18.1026 95.3004 17.6C95.1004 16.9 94.7004 16.2 94.2004 15.5C93.7004 14.8 93.1004 14.2 92.3004 13.7C91.7004 13.3 91.2004 13 90.7004 12.9C90.6275 12.8854 90.5567 12.8708 90.4874 12.8566L90.4873 12.8565C90.0815 12.7729 89.7274 12.7 89.3004 12.7H88.7004H87.8004H87.0004H86.4004C86.3579 12.7 86.3335 12.7 86.3117 12.7077C86.2823 12.7181 86.2579 12.7425 86.2004 12.8C86.4004 12.9 86.4004 13 86.4004 13.1ZM86.4004 11.3V1.8C86.4004 1.7 86.4004 1.6 86.5004 1.4C86.5418 1.4 86.5832 1.38284 86.6318 1.36274C86.7004 1.33431 86.7832 1.3 86.9004 1.3C87.0004 1.2 87.1004 1.2 87.2004 1.2H87.5004H88.1004H88.6004C90.3004 1.2 91.5004 1.7 92.2004 2.9C92.9004 4.1 93.3004 5.3 93.4004 6.7V7V7.3C93.4004 7.92124 93.2429 8.46371 93.0676 9.06722L93.0676 9.06723L93.0676 9.06734C93.0454 9.14382 93.0229 9.22128 93.0004 9.3C92.8004 10 92.5004 10.5 92.1004 10.9C92.0622 10.9382 92.0386 10.9764 92.0184 11.009C91.9858 11.0618 91.9622 11.1 91.9004 11.1L91.8004 11.2C91.5004 11.5 91.1004 11.6 90.7004 11.7C90.3004 11.8 89.7004 11.8 88.8004 11.8H87.8004C87.5004 11.7 87.3004 11.7 87.1004 11.7H86.8004H86.6004C86.5004 11.7 86.4004 11.6 86.4004 11.6V11.3ZM105.9 15.7V10.5V5.2C105.9 4.3 105.9 3.5 105.8 3V2.9C105.8 2.3 105.7 1.8 105.4 1.5C105.2 1.2 104.8 1 104.2 0.9H103.9H103.5H103.2H103H102.8C102.8 0.9 102.7 0.8 102.7 0.7C102.7 0.6 102.7 0.5 102.8 0.5C102.842 0.5 102.883 0.482843 102.932 0.462742C103 0.434315 103.083 0.4 103.2 0.4H103.8H104.4H105H105.7C106.1 0.4 106.4 0.4 106.7 0.5H107.2H107.7C108 0.5 108.3 0.5 108.7 0.4H108.9H109.2H110H110.7C110.9 0.4 111 0.4 111.1 0.5C111.2 0.5 111.2 0.6 111.2 0.7C111.2 0.742495 111.2 0.766932 111.193 0.788658C111.182 0.818058 111.158 0.842495 111.1 0.9H110.9H110.8H110.5C110.4 0.9 110.2 0.9 110 1C109.5 1.1 109.2 1.3 109 1.6C108.8 1.9 108.7 2.4 108.7 3V3.1C108.7 3.3135 108.682 3.5817 108.661 3.88902L108.661 3.88914C108.633 4.30152 108.6 4.78435 108.6 5.3V10.7V15.6C108.6 18.2 108.8 20.1 109.3 21.4C109.8 22.7 110.5 23.7 111.2 24.4L111.8 25C112 25.2 112.2 25.3 112.4 25.4C113 25.8 113.7 26 114.4 26.2C115.1 26.3 115.8 26.4 116.5 26.4C117.6 26.4 118.6 26.2 119.6 25.7C120.6 25.2 121.4 24.6 122.1 23.8C122.9 22.8 123.5 21.5 123.7 20.1C124 18.6 124.1 16.9 124.1 15.1V10.6V5.3C124.1 4.4 124.1 3.6 124 3.1V3C124 2.4 123.9 1.9 123.6 1.6C123.4 1.3 123 1.1 122.4 1H122.1H121.7H121.4H121.2H121C121 1 120.9 0.9 120.9 0.8C120.9 0.7 120.9 0.6 121 0.6C121.042 0.6 121.083 0.582843 121.132 0.562742C121.2 0.534315 121.283 0.5 121.4 0.5H121.8H122.2H123H123.8C124.2 0.5 124.5 0.5 124.7 0.6H125.2H125.6C125.8 0.6 126.1 0.6 126.3 0.5H126.7H127.1H127.6H128.1C128.3 0.5 128.4 0.5 128.5 0.6C128.6 0.6 128.6 0.7 128.6 0.8C128.6 0.842495 128.6 0.866932 128.593 0.888658C128.582 0.918059 128.558 0.942495 128.5 1H128.3H128.2H127.9C127.8 1 127.6 1 127.4 1.1C126.9 1.2 126.6 1.4 126.4 1.7C126.2 2 126.1 2.5 126.1 3.1V3.2C126.1 3.4135 126.082 3.6817 126.061 3.98902L126.061 3.98914C126.033 4.40152 126 4.88435 126 5.4V10.8V14.6V15.8V17C125.9 18.6 125.6 20.1 125.2 21.6C124.7 23.1 124 24.3 122.8 25.3C122.6 25.5 122.4 25.7 122.2 25.8C122.1 25.85 122 25.925 121.9 26C121.8 26.075 121.7 26.15 121.6 26.2C120.5 26.9 119.4 27.4 118.4 27.6C117.4 27.8 116.4 27.9 115.5 27.9C115.1 27.9 114.4 27.9 113.5 27.8C112.6 27.7 111.7 27.5 110.7 27.1C110.2 26.9 109.8 26.7 109.3 26.4C108.9 26.1 108.5 25.8 108.1 25.4C107.2 24.6 106.5 23.5 105.9 22.1C106.092 21.0131 106.039 19.8035 105.975 18.3667L105.975 18.3666V18.3666V18.3666C105.939 17.5562 105.9 16.6736 105.9 15.7ZM165.2 10.5V16.8V21.4C165.2 22.7 165.3 23.8 165.4 24.5C165.4 24.9336 165.551 25.3673 165.656 25.6704C165.672 25.7168 165.687 25.7602 165.7 25.8C165.9 26.2 166.2 26.4 166.8 26.4C166.9 26.4 167 26.4 167.1 26.5H167.5C167.7 26.5 167.9 26.5 168 26.6H168.4C168.5 26.6 168.6 26.6 168.6 26.7L168.7 26.8C168.7 26.9 168.7 27 168.6 27C168.559 27 168.518 27.0172 168.469 27.0373C168.4 27.0657 168.318 27.1 168.2 27.1H167.8H167.4H166.3H165.3C164.9 27.1 164.5 27.1 164.2 27H163.7H163.2C162.9 27 162.6 27 162.3 27.1H162H161.7H160.9H160.2C160 27.1 159.9 27.1 159.8 27C159.7 27 159.7 26.9 159.7 26.8C159.7 26.8 159.7 26.7 159.8 26.7C159.85 26.7 159.875 26.675 159.9 26.65C159.925 26.625 159.95 26.6 160 26.6H160.2H160.5H160.8C160.9 26.6 161 26.6 161 26.5C161.4 26.4 161.6 26.2 161.7 25.9C161.8 25.5 161.9 25.1 162 24.6C162.1 23.8 162.1 22.8 162.1 21.5V16.9V10.6V5.3C162.1 4.4 162.1 3.6 162 3.1V3C162 2.4 161.9 1.9 161.7 1.6C161.5 1.3 161.2 1.1 160.8 1H160.7H160.6H160.1H159.7H159.5C159.5 1 159.4 0.9 159.4 0.8C159.4 0.7 159.4 0.6 159.5 0.6C159.542 0.6 159.583 0.582843 159.632 0.562742C159.7 0.534315 159.783 0.5 159.9 0.5H160.6H161.4H161.8H162.2C162.6 0.5 162.9 0.5 163.1 0.6H163.6H164.1C164.4 0.6 164.7 0.6 165.1 0.5H165.4H165.7H166.5H167.2C167.4 0.5 167.5 0.5 167.6 0.6C167.7 0.6 167.7 0.7 167.7 0.8C167.7 0.842495 167.7 0.866931 167.693 0.888657C167.682 0.918058 167.658 0.942495 167.6 1H167.4H167.3H167C166.9 1 166.7 1 166.5 1.1C166 1.2 165.7 1.4 165.5 1.7C165.3 2 165.2 2.5 165.2 3.1V3.2C165.2 3.41344 165.182 3.68156 165.161 3.98878L165.161 3.98914V3.9892C165.133 4.40157 165.1 4.88437 165.1 5.4C165.2 6.1 165.2 7.9 165.2 10.5ZM177.9 10.5V16.8C177.9 18.5 177.8 20.1 177.1 22C177.1 23.3 177.1 24.3 177 25.1C176.9 25.6 176.8 26 176.7 26.4C176.6 26.7 176.4 26.9 176 27C176 27.1 175.9 27.1 175.8 27.1H175.5H175.2H175C174.9 27.1 174.8 27.2 174.8 27.2C174.7 27.2 174.7 27.3 174.7 27.3C174.7 27.4 174.7 27.5 174.8 27.5C174.9 27.6 175.1 27.6 175.2 27.6H175.8H176.6H176.9H177.2C177.5 27.5 177.8 27.5 178.1 27.5H178.6H179.1H180.1H181H181.9H182.3H182.7C182.818 27.5 182.9 27.4657 182.969 27.4373C183.018 27.4172 183.059 27.4 183.1 27.4C183.2 27.4 183.2 27.3 183.2 27.2L183.1 27.1C183.1 27 183 27 182.9 27H182.4C182.2 26.9 182 26.9 181.8 26.9H181.6H181.5C180.9 26.9 180.6 26.7 180.4 26.3C180.387 26.2602 180.372 26.2168 180.356 26.1704C180.251 25.8672 180.1 25.4336 180.1 25C180 24.3 179.9 23.2 179.9 21.9V17.3V13.8H180.1C180.5 14.3 181.2 15.1 182.1 16.1C183.016 17.0161 183.933 18.0161 184.926 19.1C185.016 19.1993 185.108 19.2993 185.2 19.4C185.2 19.45 185.225 19.475 185.25 19.5C185.275 19.525 185.3 19.55 185.3 19.6L185.5 19.8C186.073 20.4205 186.623 20.9955 187.15 21.5466C187.728 22.1501 188.278 22.7251 188.8 23.3C189.9 24.4 190.6 25.1 191 25.4C191.166 25.5652 191.331 25.7 191.479 25.8212C191.6 25.9202 191.71 26.0101 191.8 26.1C191.95 26.2 192.075 26.275 192.2 26.35C192.325 26.425 192.45 26.5 192.6 26.6L193.8 27.2C194.2 27.4 194.7 27.5 195.3 27.5H195.6H195.9H196.8H197.8H199.6C199.791 27.5 199.941 27.4598 200.05 27.4304C200.114 27.4134 200.164 27.4 200.2 27.4C200.3 27.4 200.4 27.3 200.4 27.2C200.4 27.2 200.4 27.1 200.3 27.1C200.2 27 200.1 27 200 27C199.967 27 199.923 26.9889 199.863 26.9741C199.745 26.9444 199.567 26.9 199.3 26.9C198.9 26.9 198.5 26.8 198.1 26.7C198 26.6 198 26.6 197.9 26.6C197.9 26.5 197.8 26.5 197.8 26.5C197.8 26.4 197.7 26.4 197.7 26.4C197.7 26.3 197.6 26.3 197.6 26.3C197.4 26.3 197.2 26.2 197 26.1C196.9 26.05 196.825 26 196.75 25.95C196.675 25.9 196.6 25.85 196.5 25.8C196 25.5 195.5 25.1 194.9 24.6L194.9 24.5999C194.4 24.0999 193.6 23.2999 192.6 22.4L190.7 20.5C189.8 19.5 188.8 18.5 187.8 17.5C187.173 16.8727 186.6 16.2727 186.054 15.7C185.555 15.1772 185.078 14.6772 184.6 14.2C183.6 13.2 183 12.6 182.8 12.3C182.867 12.2333 182.956 12.1333 183.074 12C183.312 11.7333 183.667 11.3333 184.2 10.8L186.7 8.3L186.701 8.29984C187.6 7.3999 188.4 6.59996 189.2 5.9C190 5.2 190.5 4.7 190.7 4.5L191.8 3.4C192.2 3.1 192.5 2.8 192.8 2.5C192.95 2.4 193.075 2.3 193.2 2.2C193.325 2.1 193.45 2 193.6 1.9C193.9 1.7 194.2 1.5 194.5 1.4C194.5 1.3 194.6 1.3 194.6 1.3C194.7 1.2 194.7 1.2 194.8 1.2C195.1 1.1 195.4 1 195.7 1C196 0.9 196.3 0.9 196.5 0.9H196.8C196.9 0.9 196.9 0.8 196.9 0.7C196.9 0.6 196.9 0.5 196.8 0.5C196.7 0.4 196.6 0.4 196.4 0.4H195.7H194.9H194.7H194.5C194.1 0.5 193.8 0.5 193.5 0.5H193H192.5H192H191.8H191.7H191H190.4C190.35 0.5 190.3 0.525 190.25 0.55C190.2 0.575 190.15 0.6 190.1 0.6C190 0.6 190 0.7 190 0.8C190 0.9 190.1 1 190.1 1C190.1 1 190.2 1.1 190.3 1.1C190.4 1.1 190.5 1.2 190.6 1.3C190.7 1.4 190.7 1.6 190.7 1.8C190.7 2.1 190.5 2.4 190.1 2.9C189.912 3.08886 189.723 3.3 189.523 3.52292C189.3 3.77214 189.064 4.03607 188.8 4.3C188.686 4.41393 188.544 4.57113 188.367 4.76612C188.077 5.08457 187.697 5.50382 187.2 6L184.7 8.5C183.8 9.49992 182.901 10.3999 182.001 11.2998L182 11.3L180.5 12.8H180.4V10.7V5.3C180.4 4.78435 180.433 4.30152 180.461 3.88914C180.482 3.58176 180.5 3.31353 180.5 3.1V3C180.5 2.4 180.6 1.9 180.8 1.6C181 1.3 181.3 1.1 181.8 1C182 0.9 182.2 0.9 182.3 0.9H182.6H182.7H182.9C182.958 0.842495 182.982 0.818058 182.993 0.788657C183 0.766931 183 0.742495 183 0.7C183 0.6 183 0.5 182.9 0.5C182.8 0.4 182.7 0.4 182.5 0.4H181.8H181.1H180.8H180.5C180.1 0.5 179.8 0.5 179.5 0.5H179H178.5C178.3 0.4 178 0.4 177.6 0.4H176.9H176.2H175.7H175.2C175.083 0.4 175 0.434315 174.932 0.462742C174.883 0.482843 174.842 0.5 174.8 0.5C174.7 0.5 174.7 0.6 174.7 0.7C174.7 0.8 174.8 0.9 174.8 0.9H175H175.2H175.5H175.9H176.2C176.8 1 177.2 1.2 177.4 1.5C177.7 1.8 177.8 2.3 177.8 2.9V3C177.9 3.5 177.9 4.3 177.9 5.2V10.5Z" fill="#8B91A6"/>
<path fill-rule="evenodd" clip-rule="evenodd" d="M155.8 55.3999L163.9 33.2999C163.977 33.1089 164.038 32.9471 164.091 32.8089C164.177 32.5853 164.238 32.4235 164.3 32.2999C164.4 32.0999 164.5 31.9999 164.6 31.8999H164.7H164.8C164.9 31.8999 165 31.9999 165.1 32.1999C165.142 32.2827 165.183 32.3826 165.231 32.4997L165.232 32.4999C165.3 32.6656 165.383 32.8656 165.5 33.0999C165.643 33.3865 165.941 34.1864 166.429 35.4997L166.429 35.4999L166.43 35.503C166.623 36.0219 166.846 36.6209 167.1 37.2999C167.791 39.1425 168.541 41.044 169.35 43.095L169.35 43.0957C169.595 43.7159 169.845 44.3498 170.1 44.9999C170.8 46.8999 171.5 48.6999 172.2 50.3999C172.489 51.1007 172.743 51.7506 172.978 52.3494L172.978 52.3499L172.978 52.35C173.313 53.2036 173.606 53.9535 173.9 54.5999C174.5 56.1999 175.1 57.1999 175.6 57.6999C176.031 58.1305 176.461 58.3386 176.828 58.5159C176.887 58.5444 176.945 58.5722 177 58.5999C177.063 58.6208 177.121 58.6416 177.177 58.6616C177.388 58.7373 177.563 58.7999 177.8 58.7999H178.4H178.6C178.7 58.7999 178.7 58.8999 178.7 58.9999C178.7 59.0999 178.6 59.1999 178.5 59.1999C178.459 59.1999 178.4 59.2171 178.332 59.2372C178.235 59.2656 178.117 59.2999 178 59.2999H176.1C175.1 59.2999 174 59.2999 172.9 59.1999H172.7H172.5H172.4H172.3H171.7C171.6 59.1999 171.5 59.0999 171.5 58.9999V58.9998C171.5 58.9499 171.5 58.9249 171.513 58.9124C171.525 58.8999 171.55 58.8999 171.6 58.8999C171.6 58.8999 171.7 58.7999 171.8 58.7999H171.9L172 58.6999C172.1 58.5999 172.1 58.4999 172.1 58.2999V58.1999V58.0999V57.9999V57.8999L168.8 49.0999L168.7 48.9999C168.7 48.9999 168.6 48.8999 168.5 48.8999H160.8C160.7 48.8999 160.6 48.9999 160.6 48.9999C160.6 48.9999 160.5 49.0999 160.5 49.1999L158.4 55.4999C158.2 55.9999 158.1 56.3998 158 56.7998L158 56.7999C157.9 57.1999 157.9 57.5999 157.9 57.8999C157.9 58.1999 158 58.3999 158.2 58.5999C158.3 58.6499 158.425 58.6999 158.55 58.7499L158.55 58.7499L158.55 58.7499C158.675 58.7999 158.8 58.8499 158.9 58.8999H159H159.1H159.5C159.6 58.8999 159.7 58.9999 159.7 58.9999C159.8 58.9999 159.8 59.0999 159.8 59.0999C159.8 59.1999 159.8 59.2999 159.7 59.2999C159.659 59.2999 159.617 59.3171 159.569 59.3372C159.5 59.3656 159.417 59.3999 159.3 59.3999H158.8H158.2H158H157.8C157.5 59.3999 157.3 59.3999 157.1 59.2999H156.6H156C155.7 59.2999 155.4 59.2999 155 59.3999H154.3C154.567 59.3999 154.745 59.3555 154.863 59.3258C154.922 59.311 154.967 59.2999 155 59.2999C155.1 59.2999 155.2 59.1999 155.2 59.0999C155.2 59.0999 155.2 58.9999 155.1 58.9999C155.1 58.8999 155 58.8999 154.9 58.8999H154.4C154.25 58.8999 154.1 58.8749 153.95 58.8499C153.8 58.8249 153.65 58.7999 153.5 58.7999L153.49 58.7979C154.081 58.6227 154.584 58.2737 154.9 57.7999C155.014 57.3457 155.192 56.9237 155.379 56.4791L155.379 56.4789C155.522 56.1405 155.671 55.7889 155.8 55.3999ZM151.966 58.2999C152.611 58.5429 153.051 58.7089 153.49 58.7979C153.332 58.8445 153.169 58.8789 153 58.8999H152.8H152.6H152.3H152.1C152 58.8999 151.9 58.9999 151.9 58.9999C151.85 58.9999 151.825 58.9999 151.813 59.0124C151.8 59.0249 151.8 59.0499 151.8 59.0999C151.8 59.1999 151.9 59.2999 152 59.2999C152.1 59.3999 152.3 59.3999 152.5 59.3999H151.8C150.8 59.3999 150.1 59.3999 149.5 59.2999C149 59.1999 148.5 58.9999 148 58.7999C147.8 58.6999 147.6 58.5999 147.4 58.3999C147.2 58.2999 147 58.0999 146.8 57.8999C146.3 57.3999 145.7 56.7999 145.1 56.0999C144.775 55.721 144.451 55.2835 144.094 54.8033L144.094 54.803C143.792 54.3961 143.467 53.9585 143.1 53.4999C143.059 53.4585 143.017 53.4 142.969 53.3315L142.969 53.3314L142.969 53.3313L142.969 53.3313C142.9 53.2342 142.817 53.1171 142.7 52.9999C142.6 52.7999 142.5 52.6999 142.3 52.4999C142.3 52.4381 142.262 52.4145 142.209 52.3819C142.177 52.3617 142.138 52.3381 142.1 52.2999C142.1 52.1999 142 52.0999 142 52.0999C141.735 51.7459 141.469 51.4114 141.212 51.0879C140.889 50.6803 140.579 50.2901 140.3 49.8999C140.196 49.7541 140.096 49.6126 140.001 49.4772L140 49.4767L140 49.4765C139.638 48.9625 139.338 48.5373 139.1 48.2999H139V48.1999C139 48.1999 138.9 48.1999 138.8 48.0999H138.6L134.2 47.9999C134.1 47.9999 134 48.0999 134 48.0999V48.2999V49.0999V53.6999C134 54.9999 134.1 56.0999 134.2 56.7999C134.2 57.2335 134.351 57.6671 134.456 57.9703C134.472 58.0167 134.487 58.0601 134.5 58.0999C134.7 58.4999 135 58.6999 135.6 58.6999C135.7 58.6999 135.8 58.6999 135.9 58.7999H136.3C136.5 58.7999 136.7 58.7999 136.8 58.8999H137.2C137.3 58.8999 137.4 58.8999 137.4 58.9999L137.5 59.0999C137.5 59.1999 137.5 59.2999 137.4 59.2999C137.359 59.2999 137.317 59.3171 137.269 59.3372C137.2 59.3656 137.117 59.3999 137 59.3999H136.6H136.2H135.1H134.1C133.7 59.3999 133.3 59.3999 133 59.2999H132.5H132.1C131.9 59.2999 131.6 59.2999 131.2 59.3999H130.8H130.5H129.8H129.2C129.1 59.3999 128.9 59.3999 128.8 59.2999C128.7 59.2999 128.7 59.1999 128.7 59.0999C128.7 59.0999 128.7 58.9999 128.8 58.9999C128.8 58.9999 128.9 58.8999 129 58.8999H129.2H129.5H129.8C129.9 58.8999 130 58.8999 130 58.7999C130.4 58.6999 130.6 58.4999 130.7 58.1999L130.7 58.1997C130.8 57.7998 130.9 57.3998 131 56.8999C131.1 56.0999 131.1 55.0999 131.1 53.7999C131.7 52.1999 131.7 50.6999 131.7 48.8999V42.5999V37.2999C131.7 36.3999 131.7 35.5999 131.6 35.0999V34.9999C131.6 34.3999 131.5 33.8999 131.2 33.5999C131 33.2999 130.6 33.0999 130 32.9999H129.7H129.3H129H128.8H128.6C128.6 32.9999 128.5 32.8999 128.5 32.7999C128.5 32.6999 128.5 32.5999 128.6 32.5999C128.642 32.5999 128.683 32.5827 128.732 32.5626C128.8 32.5342 128.883 32.4999 129 32.4999H129.6H130.2H130.9H131.6C132 32.4999 132.3 32.4999 132.6 32.5999H133.1H133.7C134.1 32.5999 134.5 32.5999 134.9 32.4999H135.1H135.3H136.3H137.2H137.9H138.6C139.5 32.4999 140.4 32.6999 141.2 32.8999C142.1 33.0999 142.8 33.4999 143.6 33.9999C143.63 34.0302 143.67 34.0605 143.713 34.0935C143.812 34.1696 143.93 34.2605 144 34.3999C144.129 34.4645 144.217 34.5707 144.316 34.6918L144.316 34.6919C144.371 34.7582 144.429 34.8291 144.5 34.8999C144.9 35.3999 145.2 35.8999 145.5 36.5999C145.8 37.2999 146 37.9999 146 38.8999C146 40.1999 145.7 41.4999 145 42.8999C144.4 44.2999 143.3 45.6999 141.7 47.0999C142.362 47.9387 142.986 48.7385 143.578 49.4993L143.579 49.5C144.329 50.4623 145.03 51.3623 145.7 52.1999C146.9 53.6999 148.1 55.0999 149.1 56.1999C150.1 57.1999 150.9 57.8999 151.7 58.1999C151.793 58.2346 151.881 58.2679 151.966 58.2999ZM110 42.5999V48.8999V54.4999C110 55.7999 110 56.7999 109.9 57.5999C109.8 58.0999 109.7 58.4999 109.6 58.8999C109.5 59.1999 109.3 59.3999 108.9 59.4999C108.9 59.5999 108.8 59.5999 108.7 59.5999H108.4H108.1H107.9C107.8 59.5999 107.7 59.6999 107.7 59.6999C107.6 59.6999 107.6 59.7999 107.6 59.7999C107.6 59.8999 107.6 59.9999 107.7 59.9999C107.8 60.0999 107.9 60.0999 108.1 60.0999H108.8H109.6H109.9H110.2C110.5 59.9999 110.8 59.9999 111.1 59.9999H111.6H112.6C113 60.0999 113.6 60.0999 114.3 60.0999C115 60.1999 115.8 60.1999 116.8 60.1999H116.8H120.3H120.3C121 60.1999 121.5 60.1999 121.7 60.0999C121.9 59.9999 122.1 59.7999 122.2 59.2999C122.3 59.1999 122.3 59.0999 122.3 58.8999C122.3 58.7999 122.325 58.7249 122.35 58.6499C122.375 58.5749 122.4 58.4999 122.4 58.3999V57.9999V57.5999C122.4 57.3999 122.425 57.2249 122.45 57.0499C122.475 56.8749 122.5 56.6999 122.5 56.4999C122.6 56.0999 122.6 55.8999 122.6 55.7999V55.4999C122.6 55.3999 122.5 55.3999 122.4 55.3999C122.3 55.3999 122.2 55.3999 122.2 55.4999C122.2 55.5413 122.183 55.5827 122.163 55.6312L122.163 55.6313C122.135 55.6999 122.1 55.7827 122.1 55.8999C122 56.5999 121.8 57.1999 121.6 57.5999C121.3 57.9999 121 58.2999 120.5 58.4999C120.3 58.4999 120 58.5999 119.7 58.6999C119.55 58.6999 119.4 58.7249 119.25 58.7499L119.25 58.7499C119.1 58.7749 118.95 58.7999 118.8 58.7999H117.9H117.1C115.4 58.7999 114.3 58.6999 113.8 58.2999C113.3 57.8999 113 57.0999 113 55.8999V54.6999V52.6999V52.1999V51.6999V50.5999V49.6999V46.5999V46.3999C113 46.2999 113.1 46.2999 113.2 46.2999H114.2H115.8H117.2C117.6 46.3999 118 46.3999 118.2 46.3999C118.8 46.4999 119.2 46.5999 119.4 46.7999C119.6 46.9999 119.8 47.1999 119.9 47.3999V47.4999C120 47.4999 120 47.5999 120 47.5999C120.1 47.7999 120.1 47.9999 120.1 48.1999V48.6999V48.8999C120.1 48.9999 120.2 48.9999 120.3 48.9999C120.4 48.9999 120.5 48.9999 120.5 48.8999C120.6 48.7999 120.6 48.5999 120.6 48.4999V48.3999V48.2999V47.7999C120.7 47.4999 120.7 47.1999 120.7 46.8999V46.3999C120.8 46.2999 120.8 46.0999 120.8 45.9999V45.4999C120.9 45.2999 120.9 45.1999 120.9 45.0999C120.9 44.9347 120.931 44.7999 120.958 44.6787C120.98 44.5797 121 44.4898 121 44.3999C121.1 44.1999 121.1 44.0999 121.1 43.9999C121.1 43.8999 121 43.7999 121 43.7999C121 43.6999 120.9 43.6999 120.9 43.6999C120.9 43.6999 120.8 43.6999 120.7 43.7999L120.4 44.0999C120.3 44.2999 120.1 44.3999 119.8 44.4999C119.717 44.4999 119.6 44.5171 119.463 44.5372C119.269 44.5656 119.035 44.5999 118.8 44.5999C118.6 44.6999 118.2 44.6999 117.7 44.6999H116H114.1H113.1C113 44.6999 112.9 44.5999 112.9 44.5999V44.2999V34.4999V34.2999C112.958 34.2424 112.982 34.218 113.012 34.2076C113.033 34.1999 113.058 34.1999 113.1 34.1999H114H115.6H117.1H118C119 34.2999 119.6 34.4999 119.9 34.6999C120.2 34.8999 120.4 35.0999 120.5 35.3999C120.6 35.3999 120.6 35.4999 120.6 35.5999C120.7 35.6999 120.7 35.6999 120.7 35.7999V36.2999V36.6999C120.7 36.8171 120.735 36.8999 120.763 36.9685C120.783 37.0171 120.8 37.0585 120.8 37.0999C120.8 37.1999 120.9 37.1999 121 37.1999C121 37.1999 121.1 37.1999 121.1 37.0999C121.1 37.0499 121.125 37.0249 121.15 36.9999C121.175 36.9749 121.2 36.9499 121.2 36.8999V36.7999V36.2999C121.3 36.0999 121.3 35.7999 121.3 35.5999V34.8999V34.3999V33.9999C121.4 33.8999 121.4 33.7999 121.4 33.6999C121.4 33.5097 121.44 33.3597 121.47 33.2499C121.487 33.1865 121.5 33.1365 121.5 33.0999C121.6 32.8999 121.6 32.7999 121.6 32.6999V32.4999C121.6 32.3999 121.5 32.3999 121.5 32.3999H121.4H121.3H121.2H121.1C121.064 32.3999 121.014 32.4133 120.95 32.4303C120.84 32.4597 120.69 32.4999 120.5 32.4999C120.2 32.5999 119.9 32.5999 119.6 32.5999H118.1H115.5H112.8H111.4H110.9C110.6 32.4999 110.3 32.4999 109.9 32.4999H109.2H108.5H107.9H107.3C107.183 32.4999 107.1 32.5342 107.032 32.5626C106.983 32.5827 106.942 32.5999 106.9 32.5999C106.8 32.5999 106.8 32.6999 106.8 32.7999C106.8 32.8999 106.9 32.9999 106.9 32.9999H107.1H107.3H107.6H108H108.3C108.9 33.0999 109.3 33.2999 109.5 33.5999C109.8 33.8999 109.9 34.3999 109.9 34.9999V35.0999C110 35.5999 110 36.3999 110 37.2999V42.5999ZM91.2002 54.8999L84.4002 36.6999C84.3002 36.3499 84.3002 36.0749 84.3002 35.8249C84.3002 35.5749 84.3002 35.3499 84.2002 35.0999C84.0002 34.5999 83.9002 34.1999 83.9002 33.9999V33.8999V33.7999C83.9002 33.6999 83.9002 33.5999 84.0002 33.4999C84.1002 33.4999 84.2002 33.3999 84.3002 33.2999C84.3502 33.2999 84.4002 33.2749 84.4502 33.2499C84.5002 33.2249 84.5502 33.1999 84.6002 33.1999H85.0002H85.3002H85.6002H85.8002C85.9002 33.1999 85.9002 33.0999 85.9002 32.9999C85.9002 32.8999 85.9002 32.7999 85.7002 32.7999C85.6002 32.6999 85.3002 32.6999 85.0002 32.6999H84.6002H84.3002H83.6002H83.0002C82.7002 32.7999 82.4002 32.7999 82.2002 32.7999H81.7002H81.1002C80.8002 32.6999 80.5002 32.6999 80.1002 32.6999H79.3002H78.4002H77.9002H77.5002H76.9002C76.8002 32.6999 76.7002 32.7999 76.7002 32.8999C76.7002 32.9999 76.8002 33.0999 76.8002 33.0999C76.8002 33.1999 76.9002 33.1999 77.0002 33.1999H77.4002H78.0002C78.0002 33.2999 78.1002 33.2999 78.1002 33.2999H78.2002C78.6002 33.3999 79.0002 33.5999 79.3002 33.7999C79.7002 33.9999 79.9002 34.2999 80.2002 34.7999L80.5002 35.3999C80.5669 35.4666 80.6335 35.6221 80.7002 35.7777C80.7335 35.8555 80.7669 35.9332 80.8002 35.9999L89.5002 57.8999C89.6174 58.2514 89.7345 58.5342 89.8316 58.7685C89.9002 58.9342 89.9588 59.0756 90.0002 59.1999C90.1002 59.3499 90.1752 59.4999 90.2377 59.6249C90.3002 59.7499 90.3502 59.8499 90.4002 59.8999L90.5002 59.9999C90.5577 60.0574 90.5821 60.0818 90.6115 60.0922C90.6333 60.0999 90.6577 60.0999 90.7002 60.0999H90.8002H90.9002C91.0002 59.9999 91.1002 59.7999 91.3002 59.3999C91.5002 58.9999 91.8002 58.3999 92.2002 57.4999C92.29 57.2977 92.39 57.0754 92.5 56.8306L92.5002 56.8302C92.88 55.9852 93.38 54.8729 94.0002 53.3999C94.3378 52.598 94.6933 51.7426 95.0741 50.8263L95.0743 50.8259L95.0747 50.8248C95.596 49.5705 96.1647 48.2019 96.8002 46.6999C97.084 46.0062 97.3579 45.3323 97.6249 44.6752L97.6249 44.6752C98.2047 43.2485 98.7525 41.9008 99.3002 40.5999C100.1 38.6999 100.6 37.4999 100.8 36.9999C101.2 35.6999 101.6 34.8999 101.9 34.4999C102.2 34.0999 102.5 33.7999 102.7 33.5999L102.8 33.4999L102.8 33.4999C102.858 33.4424 102.882 33.418 102.912 33.4076C102.933 33.3999 102.958 33.3999 103 33.3999C103.3 33.2999 103.6 33.1999 103.8 33.1999H104.3H104.6C104.7 33.1999 104.7 33.0999 104.7 32.9999C104.7 32.8999 104.6 32.7999 104.5 32.7999C104.4 32.6999 104.3 32.6999 104.1 32.6999H103.6H103.1H102.7H102.3C102.1 32.7999 101.8 32.7999 101.6 32.7999H101.2H100.7C100.4 32.6999 100.1 32.6999 99.8002 32.6999H99.1002H98.4002H98.1002H97.8002C97.61 32.6999 97.46 32.7401 97.3502 32.7695C97.2868 32.7865 97.2368 32.7999 97.2002 32.7999C97.1002 32.7999 97.0002 32.8999 97.0002 32.9999C97.0002 33.0999 97.0002 33.1999 97.1002 33.1999H97.4002H97.8002H98.2002H98.5002C98.6002 33.2999 98.7002 33.2999 98.8002 33.2999C98.9002 33.2999 99.0002 33.3999 99.1002 33.4999C99.1002 33.5499 99.1252 33.5999 99.1502 33.6499C99.1752 33.6999 99.2002 33.7499 99.2002 33.7999V33.8999V33.9999C99.2002 34.1999 99.2002 34.3999 99.1002 34.5999C99.1002 34.7463 99.0466 34.8927 98.9787 35.0784L98.9786 35.0784L98.9786 35.0786C98.9537 35.1465 98.927 35.2196 98.9002 35.2999C98.7739 35.5945 98.6299 36.0132 98.4459 36.5483L98.4458 36.5484C98.1926 37.2848 97.8635 38.2417 97.4002 39.3999C96.8936 40.6664 96.387 41.9729 95.8551 43.345L95.855 43.3451C95.5469 44.1398 95.2303 44.9564 94.9002 45.7999C94.8502 45.8499 94.8252 45.9249 94.8002 45.9999C94.7752 46.0749 94.7502 46.1499 94.7002 46.1999C94.7002 46.2499 94.6752 46.3249 94.6502 46.3999L94.6502 46.3999C94.6252 46.4749 94.6002 46.5499 94.6002 46.5999C94.0975 47.7488 93.6465 48.8977 93.2099 50.0096L93.2098 50.0098L93.2095 50.0107L93.2092 50.0115C93.038 50.4474 92.8691 50.8776 92.7002 51.2999C92.4102 51.9766 92.1435 52.6299 91.9002 53.226L91.9002 53.2261C91.6402 53.8632 91.4068 54.435 91.2002 54.8999ZM134.6 45.6999V34.0999C134.6 34.0712 134.6 34.0508 134.595 34.0315C134.584 33.9835 134.543 33.9426 134.4 33.7999C134.4 33.7999 134.5 33.6999 134.6 33.6999C134.683 33.6999 134.783 33.6827 134.9 33.6626C135.066 33.6342 135.266 33.5999 135.5 33.5999C136 33.4999 136.5 33.4999 137 33.4999C138.9 33.4999 140.4 34.0999 141.5 35.3999C142.6 36.5999 143.2 38.3999 143.2 40.5999C143.2 41.9999 143 43.1999 142.6 44.0999C142.2 44.9999 141.7 45.6999 141.1 46.0999C140.9 46.2999 140.7 46.3999 140.4 46.4999C140.2 46.5999 139.9 46.6999 139.7 46.6999C139.6 46.6999 139.5 46.7249 139.4 46.7499C139.3 46.7749 139.2 46.7999 139.1 46.7999H138.5H138.4H138.3C137.6 46.7999 136.9 46.6999 136.2 46.5999C135.658 46.5224 135.295 46.3848 135.02 46.2802C134.94 46.2499 134.868 46.2224 134.8 46.1999C134.762 46.1617 134.724 46.1381 134.691 46.1179C134.638 46.0853 134.6 46.0617 134.6 45.9999V45.6999ZM167.6 47.4999H160.8C160.75 47.4999 160.725 47.4999 160.713 47.5124C160.7 47.5249 160.7 47.5499 160.7 47.5999V47.4999V47.3999V47.2999L163.8 37.6999C163.8 37.3999 163.9 37.2999 164 37.2999C164.1 37.2999 164.2 37.4999 164.3 37.6999L167.7 47.2999V47.4999H167.6Z" fill="#8B91A6"/>
<path d="M71.7 0.499805C71.5 0.399805 71.2 0.299805 70.8 0.299805C70.5 0.299805 70.2 0.299805 69.8 0.299805C69.5 0.299805 69.2 0.299805 68.8 0.399805C68.5 0.399805 68.2 0.399805 67.9 0.399805C67.6 0.399805 67.4 0.399805 67.1 0.399805C66.5 0.499805 66 0.499805 65.6 0.599805C65.2 0.599805 64.9 0.599805 64.8 0.599805C64.6 0.599805 64.2 0.599805 63.6 0.599805C63.1 0.499805 62.5 0.499805 61.8 0.399805C61.3 0.399805 60.8 0.399805 60.3 0.399805C59.8 0.299805 59.3 0.299805 58.7 0.299805C58.5 0.299805 58.3 0.299805 58 0.299805C57.8 0.299805 57.6 0.299805 57.3 0.299805C56.7 0.299805 56.3 0.399805 56 0.499805C55.7 0.599805 55.6 0.699805 55.6 0.999805C55.6 1.1998 55.7 1.2998 55.8 1.3998C56 1.4998 56.2 1.4998 56.4 1.4998C56.7 1.4998 56.9 1.4998 57.2 1.4998C57.5 1.4998 57.8 1.4998 58 1.5998C58.3 1.5998 58.5 1.5998 58.7 1.6998C58.9 1.7998 59.1 1.7998 59.3 1.8998C59.6 2.0998 59.8 2.1998 59.9 2.3998C60.1 2.5998 60.2 2.7998 60.2 3.0998C60.3 3.1998 60.3 3.2998 60.3 3.3998C60.3 3.4998 60.3 3.4998 60.3 3.5998C60.3 3.9998 60.2 4.3998 60.1 4.8998C60 5.3998 59.8 5.8998 59.6 6.4998C59.1 7.9998 58.1 10.9998 56.5 15.3998C54.9 19.6998 53.1 24.2998 51.2 29.1998C51.1 29.4998 51 29.7998 50.8 30.0998C50.7 30.3998 50.6 30.5998 50.5 30.8998C49.1 34.3998 47.8 37.7998 46.5 40.9998C45.2 44.1998 44.1 46.7998 43.2 48.7998L38.1 35.1998H31L38.7 54.4998C39.2 55.6998 39.6 56.6998 39.9 57.2998C40.2 57.9998 40.5 58.3998 40.7 58.7998C40.8 58.8998 40.9 58.9998 41 58.9998C41.2 59.0998 41.3 59.1998 41.5 59.1998C41.6 59.1998 41.7 59.1998 41.7 59.0998C41.8 59.0998 41.8 59.0998 41.9 58.9998C42.2 58.6998 42.5 58.1998 42.8 57.3998C43.2 56.5998 43.8 55.2998 44.6 53.3998C45.5 51.4998 46.8 48.5998 48.4 44.5998C50.1 40.5998 52.1 35.7998 54.5 30.1998C56.4 25.4998 58.3 21.1998 60 17.0998C61.7 13.0998 62.7 10.4998 63.1 9.4998C64.1 6.8998 64.9 5.0998 65.6 4.1998C66.3 3.2998 66.9 2.5998 67.4 2.2998C67.5 2.1998 67.6 2.0998 67.7 2.0998C67.9 1.9998 68 1.9998 68.2 1.8998C68.8 1.5998 69.4 1.4998 70 1.3998C70.6 1.2998 70.9 1.2998 71.2 1.2998C71.5 1.2998 71.7 1.2998 71.9 1.1998C72.1 1.0998 72.1 0.899805 72.1 0.699805C72.1 0.599805 72 0.499805 71.7 0.499805Z" fill="#8B91A6"/>
<path fill-rule="evenodd" clip-rule="evenodd" d="M6.8 35.8V22.4V10.9C6.8 8.9 6.7 7.3 6.6 6.2V6.1V5.9C6.5 4.6 6.3 3.6 5.8 2.9C5.4 2.2 4.5 1.8 3.3 1.5C3.1 1.4 2.9 1.4 2.7 1.4C2.4 1.3 2.2 1.3 1.9 1.3C1.7 1.2 1.5 1.2 1.2 1.2H1.2H0.7C0.6 1.2 0.4 1.2 0.2 1.1C0.1 1 0 0.9 0 0.7C0 0.4 0.1 0.3 0.3 0.2C0.5 0.1 0.8 0 1.2 0H2.4H3.8C4.3 0.1 4.8 0.1 5.3 0.1H6.8C7.17157 0.146447 7.52157 0.17132 7.85 0.194661C8.22868 0.221573 8.57868 0.246447 8.9 0.3H10H11.5C11.8107 0.248217 12.1482 0.223248 12.4987 0.197324C12.825 0.173185 13.1625 0.148217 13.5 0.1H15.8C16.6 0 17.5 0 18.3 0C22.5 0 25.7 0.7 27.8 2.1C30 3.5 31.6 5.1 32.5 6.8C32.9 7.7 33.2 8.5 33.3 9.3C33.5 10.1 33.6 10.8 33.6 11.4C33.6 14.5 32.8 17.1 31.3 19.2C29.8 21.3 28.2 23.3 26.4 25.2L28.2 25.8L30 26.7C32.4 28 34.6 29.8 36.6 32.3C38.6 34.7 39.7 37.7 39.7 41.3V41.8V42.2C39.4 46.2 37.7 49.8 34.5 53C31.3 56.3 26.5 57.9 20.1 57.9C19.7 57.9 19 57.9 18.1 57.8C17.6388 57.7487 17.1512 57.7238 16.6509 57.6981L16.6508 57.6981C16.1749 57.6737 15.6875 57.6487 15.2 57.6H14.9H14.6C14.0749 57.5523 13.5499 57.5273 13.0466 57.5034C12.4955 57.4772 11.9704 57.4523 11.5 57.4C10.6 57.3 10 57.3 9.9 57.3H8.8C8.47517 57.3541 8.15034 57.379 7.79377 57.4062C7.49172 57.4293 7.16689 57.4541 6.8 57.5H6.2H5.5H3.8C3.2 57.6 2.8 57.6 2.3 57.6C1.8 57.6 1.6 57.5 1.4 57.4C1.2 57.3 1.1 57.2 1.1 57C1.1 56.9 1.2 56.8 1.3 56.7C1.4 56.6 1.6 56.5 1.8 56.5H2.3C2.5 56.4 2.7 56.4 2.9 56.4C3.1 56.3 3.3 56.3 3.5 56.3C3.58769 56.2562 3.67538 56.2315 3.75464 56.2093C3.85615 56.1808 3.94384 56.1562 4 56.1C4.8 55.9 5.3 55.5 5.5 54.7C5.8 53.9 6 53 6.2 51.9C6.4 50.3 6.5 48 6.5 45.2C6.8 42.9 6.8 39.6 6.8 35.8ZM13 27.8V32.2V35.2V38.3V45.1C13 47.2 13 48.4 13.1 48.8V49.3C13.2 49.5 13.2 49.6 13.2 49.8C13.3 51.3 13.5 52.3 13.7 53C14 53.7 14.6 54.2 15.5 54.8C15.55 54.8 15.575 54.8 15.5875 54.8125C15.6 54.825 15.6 54.85 15.6 54.9H15.8L15.8 54.9C16.2 55.1 16.6 55.3 17.1 55.4L18.6 55.7C19.4 55.8 20.2 55.9 20.9 55.9C21.2986 55.9 21.6648 55.9324 21.9802 55.9604H21.9802C22.2185 55.9815 22.4278 56 22.6 56C23.2 56 23.7999 55.9 24.3999 55.8L24.4 55.8C25 55.7 25.7 55.5 26.4 55.3C28.1 54.7 29.7 53.7 31.2 52.1C32.7 50.5 33.4 48.2 33.4 45.1C33.4 44.1 33.3 43 33.1 41.8C32.9 40.6 32.7 39.4 32.3 38.2C31.8 36.7 31 35.2 30 33.7C29 32.2 27.6 30.9 26 29.8C24.7 28.9 23.6 28.4 22.5 28.1C21.4 27.8 20.5 27.7 19.6 27.6C19.3 27.5 18.9 27.5 18.4 27.5C17.8 27.4 17.2 27.4 16.6 27.4H14.9H13.7C13.5 27.4 13.4 27.5 13.3 27.6C13 27.6 13 27.7 13 27.8ZM13 24.1V3.6C13 3.4 13 3.2 13.2 3.3C13.4 3.2 13.6 3.1 14 3C14.1 2.95 14.2 2.925 14.3 2.9C14.4 2.875 14.5 2.85 14.6 2.8C14.9 2.7 15.1 2.7 15.3 2.7C15.8 2.6 16.2 2.6 16.6 2.6C17.1 2.5 17.4 2.5 17.7 2.5C21.3 2.5 23.8 3.7 25.4 6.2C27 8.7 27.9 11.4 28.1 14.4V15V15.6C28.1 17.2 27.8 18.7 27.3 20C26.8 21.4 26.1 22.5 25.3 23.4C25.2 23.6 25.1 23.7 24.9 23.8L24.6 24.1C23.9 24.7 23.2 25 22.3 25.2C21.5 25.3 20.1 25.4 18.3 25.4H16.1C15.8297 25.3549 15.5797 25.3302 15.35 25.3074C15.0698 25.2797 14.8198 25.255 14.6 25.2C14.4 25.1 14.2 25.1 14 25.1C13.8 25 13.7 25 13.6 25L13.6 25C13.4 24.9 13.2 24.8 13.1 24.7C13 24.6 13 24.4 13 24.1Z" fill="#8B91A6"/>
</svg>
